<svg id="Layer_1" data-name="Layer 1" xmlns="http://www.w3.org/2000/svg" width="400" height="400" viewBox="0 0 400 400">
  <defs>
    <style>
      .cls-1 {
        fill: #333;
      }
    </style>
  </defs>
  <path class="cls-1" d="M226.2,144.73c0-.37-.09-.74-.14-1.11a.51.51,0,0,0,0-.24c-.05-.32-.1-.64-.17-1a1.63,1.63,0,0,0-.07-.36c-.05-.28-.12-.55-.18-.83s-.07-.29-.12-.44-.14-.52-.22-.78-.08-.3-.13-.45-.19-.57-.29-.85c0-.11-.07-.22-.11-.34-.14-.37-.28-.74-.44-1.11h0a26.26,26.26,0,0,0-24.18-16,26.26,26.26,0,0,0,26.25,26.27c0-.88-.05-1.75-.13-2.62A.5.5,0,0,1,226.2,144.73Z"/>
  <path class="cls-1" d="M200.08,173.72a26.27,26.27,0,0,0-26.25-26.27v1.61a3.44,3.44,0,0,0,0,.7c.05.23,0,.42.07.63s.05.41.07.6.07.5.11.75l.09.46c.05.28.11.58.17.87a2,2,0,0,0,.07.31c.09.33.17.69.26,1l0,.14c.11.39.22.78.36,1.17h0a26.64,26.64,0,0,0,2.18,4.88.35.35,0,0,0-.06-.09A26.26,26.26,0,0,0,200.08,173.72Z"/>
  <path class="cls-1" d="M222.38,161.23l-.11.18c-.12.21-.23.43-.35.65q.5-.74.93-1.5c.21-.37.41-.7.6-1.11l0-.09c.18-.35.36-.69.52-1.07l.07-.17c.15-.32.28-.64.42-1a.91.91,0,0,1,.11-.3c.11-.27.21-.55.3-.83s.11-.32.16-.47l.21-.66c.07-.22.12-.44.18-.7l.12-.47c.07-.29.13-.57.2-.87l.06-.29c.07-.36.13-.7.19-1.07v-.13c.06-.4.11-.82.15-1.23h0a26.77,26.77,0,0,0,.14-2.69,26.27,26.27,0,0,0-26.26,26.27A26.19,26.19,0,0,0,221,163.33c.5-.69,1-1.4,1.39-2.13Z"/>
  <path class="cls-1" d="M200.08,121.18a26.24,26.24,0,0,0-13.27,3.61l-.76.47-.41.26-.59.4-.54.39-.39.3-.7.53-.19.16c-.27.23-.55.46-.81.7h0a26.33,26.33,0,0,0-4.09,4.73c-.07.09-.13.2-.2.3s-.31.48-.46.69-.37.63-.55.94a.54.54,0,0,0-.05.11,26.33,26.33,0,0,0-3,9.41v.21c0,.3-.06.61-.08.91v.46a4.35,4.35,0,0,1,0,.69,4.7,4.7,0,0,0,0,.65v.28A26.26,26.26,0,0,0,200.08,121.18Z"/>
  <path class="cls-1" d="M200.08,173.72a26.27,26.27,0,0,1,26.26-26.27,26.27,26.27,0,0,1-26.26-26.27,26.26,26.26,0,0,1-26.25,26.27h0A26.27,26.27,0,0,1,200.08,173.72Z"/>
  <path class="cls-1" d="M226.12,128.17a26.27,26.27,0,0,1,26.26-26.27,26.27,26.27,0,0,1-26.26-26.27,26.26,26.26,0,0,1-26.25,26.27h0A26.26,26.26,0,0,1,226.12,128.17Z"/>
  <path class="cls-1" d="M102.08,200.38a26.26,26.26,0,0,1,26.26-26.26,26.26,26.26,0,0,1-26.26-26.27,26.27,26.27,0,0,1-26.25,26.27h0A26.27,26.27,0,0,1,102.08,200.38Z"/>
  <path class="cls-1" d="M174.19,324.27A26.27,26.27,0,0,1,200.45,298a26.27,26.27,0,0,1-26.26-26.27A26.26,26.26,0,0,1,147.94,298h0A26.27,26.27,0,0,1,174.19,324.27Z"/>
  <path class="cls-1" d="M167.73,151c-.77-.45-1.55-.84-2.35-1.21h-.07c-.33-.15-.7-.29-1-.43l-.25-.1c-.28-.11-.55-.2-.83-.29l-.45-.17-.64-.19-.62-.18-.5-.13-.75-.18-.45-.1-.82-.16-.49-.08c-.25,0-.5-.08-.75-.1l-.76-.08-.46,0a26.28,26.28,0,0,0-11.11,1.59h0c-.32.11-.63.25-.95.38l-.33.13-.69.32-.58.27-.47.25-.76.41a26.26,26.26,0,0,0-9.76,9.7A26.24,26.24,0,0,0,167.73,151Z"/>
  <path class="cls-1" d="M177.35,186.85a26.25,26.25,0,0,0-35.87,9.62l.17.1.85.45.33.18.82.39.4.18.75.32.51.2.63.23.65.22.49.14.82.24.33.09,1,.23h.17l1.17.2h0a26.33,26.33,0,0,0,4,.3h0A26.26,26.26,0,0,0,177.35,186.85Z"/>
  <path class="cls-1" d="M178.84,163.63a23.38,23.38,0,0,0-1.19-2.34h0l.09.18c.14.23.28.45.42.7-.31-.64-.66-1.27-1-1.89l-.32-.51c-.12-.2-.25-.4-.38-.59l-.33-.48-.44-.61c-.09-.14-.2-.27-.3-.41s-.34-.43-.53-.65l-.24-.29a8.73,8.73,0,0,0-.64-.7l-.16-.17q-.37-.41-.78-.81L173,155a26,26,0,0,0-5.24-4,26.27,26.27,0,0,0,9.62,35.88h0A26.19,26.19,0,0,0,178.84,163.63Z"/>
  <path class="cls-1" d="M128.4,175.37v.46c0,.3,0,.61.08.91V177a26.61,26.61,0,0,0,3.1,9.38l.06.1c.17.32.36.64.55.94s.31.49.46.7l.2.3a26.33,26.33,0,0,0,4.09,4.73h0c.26.24.53.47.81.7l.19.16c.22.18.45.35.7.53l.39.3.53.38.6.4.41.27.76.46.15.09a26.28,26.28,0,0,0-9.62-35.88,26.15,26.15,0,0,0-3.48,13.41v.66C128.38,174.8,128.39,175.13,128.4,175.37Z"/>
  <path class="cls-1" d="M141.48,196.47h0a26.25,26.25,0,0,1,35.87-9.62A26.27,26.27,0,0,1,167.73,151h0a26.25,26.25,0,0,1-35.86,9.62h0A26.29,26.29,0,0,1,141.48,196.47Z"/>
  <path class="cls-1" d="M258.62,294.48h0a26.26,26.26,0,0,1,35.87-9.61A26.27,26.27,0,0,1,284.87,249h0A26.24,26.24,0,0,1,249,258.61h0A26.28,26.28,0,0,1,258.62,294.48Z"/>
  <path class="cls-1" d="M115,150.79h0a26.24,26.24,0,0,1,35.86-9.61,26.27,26.27,0,0,1-9.61-35.88h0a26.24,26.24,0,0,1-35.86,9.62h0A26.28,26.28,0,0,1,115,150.79Z"/>
  <path class="cls-1" d="M141.47,203.51c-.77.44-1.51.93-2.23,1.44h0l-.91.7-.18.14c-.25.2-.48.4-.7.61l-.31.26-.55.52-.41.39-.44.45-.46.48-.39.45c-.12.15-.29.33-.44.5L134,210c-.15.2-.22.27-.32.41s-.43.59-.63.89l-.08.11a26.26,26.26,0,0,0-4.37,11.64v.11c0,.32-.07.65-.09,1v1.78A26.19,26.19,0,0,0,132,239.36,26.26,26.26,0,0,0,141.47,203.51Z"/>
  <path class="cls-1" d="M177.35,213.12A26.28,26.28,0,0,0,167.73,249a26.18,26.18,0,0,0,7.78-6.85l.07-.1c.23-.29.44-.59.64-.89l.14-.2c.19-.28.37-.56.55-.86l.15-.23A26.29,26.29,0,0,0,177.35,213.12Z"/>
  <path class="cls-1" d="M177.35,213.12A26.25,26.25,0,0,0,158,200.21a25.39,25.39,0,0,0-2.62-.13h1c-.7-.05-1.39-.06-2.09-.05H153l-.7.05-.63.06-.6.08-.75.11-.45.08-.88.18-.3.07-1,.25-.14.05c-.39.11-.78.22-1.16.35h0a26.34,26.34,0,0,0-4.88,2.18,26.26,26.26,0,0,0,35.87,9.64Z"/>
  <path class="cls-1" d="M167.73,249a26.25,26.25,0,0,0-35.87-9.62h0a26.27,26.27,0,0,0,10,9.83l.26.14,1,.5h0A26.23,26.23,0,0,0,167.73,249Z"/>
  <path class="cls-1" d="M173.83,252.56v1a4.05,4.05,0,0,0,0,.7,2.87,2.87,0,0,1,0,.51,8.21,8.21,0,0,0,.08.84.78.78,0,0,0,0,.3c0,.35.09.7.15,1V257a26.42,26.42,0,0,0,2.28,7.1l.19.38c.12.24.23.47.36.7a26.34,26.34,0,0,0,8.29,9.14l.14.1.85.55a1.75,1.75,0,0,1,.29.18A26.17,26.17,0,0,0,200,278.86,26.27,26.27,0,0,0,173.83,252.56Z"/>
  <path class="cls-1" d="M200.35,226.26h-.27a26.27,26.27,0,0,0,26.23,26.3h0a26.77,26.77,0,0,0-.14-2.69h0q-.06-.63-.15-1.23v-.14c-.06-.36-.12-.7-.19-1.06l-.06-.3c-.06-.29-.13-.57-.2-.86l-.12-.48-.18-.65-.21-.67c-.08-.21-.1-.31-.16-.46s-.19-.56-.3-.84c0-.1-.08-.19-.11-.29l-.41-1-.08-.16c-.16-.36-.34-.69-.52-1.07l0-.09q-.28-.56-.6-1.11A26.24,26.24,0,0,0,200.35,226.26Z"/>
  <path class="cls-1" d="M200.08,226.27h-.25a26.21,26.21,0,0,0-20.68,10.41,22.29,22.29,0,0,0-1.39,2.09h0c0-.06.07-.11.11-.18l.33-.61a18.09,18.09,0,0,0-1,1.62l.13-.21a26.42,26.42,0,0,0-2.86,7.26.27.27,0,0,1,0,.17c-.07.33-.14.66-.2,1l-.06.35-.12.83a4.34,4.34,0,0,1-.07.52c0,.17,0,.47-.07.7s0,.43,0,.65,0,.41,0,.61v1.09a26.26,26.26,0,0,0,26.22-26.29Z"/>
  <path class="cls-1" d="M200.08,278.79a26.26,26.26,0,0,0,24.19-16v-.05c.16-.36.3-.73.43-1.1a2.42,2.42,0,0,0,.12-.35c.1-.28.2-.56.29-.85s.09-.3.13-.44.15-.52.22-.78.07-.3.12-.44.13-.55.18-.83a1.91,1.91,0,0,1,.07-.36c.07-.33.12-.64.17-1a.51.51,0,0,1,0-.24c.05-.37.1-.74.14-1.11v-.11a25,25,0,0,0,.13-2.62A26.27,26.27,0,0,0,200.08,278.79Z"/>
  <path class="cls-1" d="M226.34,252.56a26.28,26.28,0,0,1-26.26-26.26h0a26.26,26.26,0,0,1-26.25,26.26h0a26.26,26.26,0,0,1,26.25,26.26A26.26,26.26,0,0,1,226.34,252.56Z"/>
  <path class="cls-1" d="M173.93,200v.07a25,25,0,0,0,3.29,12.45h0c-.32-.55-.65-1.07-1-1.59a26,26,0,0,0,2.69,4.59c-.33-.7-.69-1.43-1.08-2.09h0a25.07,25.07,0,0,0,21.69,12.63h0a13.57,13.57,0,0,0-1.92.09c.74.07,1.48.1,2.24.11h.26A26.25,26.25,0,0,0,173.93,200Z"/>
  <path class="cls-1" d="M226.22,200v-.09a24.84,24.84,0,0,0-3.31-12.45h0c.33.56.7,1.09,1,1.62a25.52,25.52,0,0,0-2.73-4.65c.34.7.7,1.45,1.1,2.14h0a25.09,25.09,0,0,0-21.67-12.63h0c.62,0,1.23,0,1.83-.08-.78-.07-1.58-.11-2.39-.11A26.27,26.27,0,0,0,226.22,200Z"/>
  <path class="cls-1" d="M177.35,187.44A25,25,0,0,0,173.93,200a26.25,26.25,0,0,0,26.15-26.26,24.75,24.75,0,0,0-2.85.16c.78.07,1.56.11,2.35.11h0a25,25,0,0,0-21.77,12.45h0c.3-.53.57-1.06.83-1.61a26.46,26.46,0,0,0-2.57,4.55c.45-.63.88-1.29,1.27-2Z"/>
  <path class="cls-1" d="M224.17,210.48c-.48.69-.94,1.39-1.35,2.09h0A25,25,0,0,0,226.23,200a26.26,26.26,0,0,0-26.14,26.26h.27a26.56,26.56,0,0,0,2.67-.16c-.82-.08-1.63-.12-2.44-.12h0a25,25,0,0,0,21.76-12.48h0c-.33.56-.62,1.14-.89,1.72.42-.6.83-1.21,1.2-1.85l.15-.27a1.64,1.64,0,0,1,.14-.22C223.39,212.11,223.8,211.3,224.17,210.48Z"/>
  <path class="cls-1" d="M173.93,200h0a26.25,26.25,0,0,1,26.15,26.26A26.26,26.26,0,0,1,226.22,200h0a26.28,26.28,0,0,1-26.14-26.27A26.26,26.26,0,0,1,173.93,200Z"/>
  <path class="cls-1" d="M232.43,249a26.82,26.82,0,0,0,4.83,2.17h0c.39.14.78.25,1.17.37h.09l1.19.3h.06a26.28,26.28,0,0,0,28.5-12.5A26.25,26.25,0,0,0,232.43,249Z"/>
  <path class="cls-1" d="M223,212.9a1.64,1.64,0,0,0-.14.22,26.24,26.24,0,0,0,35.86-9.6h0a26,26,0,0,0-6.05-2.55h-.08c-.36-.1-.69-.19-1.08-.28l-.24-.05c-.31-.07-.62-.14-.93-.19l-.41-.07c-.26-.05-.52-.08-.78-.12l-.56-.07-.7-.07-.7-.05h-1.29A26.26,26.26,0,0,0,223,212.9Z"/>
  <path class="cls-1" d="M222.82,213.12l-.14.27a26.22,26.22,0,0,0-1.27,23.13,21.84,21.84,0,0,0,1.11,2.15h0l-.1-.18c-.11-.19-.23-.36-.34-.55.28.56.57,1.09.88,1.62.16.26.31.52.47.77l.24.37c.15.24.31.46.47.7l.31.43.42.56.42.52c.15.17.22.27.34.4s.36.43.55.64l.24.24.7.75.1.09a26,26,0,0,0,5.21,3.95A26.28,26.28,0,0,0,222.82,213.12Z"/>
  <path class="cls-1" d="M271.76,224.48v-.13a26.35,26.35,0,0,0-5.24-13.94h0c-.25-.33-.51-.65-.77-1l-.17-.2c-.21-.25-.44-.5-.66-.75l-.24-.24-.66-.7-.22-.21c-.24-.24-.49-.47-.74-.7l-.13-.09c-.29-.25-.58-.51-.88-.75h0a25.42,25.42,0,0,0-3.29-2.24,26.28,26.28,0,0,0,9.61,35.88,26,26,0,0,0,3.52-13.54v-.36C271.8,225.15,271.78,224.81,271.76,224.48Z"/>
  <path class="cls-1" d="M258.69,196.47l.1-.06c.3-.17.59-.35.88-.54l.29-.19.7-.49.41-.29.53-.41.54-.42.35-.3.66-.57.19-.18.75-.7.08-.08c.28-.27.54-.55.81-.84v0c.27-.3.53-.6.78-.91l.09-.1.69-.87.27-.39.44-.6c.21-.32.42-.63.61-.94a.22.22,0,0,1,.05-.08,26.58,26.58,0,0,0,3.8-11.8.54.54,0,0,1,0-.18c0-.32,0-.65,0-1v-.38a26.08,26.08,0,0,0-3.52-13.53A26.28,26.28,0,0,0,258.69,196.47Z"/>
  <path class="cls-1" d="M222.82,186.85A26.27,26.27,0,0,0,232.44,151h0a26,26,0,0,0-5.2,3.95l-.11.09c-.24.25-.49.49-.69.74l-.24.25c-.19.21-.37.42-.55.64s-.23.26-.34.4l-.42.53-.43.55a5,5,0,0,0-.3.44l-.48.69-.23.38c-.16.25-.32.5-.47.77A26.23,26.23,0,0,0,222.82,186.85Z"/>
  <path class="cls-1" d="M222.82,186.85a26.19,26.19,0,0,0,19.56,12.94c.8.08,1.61.12,2.42.12h-.86c.55,0,1.11.05,1.68.05h-.05a26.17,26.17,0,0,0,4-.3h.08l1.12-.2.23-.05c.32-.06.63-.14,1-.21l.39-.1.76-.22.55-.17.57-.19.7-.26.42-.16c.28-.12.57-.23.85-.36l.3-.14c.31-.14.62-.28.93-.44l.23-.12c.32-.16.64-.34.95-.52l.12-.07A26.27,26.27,0,0,0,222.82,186.85Z"/>
  <path class="cls-1" d="M268.3,160.58a26.28,26.28,0,0,0-28.5-12.5h-.06l-1.19.3h-.09l-1.17.36h0a25.89,25.89,0,0,0-4.83,2.18A26.25,26.25,0,0,0,268.3,160.58Z"/>
  <path class="cls-1" d="M268.3,160.58A26.25,26.25,0,0,1,232.43,151a26.27,26.27,0,0,1-9.6,35.88h0a26.26,26.26,0,0,1,35.87,9.62h0A26.29,26.29,0,0,1,268.3,160.58Z"/>
  <path class="cls-1" d="M320.83,160.59h0a26.27,26.27,0,0,0-9.61,35.88,26.72,26.72,0,0,0,4.26-3.06l.08-.07c.26-.23.52-.48.78-.73l.2-.18.64-.66.26-.28c.2-.21.38-.43.57-.65l.27-.31.59-.75.19-.24c.25-.33.49-.69.69-1h0a26.28,26.28,0,0,0,4.19-10.34.36.36,0,0,1,0-.18c0-.29.08-.57.12-.85a4.81,4.81,0,0,1,.07-.53c0-.17,0-.38,0-.57s.05-.56.07-.84v-1.41a26.2,26.2,0,0,0-3.49-13.25h0Z"/>
  <path class="cls-1" d="M271.87,172.2V173h0v2.18c0,.34.05.7.08,1v.33a6.07,6.07,0,0,0,.13.94,1,1,0,0,0,.05.39c0,.28.1.56.16.85a2,2,0,0,0,.09.47l.16.7.15.58.17.6.21.69.16.46q.13.42.3.81c0,.13.09.25.13.37l.37.88.14.29c.14.3.28.61.44.92l.14.26c.15.3.31.6.48.89l.09.16A26.26,26.26,0,0,0,284.93,151h0A26.28,26.28,0,0,0,271.87,172.2Z"/>
  <path class="cls-1" d="M275.35,186.85l.08.14c.15.27.31.52.47.78l.27.41c.09.13.25.38.39.56s.26.39.4.58l.25.33c.2.25.39.51.59.75l.07.08a26.55,26.55,0,0,0,7.67,6.32l.25.13c.28.15.56.3.84.43l.7.33.41.18c.31.14.64.26.95.38l.21.08c.33.13.69.24,1,.35l.2.07.92.27.32.09.78.19.5.11.61.12.69.13.41.05c.32.06.64.1,1,.13h.21c.39,0,.78.07,1.19.09h0c.44,0,.88,0,1.33,0h.7l1.25-.07h0a26.14,26.14,0,0,0,11.15-3.44A26.24,26.24,0,0,0,275.35,186.85Z"/>
  <path class="cls-1" d="M320.82,160.59A26.25,26.25,0,0,0,285,151h0A26.25,26.25,0,0,0,320.82,160.59Z"/>
  <path class="cls-1" d="M275.35,186.85h0a26.25,26.25,0,0,1,35.86,9.62h0a26.27,26.27,0,0,1,9.61-35.88h0A26.25,26.25,0,0,1,285,151h0A26.27,26.27,0,0,1,275.35,186.85Z"/>
  <path class="cls-1" d="M131.88,239.38h0A26.25,26.25,0,0,1,167.74,249h0a26.27,26.27,0,0,1,9.61-35.88h0a26.26,26.26,0,0,1-35.86-9.61h0A26.27,26.27,0,0,1,131.88,239.38Z"/>
  <path class="cls-1" d="M151.41,115.26h0a26.23,26.23,0,0,1,35.85,9.61h0A26.27,26.27,0,0,1,196.88,89h0A26.26,26.26,0,0,1,161,79.38h0A26.29,26.29,0,0,1,151.41,115.26Z"/>
  <path class="cls-1" d="M79.34,239.41h0A26.24,26.24,0,0,1,115.2,249h0a26.27,26.27,0,0,1,9.61-35.88h0A26.25,26.25,0,0,1,89,203.53h0A26.28,26.28,0,0,1,79.34,239.41Z"/>
  <path class="cls-1" d="M285,105.46h0a26.28,26.28,0,0,0,9.61,35.88,26.59,26.59,0,0,0,1.69-3.48l.08-.19c.11-.29.21-.59.32-.89,0-.13.09-.26.14-.39s.13-.45.2-.7.12-.4.17-.6.09-.32.13-.49.13-.51.19-.77a2.29,2.29,0,0,1,.07-.36c.06-.3.12-.6.17-.89,0-.12,0-.24,0-.35.05-.3.1-.6.13-.9s0-.34.05-.51.05-.48.07-.7,0-.61,0-.92v-.31a26.25,26.25,0,0,0-1.23-8.63v-.08c-.1-.3-.2-.6-.32-.9l-.13-.36c-.08-.22-.16-.42-.26-.63s-.17-.44-.27-.66-.12-.25-.17-.38c-.14-.3-.28-.6-.43-.89l-.09-.18c-.19-.36-.38-.69-.58-1.07a26.15,26.15,0,0,0-9.63-9.65Z"/>
  <path class="cls-1" d="M247.7,138.58a26.13,26.13,0,0,0,11,12.38l-.09,0,.09.05a26.26,26.26,0,0,0-9.6-35.87h0A26.22,26.22,0,0,0,247.7,138.58Z"/>
  <path class="cls-1" d="M258.7,151c.48.28,1,.53,1.46.77l-.77-.48h0a24.77,24.77,0,0,0,4.39,2,25.19,25.19,0,0,0,20.75-2.13h0l-.18.1c-.26.14-.51.31-.76.47.61-.31,1.22-.64,1.82-1l.21-.13.87-.56.21-.15.86-.61.15-.12.9-.7.06,0a26.45,26.45,0,0,0,5.85-7A26.24,26.24,0,0,0,258.7,151Z"/>
  <path class="cls-1" d="M285,105.46a26.25,26.25,0,0,0-35.86,9.62A26.25,26.25,0,0,0,285,105.46Z"/>
  <path class="cls-1" d="M258.7,151a26.25,26.25,0,0,1,35.86-9.62h0A26.27,26.27,0,0,1,285,105.47h0a26.25,26.25,0,0,1-35.86,9.62h0A26.28,26.28,0,0,1,258.71,151Z"/>
  <path class="cls-1" d="M225.3,128.19h-.57l-.69-.06a2,2,0,0,1-.6-.06l-.65-.08-.7-.1-.52-.09-.8-.16-.39-.09-.93-.24-.24-.07-1.06-.32-.11,0c-.39-.13-.78-.27-1.16-.42h0a25.16,25.16,0,0,1-3.59-1.72,26.16,26.16,0,0,1,11,12.55h0c.15.37.3.74.43,1.11l.12.34c.1.28.2.56.28.85s.09.3.14.45.15.52.22.78.07.29.11.44.13.55.19.83a2.29,2.29,0,0,0,.07.36c.06.32.12.64.17,1a.61.61,0,0,0,0,.23c.06.37.11.74.15,1.12v.1a27.6,27.6,0,0,1,0,5.3h0c0,.41-.09.82-.16,1.24v.13c-.05.36-.11.71-.18,1.07l-.07.29c-.06.29-.12.58-.19.86l-.13.48c0,.22-.12.44-.18.69a5.86,5.86,0,0,1-.21.67l-.15.46-.3.84-.12.29c-.13.33-.26.66-.41,1l-.08.17c-.16.36-.33.69-.51,1.07l0,.08q-.28.57-.6,1.11v0l.11-.19c.16-.27.31-.52.47-.77l.24-.38.47-.69a3.83,3.83,0,0,1,.31-.43l.42-.56.42-.53.34-.4.55-.63.24-.26.7-.73.1-.1a26.07,26.07,0,0,1,10-6.12h0l1.17-.36h.09c.4-.1.79-.21,1.19-.3h.06A26.16,26.16,0,0,1,258.64,151l.08,0a26.26,26.26,0,0,1-9.61-35.87h0v0c-.19.35-.4.69-.62,1l-.11.16c-.18.3-.38.57-.58.86-.07.09-.13.2-.2.29l-.5.65-.34.43-.38.46-.49.56-.27.28-.63.7-.15.14c-.26.26-.51.51-.78.74l-.09.09-.86.74-.13.11-.84.69-.38.27-.62.45-.87.55-.15.1a26,26,0,0,1-10.54,3.67h-.16l-.94.1H226Z"/>
  <path class="cls-1" d="M252.6,102c0-.46,0-.9,0-1.35h0a9.69,9.69,0,0,0-.09-1.2v-.2c0-.32-.07-.63-.12-1a3,3,0,0,0-.06-.42c0-.14-.08-.46-.12-.7s-.08-.43-.13-.66-.06-.27-.1-.41c-.06-.29-.13-.58-.2-.87l-.06-.19L251.37,94h0a22.84,22.84,0,0,0-.88-2.34v0c-.15-.36-.32-.7-.48-1.07-.07-.13-.14-.25-.2-.38s-.24-.48-.37-.69-.31-.56-.48-.84a1.59,1.59,0,0,0-.13-.22,26,26,0,0,0-4.71-5.79l-.12-.11-.7-.59L243,81.6l-.5-.39-.59-.45-.32-.23L240.7,80l-.15-.09c-.35-.23-.7-.44-1.05-.64a26,26,0,0,0-13.15-3.54A26.27,26.27,0,0,0,252.58,102Z"/>
  <path class="cls-1" d="M212,124c.21.13.41.27.62.38h0l.61.36a25.16,25.16,0,0,0,3.59,1.72h0c.38.15.77.29,1.16.42l.12,0,1,.32.24.07.94.24.38.09.8.16.52.09.7.1.65.08c.19,0,.39,0,.6.06l.69.06h1.63A26.25,26.25,0,0,0,200.08,102,26.26,26.26,0,0,0,212,124Z"/>
  <path class="cls-1" d="M227.27,128.2h1.16l.94-.1h.16a25.89,25.89,0,0,0,10.54-3.67l.15-.1.87-.55.62-.45.38-.27.84-.69.13-.11.86-.74.09-.09c.27-.23.53-.48.78-.74l.15-.14a7.11,7.11,0,0,0,.63-.7l.27-.28.49-.56.38-.46c.11-.14.22-.29.34-.43l.5-.65c.07-.09.13-.2.2-.29.2-.28.4-.56.58-.86l.11-.16q.33-.5.63-1l.23-.41c.09-.15.16-.3.25-.46l.35-.69c.08-.16.15-.32.23-.47l.33-.7.17-.42c.12-.27.22-.54.32-.82l.12-.33c.11-.31.23-.62.32-.94l.07-.21c.11-.36.21-.69.3-1.08v-.09a25.84,25.84,0,0,0,.84-6.54,26.26,26.26,0,0,0-26.26,26.26h.29Z"/>
  <path class="cls-1" d="M200.08,102a26.26,26.26,0,0,0,26.26-26.27v0A26.27,26.27,0,0,0,200.08,102Z"/>
  <path class="cls-1" d="M196.57,88.81c-.22-.37-.46-.73-.7-1.08a.41.41,0,0,0-.07-.11c-.2-.31-.4-.6-.61-.9l-.19-.26c-.16-.22-.33-.45-.5-.66l-.34-.44-.37-.43c-.12-.14-.33-.4-.51-.59l-.21-.23c-.23-.24-.46-.49-.69-.7l-.06,0a26.13,26.13,0,0,0-3.81-3.15l-.32-.2-.7-.46c-.23-.15-.56-.33-.83-.48l-.23-.13a25.9,25.9,0,0,0-7-2.62h0c-.32-.07-.65-.14-1-.19l-.33-.07-.74-.1-.63-.08-.5,0-.88-.07h-1.41a26.17,26.17,0,0,0-13.24,3.52,26.25,26.25,0,0,0,35.89,9.55Z"/>
  <path class="cls-1" d="M155.09,120.35A26.25,26.25,0,0,0,187,124.7a26.26,26.26,0,0,0-35.87-9.63h0A26,26,0,0,0,155.09,120.35Z"/>
  <path class="cls-1" d="M187.55,124.24h0a24.43,24.43,0,0,0,4-2.88,26.15,26.15,0,0,0,7.95-13.81h0c0-.18.07-.37.11-.55a26.3,26.3,0,0,0,.4-4.6h0v.2c0,.33,0,.65,0,1,0-.63,0-1.27,0-1.9v-.75a3.15,3.15,0,0,0,0-.56c0-.19,0-.49-.06-.7a4.15,4.15,0,0,1-.05-.59l-.09-.67a6.24,6.24,0,0,0-.09-.69c0-.25-.07-.37-.1-.55s-.11-.52-.16-.78a2,2,0,0,0-.09-.41c-.07-.3-.15-.6-.23-.91a.79.79,0,0,0-.08-.26c-.1-.35-.2-.7-.31-1a.16.16,0,0,0-.05-.14c-.13-.38-.27-.76-.41-1.14v0a27.58,27.58,0,0,0-1.73-3.59A26.26,26.26,0,0,0,187,124.7c.49-.29,1-.59,1.43-.9C188.11,123.94,187.82,124.09,187.55,124.24Z"/>
  <path class="cls-1" d="M160.7,79.2a26.27,26.27,0,0,0-9.62,35.87h0A26.29,26.29,0,0,0,160.7,79.2Z"/>
  <path class="cls-1" d="M142.87,150.22l.57-.27.7-.32.33-.13c.31-.13.63-.27.95-.38h0a25.77,25.77,0,0,1,11.1-1.59l.46,0,.77.08a6.42,6.42,0,0,1,.75.1l.48.08.82.16.42.08.76.18.5.13.62.18.64.19.45.16c.28.09.55.19.83.3l.25.1c.34.14.69.28,1,.43h.07A26.13,26.13,0,0,1,173,155l.07,0c.26.27.53.53.78.81l.16.17.64.7.24.29c.18.22.36.43.52.66s.21.26.31.4l.44.61.33.48c.13.19.26.39.38.59l.31.52c.05.08.11.16.15.24l.06.09a26.34,26.34,0,0,1-2.18-4.88h0c-.14-.39-.25-.77-.36-1.16l0-.15c-.09-.33-.18-.7-.26-1a1.55,1.55,0,0,0-.07-.31c-.06-.29-.12-.58-.17-.87l-.09-.46c0-.25-.07-.49-.11-.75s0-.39-.07-.59-.05-.43-.07-.64,0-.47-.05-.7,0-.39,0-.58v-1h0v-.92a4.11,4.11,0,0,1,0-.7,2.33,2.33,0,0,0,0-.46c0-.3.05-.61.08-.91v-.21a26.33,26.33,0,0,1,3-9.41.53.53,0,0,1,.06-.1c.17-.32.35-.64.55-.94a7.78,7.78,0,0,1,.46-.7c.06-.1.12-.2.19-.3a26,26,0,0,1,4.09-4.73h0c.27-.24.54-.47.82-.69l.18-.16c.23-.19.46-.37.7-.54l.39-.3L185,126l.59-.41.41-.26.76-.46.15-.09a26.25,26.25,0,0,1-35.84-9.69h0l.15.27.23.44c.15.26.28.53.41.79l.11.22a26.07,26.07,0,0,1,2.23,15.91v.16c-.06.36-.13.69-.21,1.08a.86.86,0,0,1-.06.23c-.08.35-.16.69-.25,1a.6.6,0,0,0-.06.19c-.11.36-.22.69-.34,1.08a.09.09,0,0,1,0,.07,26.07,26.07,0,0,1-7.06,10.95v0l-.86.75-.17.14-.77.62-.28.21-.7.51-.38.27-.7.44-.43.25-.37.24.15-.09.76-.41Z"/>
  <path class="cls-1" d="M141.47,105.46c-.37-.21-.75-.42-1.13-.61l-.1-.06c-.33-.16-.7-.32-1-.47l-.27-.13-.78-.33-.47-.18-.6-.22-.7-.24-.38-.11-.87-.26-.2,0c-.35-.09-.7-.18-1-.25h-.09l-1.15-.22h-.07c-.37-.07-.76-.12-1.14-.17h-.31c-.3,0-.61-.07-.92-.09l-.81-.09H129a26.19,26.19,0,0,0-9.8,1.63h-.09q-.45.17-.9.36l-.36.15-.7.3-.59.29-.47.24-.77.41a26.11,26.11,0,0,0-9.75,9.71,26.26,26.26,0,0,0,35.88-9.59Z"/>
  <path class="cls-1" d="M143,150l.39-.27c.23-.16.47-.33.69-.51l.29-.21.77-.62.17-.14.86-.75v0a26.41,26.41,0,0,0,4.88-6.15A26.26,26.26,0,0,0,115.2,151a26.19,26.19,0,0,0,24.79.79c.28-.15.58-.3.86-.46h0c.34-.19.69-.38,1-.58l.43-.26A6,6,0,0,0,143,150Z"/>
  <path class="cls-1" d="M150.25,113.74c-.15-.23-.31-.47-.48-.69l-.28-.4c-.15-.21-.31-.41-.46-.61s-.25-.31-.37-.46-.27-.32-.41-.49l-.47-.54-.34-.36c-.11-.13-.4-.41-.6-.61l-.25-.25-.74-.7-.15-.13c-.29-.26-.59-.51-.89-.74l-.07-.06c-.33-.26-.7-.52-1-.77h0a23.63,23.63,0,0,0-2.26-1.46,26.27,26.27,0,0,0,9.61,35.88,25.55,25.55,0,0,0,2.16-4.8.09.09,0,0,0,0-.07c.12-.36.23-.7.34-1.08a1.05,1.05,0,0,1,0-.19c.09-.34.18-.7.26-1A.35.35,0,0,1,154,134c.07-.36.14-.69.21-1.08v-.16A26.33,26.33,0,0,0,152,116.83l-.11-.22c-.13-.27-.27-.53-.41-.8l-.23-.43c-.1-.17-.2-.35-.31-.52l-.45-.74A1,1,0,0,0,150.25,113.74Z"/>
  <path class="cls-1" d="M105.61,115.08A26.26,26.26,0,0,0,115.2,151h0A26.27,26.27,0,0,0,105.61,115.08Z"/>
  <path class="cls-1" d="M102.08,147.45a24.68,24.68,0,0,0-2.59.13h-.14a7.35,7.35,0,0,0-1,.13l-.32,0-.83.14-.49.1c-.22,0-.43.1-.64.15l-.64.15-.51.15c-.24.07-.48.13-.69.21a3.44,3.44,0,0,1-.46.15l-.73.26-.56.22-.6.24-.87.39-.25.12A26.19,26.19,0,0,0,81.06,158L81,158c-.2.26-.39.53-.58.81l-.21.32-.42.65-.32.52a26.16,26.16,0,0,0-3.67,13.39,26.27,26.27,0,0,0,26.28-26.25Z"/>
  <path class="cls-1" d="M102.08,200a26.27,26.27,0,0,0,26.26-26.27A26.27,26.27,0,0,0,102.08,200Z"/>
  <path class="cls-1" d="M128.23,173a25.4,25.4,0,0,0-.53-5,2.08,2.08,0,0,0-.11-.48l-.12-.49a26.27,26.27,0,0,0-7.61-12.62l-.21-.19-.3-.26a24.3,24.3,0,0,0-3.84-2.69h0l.17.1c.29.17.59.32.88.48a15.22,15.22,0,0,0-1.58-1c-.25-.15-.51-.29-.76-.42l-.41-.21-.75-.36-.47-.21-.7-.29-.58-.22c-.18-.08-.37-.14-.55-.21l-.7-.24-.42-.13-.89-.25-.27-.07c-.34-.09-.69-.17-1.06-.24h-.11a25.56,25.56,0,0,0-5.23-.52,26.26,26.26,0,0,0,26.26,26.26,14.55,14.55,0,0,0-.07-1.75c0,.34,0,.7,0,1Z"/>
  <path class="cls-1" d="M75.82,173.72A26.27,26.27,0,0,0,102.08,200,26.27,26.27,0,0,0,75.82,173.72Z"/>
  <path class="cls-1" d="M89,203.51a26,26,0,0,0-3.28,2.24h0l-.89.75-.14.12-.74.7-.23.21-.66.7-.23.25c-.23.24-.44.49-.66.75l-.17.2c-.27.32-.53.64-.77,1h0a26.38,26.38,0,0,0-5.24,14v.12c0,.34,0,.7-.05,1v.37a26.1,26.1,0,0,0,3.48,13.53A26.26,26.26,0,0,0,89,203.51Z"/>
  <path class="cls-1" d="M128.27,228.16V227h0v-2.33a3.49,3.49,0,0,0-.05-.7c-.06-.22,0-.42-.06-.63a3.3,3.3,0,0,1-.08-.61c0-.2-.07-.49-.11-.7s0-.31-.09-.46c0-.3-.1-.58-.16-.87a1.18,1.18,0,0,0-.08-.31c-.08-.34-.16-.7-.25-1l0-.15c-.11-.39-.23-.77-.36-1.16h0a26.68,26.68,0,0,0-2.19-4.88A26.29,26.29,0,0,0,115.2,249,26.24,26.24,0,0,0,128.27,228.16Z"/>
  <path class="cls-1" d="M100.43,200l-.7.05-.7.07-.56.07-.78.12-.41.07c-.31.05-.62.12-.92.19l-.25,0-1.08.27H95a26.7,26.7,0,0,0-6.06,2.56,26.27,26.27,0,0,0,35.86,9.67l.06,0c-.45-.77-.93-1.51-1.44-2.23v0c-.22-.31-.45-.62-.69-.92l-.15-.18c-.2-.24-.41-.48-.61-.69l-.26-.32-.52-.55-.39-.4c-.13-.14-.3-.3-.45-.44l-.47-.46-.46-.41-.5-.44-.57-.46-.41-.32-.89-.64-.11-.07a26.26,26.26,0,0,0-11.64-4.37h-.1l-1-.1h-3.12Z"/>
  <path class="cls-1" d="M115.16,249.07h0a26.26,26.26,0,0,0-35.87-9.62h0A26,26,0,0,0,115.2,249Z"/>
  <path class="cls-1" d="M105.6,258.62a26.27,26.27,0,0,0-.34,25.67l.11.2a26,26,0,0,0,9.83,10A26.28,26.28,0,0,0,105.6,258.62Z"/>
  <path class="cls-1" d="M142.62,249.72c-.37-.24-.75-.47-1.14-.7h0a26.27,26.27,0,0,0,9.62,35.88h0A26.27,26.27,0,0,0,142.62,249.72Z"/>
  <path class="cls-1" d="M140.77,248.72h0a25.51,25.51,0,0,0-4.59-2.05l-.46-.14-.48-.14a26.33,26.33,0,0,0-15.47.53,25,25,0,0,0-4.19,2h0l.18-.1c.28-.16.54-.34.8-.5q-.89.45-1.74,1l-.43.26-.69.44-.37.25c-.25.17-.49.34-.73.53l-.26.19-.8.64-.14.11a26.23,26.23,0,0,0-5.82,7A26.26,26.26,0,0,0,141.45,249h0c-.51-.3-1-.56-1.56-.82C140.19,248.37,140.48,248.56,140.77,248.72Z"/>
  <path class="cls-1" d="M151.07,284.9a.08.08,0,0,1-.06.09l.07-.1a26.25,26.25,0,0,0-35.88,9.61h0A26.21,26.21,0,0,0,151,284.94l0,0Z"/>
  <path class="cls-1" d="M174.91,271.79h.53l.78.06.53,0,.74.09.58.09.65.11.66.14.55.12.75.2.44.12.85.26.34.11.92.34.26.1,1,.41.21.09,1,.48.21.1.94.52.14.08-.36-.22a3,3,0,0,0-.3-.18l-.84-.55-.14-.09A26.09,26.09,0,0,1,177,265.1c-.13-.23-.25-.46-.37-.69l-.18-.38a26.18,26.18,0,0,1-2.28-7.1v-.07c-.07-.34-.11-.7-.16-1a1,1,0,0,0,0-.3,8.17,8.17,0,0,0-.09-.85v-.51a5.87,5.87,0,0,0,0-.69,5.45,5.45,0,0,1,0-.7v-.22h0v-1.63a2.85,2.85,0,0,1,.05-.65c.05-.22,0-.47.07-.7s0-.34.07-.52.07-.55.12-.83l.06-.35c.06-.33.12-.66.2-1a.27.27,0,0,1,0-.17,26.39,26.39,0,0,1,2.85-7.26l-.12.21-.16.27-.15.24c-.18.29-.37.57-.56.85l-.13.2c-.21.3-.42.6-.64.89l-.08.11a26.25,26.25,0,0,1-32.39,7.71h0l-1-.5-.27-.15-.36-.19h0c.39.23.77.46,1.14.7a26.28,26.28,0,0,1,8.56,34.82,26.33,26.33,0,0,1,2.93-4l.05-.06c.25-.29.52-.56.78-.84l.13-.13.76-.74.17-.16c.27-.24.54-.48.82-.7l.14-.12a26.12,26.12,0,0,1,13.7-5.91h.06c.33,0,.69-.07,1-.09h.38l.76,0h1.23A4,4,0,0,1,174.91,271.79Z"/>
  <path class="cls-1" d="M139,281.56h.53l.78.06.53.06.74.09.59.09.65.11.66.13.55.13.75.19.44.13c.29.07.56.16.85.26l.33.11c.31.1.63.21.93.33l.26.11c.33.12.65.26,1,.41l.2.09,1,.47.21.11.94.51.14.08-.35-.22-.3-.18c-.29-.18-.57-.35-.85-.54l-.13-.1a26.09,26.09,0,0,1-8.3-9.11l-.36-.7-.19-.37a26.49,26.49,0,0,1-2.28-7.11v-.07c-.06-.34-.1-.7-.15-1a1,1,0,0,0,0-.3,8,8,0,0,0-.09-.84V264a6,6,0,0,0,0-.7,4.09,4.09,0,0,1,0-.7v-.22h0V260.7a2.94,2.94,0,0,1,.05-.65c0-.22,0-.47.07-.7a4.86,4.86,0,0,1,.07-.51c0-.28.07-.56.11-.84l.07-.35c.06-.33.12-.66.2-1a.3.3,0,0,1,0-.16,26.29,26.29,0,0,1,2.86-7.26l-.13.21-.16.26L141,250c-.18.29-.37.58-.56.86,0,.07-.09.13-.13.19-.21.31-.42.61-.64.89l-.08.11a26.25,26.25,0,0,1-32.4,7.71h0c-.32-.16-.64-.32-1-.5l-.26-.14-.36-.2h0c.39.23.77.46,1.14.7a26.28,26.28,0,0,1,8.56,34.83,25.76,25.76,0,0,1,2.93-4l0-.06c.25-.28.51-.55.78-.83l.12-.14.76-.73c.06-.05.11-.12.18-.17a10.55,10.55,0,0,1,.81-.69l.14-.13a26.25,26.25,0,0,1,13.7-5.9h.07l1-.1h.37l.77,0h1.23A3.31,3.31,0,0,1,139,281.56Z"/>
  <path class="cls-1" d="M147.56,298a26.26,26.26,0,0,0,12.55,22.4l.18.11a26.11,26.11,0,0,0,13.53,3.76A26.27,26.27,0,0,0,147.56,298Z"/>
  <path class="cls-1" d="M188.57,276.29l-1-.64h0l.12.07c-.28-.17-.55-.34-.84-.5l-.94-.52-.21-.1-1-.47-.21-.09c-.32-.15-.65-.29-1-.42l-.26-.1-.93-.34-.33-.11c-.29-.09-.57-.18-.85-.25l-.44-.13-.76-.2-.55-.12-.66-.13-.65-.11-.58-.1-.74-.09-.53-.05-.78-.06h-1.62a26.27,26.27,0,0,0,26.26,26.27A26.26,26.26,0,0,0,188.57,276.29Z"/>
  <path class="cls-1" d="M172.91,271.78l-.76,0h-.38a6.39,6.39,0,0,0-1,.1h-.06a26.16,26.16,0,0,0-13.7,5.94l-.14.12-.81.7c-.07.05-.12.11-.18.16l-.76.74-.12.13c-.27.28-.53.55-.78.84l-.05.05a26.21,26.21,0,0,0-2.94,4l-.44.76-.11.2c-.17.31-.33.63-.49.95a1.3,1.3,0,0,1-.08.17c-.16.34-.32.69-.47,1.05v.06a26.23,26.23,0,0,0-2,10.19,26.27,26.27,0,0,0,26.26-26.27h-.28Z"/>
  <path class="cls-1" d="M200.08,298.2V298a26.27,26.27,0,0,0-26.26,26.27,26.25,26.25,0,0,0,26.25-26.25h0A.86.86,0,0,0,200.08,298.2Z"/>
  <path class="cls-1" d="M203.6,311.16a26.25,26.25,0,0,0,20.87,13.08h.07c.35,0,.69,0,1,0h.35a26,26,0,0,0,13.54-3.52A26.27,26.27,0,0,0,203.6,311.16Z"/>
  <path class="cls-1" d="M242.18,277.07a26.27,26.27,0,0,0-29-1.79l.09,0-.09,0a26.25,26.25,0,0,0,35.87,9.62A26.15,26.15,0,0,0,242.18,277.07Z"/>
  <path class="cls-1" d="M212.61,275.74h0a25.69,25.69,0,0,0-4,2.88,25.33,25.33,0,0,0-8.47,19h0v-1.07a26.1,26.1,0,0,0,3.49,14.6,26.29,26.29,0,0,0,9.61-35.88c-.51.28-1,.6-1.47.92Z"/>
  <path class="cls-1" d="M249.07,284.9l.11.18-.1-.18a26.27,26.27,0,0,0-9.62,35.87h0a26.26,26.26,0,0,0,9.61-35.86Z"/>
  <path class="cls-1" d="M249.69,257.65l.23-.35a7.17,7.17,0,0,1,.5-.69l.26-.38.48-.63.35-.44.43-.51c.15-.18.3-.35.46-.52l.35-.37c.19-.21.39-.42.59-.62l.25-.23c.24-.24.49-.48.74-.7l.15-.13c.29-.26.59-.51.89-.76l.06,0a25.73,25.73,0,0,1,3.26-2.23,26.17,26.17,0,0,1-18.89,2.8h-.06l-1.19-.3h-.09q-.59-.17-1.17-.36h0a26.32,26.32,0,0,1-10-6.12l-.1-.1c-.24-.25-.48-.49-.7-.75l-.23-.24c-.19-.21-.37-.42-.55-.64l-.35-.4-.41-.52-.43-.56c-.1-.15-.21-.29-.31-.43s-.32-.46-.47-.7l-.24-.37c-.16-.25-.31-.51-.46-.77a.76.76,0,0,1-.12-.19v0q.31.56.6,1.11l0,.09c.18.36.36.7.52,1.08l.07.16c.15.32.28.65.41,1,0,.1.08.19.12.29.11.28.2.56.3.84a3.68,3.68,0,0,1,.15.47l.21.66c.07.22.13.44.18.65l.13.48c.07.29.13.58.2.86l.06.3c.07.36.13.7.19,1.06v.14q.09.62.15,1.23h0a26.17,26.17,0,0,1,0,5.31v.1c0,.37-.09.75-.15,1.12a.66.66,0,0,1,0,.24c-.05.32-.11.63-.17.95a1.53,1.53,0,0,1-.07.36c0,.28-.12.56-.19.83s-.07.3-.11.44-.14.53-.22.78-.08.3-.13.45-.19.57-.29.85c0,.11-.08.23-.12.34-.13.37-.28.75-.43,1.11v0a26.07,26.07,0,0,1-11,12.48l-.08.05a26.24,26.24,0,0,1,35.87,9.61h0l-.09-.17c-.14-.24-.27-.49-.4-.73s-.17-.32-.25-.48-.2-.4-.29-.6l-.3-.65c-.09-.22-.1-.26-.16-.39-.12-.29-.24-.58-.34-.87l-.06-.14a25.94,25.94,0,0,1-1.62-8.49v-1.22a25.94,25.94,0,0,1,1.62-8.49.33.33,0,0,1,.06-.14c.1-.29.22-.58.34-.88l.16-.37q.15-.34.3-.66c.11-.22.19-.4.29-.59s.16-.33.25-.49.26-.49.4-.73l.09-.17.12-.2A7,7,0,0,1,249.69,257.65Z"/>
  <path class="cls-1" d="M240.08,293.53l.22-.34a7.86,7.86,0,0,1,.5-.7l.27-.38.48-.63.35-.44.42-.5c.15-.18.31-.36.47-.53l.34-.37c.19-.21.4-.41.6-.62a2.61,2.61,0,0,1,.24-.23c.25-.24.5-.48.75-.7l.14-.13.9-.76.05,0a25.73,25.73,0,0,1,3.26-2.23,26.16,26.16,0,0,1-18.89,2.8h-.05l-1.2-.3h-.09l-1.17-.36h0a26.23,26.23,0,0,1-10-6.12l-.11-.1a9.73,9.73,0,0,1-.69-.75l-.24-.24-.55-.63-.34-.41-.42-.52-.43-.56-.3-.43c-.1-.15-.32-.45-.48-.7l-.23-.37-.47-.76-.12-.2v0c.21.36.41.73.6,1.1l0,.09c.18.36.36.7.52,1.08l.08.16.41,1a.67.67,0,0,0,.12.29c.1.28.2.56.29.84s.11.31.16.47l.21.66c.07.22.12.44.18.66l.12.48c.07.28.14.57.2.85l.06.3c.07.36.13.7.19,1.06v.14c.06.41.11.83.15,1.24h0a26.08,26.08,0,0,1,0,5.3v.11c0,.37-.09.74-.14,1.11a.51.51,0,0,1,0,.24c0,.32-.1.63-.17.95a1.72,1.72,0,0,1-.07.37c0,.27-.12.55-.18.83s-.07.29-.11.43-.15.53-.23.79-.08.3-.13.44-.19.57-.29.85c0,.11-.07.23-.11.34-.14.37-.28.75-.44,1.11v0a26.05,26.05,0,0,1-11,12.48l-.09.05a26.26,26.26,0,0,1,35.87,9.61h0l-.1-.18c-.14-.24-.27-.48-.4-.73l-.25-.48c-.09-.2-.19-.4-.28-.59s-.21-.44-.3-.66-.11-.26-.16-.38c-.13-.3-.25-.59-.35-.88l-.06-.14a26.2,26.2,0,0,1-1.62-8.49V307a26.2,26.2,0,0,1,1.62-8.49s0-.09.06-.14c.1-.29.22-.58.35-.87l.16-.38c.09-.22.19-.45.3-.66s.19-.39.28-.59.16-.33.25-.49l.4-.73.1-.17a.82.82,0,0,1,.12-.2A4.91,4.91,0,0,1,240.08,293.53Z"/>
  <path class="cls-1" d="M258.7,294.51a26.18,26.18,0,0,0,24.44.93l.27-.12.74-.38.5-.28a26.11,26.11,0,0,0,9.89-9.76A26.24,26.24,0,0,0,258.7,294.51Z"/>
  <path class="cls-1" d="M260.32,248.14c-.34.19-.7.36-1,.55h0l.07,0-.7.39a26.82,26.82,0,0,0-3.26,2.23l-.06,0c-.3.24-.6.5-.89.76l-.15.12c-.25.23-.5.46-.74.7a2.83,2.83,0,0,0-.25.24l-.6.61-.34.37-.46.53-.43.5-.35.44-.48.64-.26.37c-.18.24-.34.48-.5.7l-.23.35c-.16.25-.32.51-.47.78l-.12.19A26.26,26.26,0,0,0,285,249,26.27,26.27,0,0,0,260.32,248.14Z"/>
  <path class="cls-1" d="M248.59,259.53c-.09.16-.17.32-.25.49l-.28.58c-.09.2-.21.44-.3.66l-.16.36c-.12.29-.24.58-.35.88a.34.34,0,0,1-.05.14,26.21,26.21,0,0,0-1.63,8.49v1.21a26.75,26.75,0,0,0,1.63,8.49l.05.14c.11.29.23.59.35.88.06.13.11.25.16.38l.3.66c.11.21.19.4.29.59s.16.32.25.48.26.49.4.73a26,26,0,0,0,9.7,9.76,26.27,26.27,0,0,0-9.61-35.88l-.09.26C248.85,259.06,248.72,259.29,248.59,259.53Z"/>
  <path class="cls-1" d="M285,249l.18.1L285,249a26.28,26.28,0,0,0,9.61,35.88,26.58,26.58,0,0,0,2.57-6.1A26.28,26.28,0,0,0,285,249Z"/>
  <path class="cls-1" d="M298.08,252.56A26.23,26.23,0,0,0,319,242.1l.16-.2c.16-.22.32-.44.47-.69s.22-.32.33-.48.2-.32.3-.48.3-.47.44-.69a26.12,26.12,0,0,0,3.62-13.29h0a26.27,26.27,0,0,0-26.26,26.27Z"/>
  <path class="cls-1" d="M298.08,200a26.26,26.26,0,0,0-26.25,26.27A26.26,26.26,0,0,0,298.08,200Z"/>
  <path class="cls-1" d="M271.83,226.26a15.35,15.35,0,0,0,.06,1.67V227h0a24.87,24.87,0,0,0,.49,4.79,26.18,26.18,0,0,0,8.67,14.48,25.1,25.1,0,0,0,3.58,2.48h0l-.18-.11c-.24-.14-.49-.26-.74-.39a26.1,26.1,0,0,0,14.37,4.3,26.27,26.27,0,0,0-26.23-26.3Z"/>
  <path class="cls-1" d="M324.34,226.26A26.26,26.26,0,0,0,298.08,200,26.27,26.27,0,0,0,324.34,226.26Z"/>
  <path class="cls-1" d="M271.83,226.26a26.26,26.26,0,0,1,26.25,26.27v0a26.27,26.27,0,0,1,26.26-26.27h0A26.27,26.27,0,0,1,298.08,200h0A26.26,26.26,0,0,1,271.83,226.26Z"/>
  <path class="cls-1" d="M232.29,249a26.25,26.25,0,0,1,35.91-9.44l0,0a26.27,26.27,0,0,1-9.43-35.93h0a26.26,26.26,0,0,1-35.91,9.44h0A26.27,26.27,0,0,1,232.29,249Z"/>
  <path id="hide" class="cls-1" d="M175.31,75.72l.89.07.5,0,.63.08.73.1.34.07q.49.07,1,.18h.05a26.58,26.58,0,0,1,7,2.62l.22.14q.42.23.84.48c.27.17.47.3.69.46l.32.2a26.81,26.81,0,0,1,3.82,3.14l0,.06.7.7.21.23.51.59c.16.2.25.29.37.43l.34.43c.16.22.34.44.5.67l.19.26c.21.29.41.59.6.89a.75.75,0,0,1,.07.12,25.75,25.75,0,0,1,2.4,4.67v0c.15.38.29.76.41,1.14,0,0,0,.09.05.14.11.34.22.7.31,1a1.38,1.38,0,0,0,.08.27c.08.3.16.6.23.9a1.87,1.87,0,0,0,.09.41c.06.26.11.52.16.79s.06.36.1.54.07.45.1.7l.08.66c0,.19,0,.39.06.59s0,.49.05.7a3.28,3.28,0,0,0,0,.56,6.23,6.23,0,0,1,0,.75v.32a26.25,26.25,0,0,1,26.3-26.22h0a26.19,26.19,0,0,1-11.9-2.86,128.59,128.59,0,0,0-28.62,0,26.19,26.19,0,0,1-12,2.9H175Z"/>
  <path id="hide-2" data-name="hide" class="cls-1" d="M116.59,104.72l.6-.28.69-.3.37-.16c.3-.12.6-.25.9-.36h.09A26,26,0,0,1,129,102h.43l.79,0a7,7,0,0,1,.92.09h.31c.38,0,.77.1,1.14.17h.09l1.15.22h.09l1,.25.2,0,.87.26.38.12.7.23.6.22.47.18.8.34.27.13c.33.14.66.3,1,.47l.1.06a24.49,24.49,0,0,1,3.39,2.09h0c.34.25.7.51,1,.77l.07.06c.3.23.59.49.89.74l.15.14q.38.33.75.69l.24.25.6.61.34.36.47.54c.14.17.28.33.41.5l.37.45c.12.15.31.4.46.61l.28.4c.17.23.33.47.48.7l.25.37.45.74.13.22a26.27,26.27,0,0,1,9.61-35.88,26,26,0,0,1-12,3.48A128.43,128.43,0,0,0,124.26,96.8a26,26,0,0,1-9.06,8.66l.15-.08.77-.42Z"/>
  <path id="hide-3" data-name="hide" class="cls-1" d="M80.23,159.14l.21-.31c.19-.28.39-.55.58-.82l.06-.07a26.13,26.13,0,0,1,9.59-7.86l.26-.12.86-.39.6-.24.56-.22.74-.26.45-.14.7-.22.51-.15.63-.15.64-.15.5-.09c.28-.06.55-.11.83-.15l.32-.05c.35-.05.69-.1,1-.13h.14a26,26,0,0,1,7.82.4h.12l1.06.24.26.07.9.25.41.13.7.24c.19.07.38.13.56.21l.58.22.69.29.48.21.74.36.41.21c.25.13.51.27.76.42l.23.11a26.27,26.27,0,0,1-9.58-35.89h0a26.23,26.23,0,0,1-8.73,9.07,128.37,128.37,0,0,0-14,24.21,26.19,26.19,0,0,1-3.48,12.2l.15-.25.31-.51Z"/>
  <path id="hide-4" data-name="hide" class="cls-1" d="M75.88,224.48v-.13a26.17,26.17,0,0,1,5.25-13.94h0c.24-.33.5-.65.76-1l.18-.2q.32-.37.66-.75l.23-.25.66-.7.22-.21.74-.69.15-.13c.29-.25.58-.5.88-.74h0A26.11,26.11,0,0,1,95,201h.07c.36-.1.7-.19,1.08-.27l.25-.06.92-.19.41-.07.78-.12.57-.06.7-.07.69,0h1.62a26.26,26.26,0,0,1-26.26-26.26v-.1A26.24,26.24,0,0,1,72.76,186a129,129,0,0,0,0,27.92,26,26,0,0,1,3.06,12.31v-.76Z"/>
  <path id="hide-5" data-name="hide" class="cls-1" d="M111.42,251.66l.13-.11c.26-.21.53-.43.81-.64l.26-.19c.23-.18.48-.36.73-.53l.36-.25.7-.44.42-.26a3.79,3.79,0,0,1,.34-.2h0a27,27,0,0,1-6.1,2.56,26.25,26.25,0,0,1-29.77-12.18,26.19,26.19,0,0,1,3.49,12.22,127.45,127.45,0,0,0,14,24.18,26.11,26.11,0,0,1,8.75,9.1l-.22-.41-.1-.19A26.27,26.27,0,0,1,111.42,251.66Z"/>
  <path id="hide-6" data-name="hide" class="cls-1" d="M149.61,287.84v-.06c.15-.35.31-.7.48-1.06a.77.77,0,0,0,.07-.16c.16-.32.32-.64.5-.95l.1-.2c.08-.14.15-.28.22-.42a.11.11,0,0,1,.06-.09,26.23,26.23,0,0,1-35.84,9.61h0a26.17,26.17,0,0,1,9.06,8.69,128.45,128.45,0,0,0,24.39,14.09,26,26,0,0,1,12,3.48l-.39-.24-.18-.11A26.26,26.26,0,0,1,149.61,287.84Z"/>
  <path id="hide-7" data-name="hide" class="cls-1" d="M224.54,324.24h-.07a26.28,26.28,0,0,1-24.39-26V298a26.26,26.26,0,0,1-26.25,26.27,25.92,25.92,0,0,1,12,2.92,129,129,0,0,0,28.53,0,26,26,0,0,1,12-2.88h-.74Z"/>
  <path id="hide-8" data-name="hide" class="cls-1" d="M283.44,295.32l-.27.12a26.24,26.24,0,0,1-34-10.36l-.11-.18a26.27,26.27,0,0,1-9.6,35.89h0a26.17,26.17,0,0,1,11.75-3.48,128.17,128.17,0,0,0,24.91-14.46,26.23,26.23,0,0,1,8.82-8.33l-.26.14-.5.28Z"/>
  <path id="hide-9" data-name="hide" class="cls-1" d="M320,240.75l-.33.49-.47.69-.16.2a26.24,26.24,0,0,1-33.89,7L285,249a26.29,26.29,0,0,1,12.18,29.78,26.58,26.58,0,0,1-2.57,6.1,26.32,26.32,0,0,1,8.25-8.77A127.49,127.49,0,0,0,317.35,251a26.25,26.25,0,0,1,3.48-11.54.6.6,0,0,1-.09.15c-.14.25-.29.48-.43.69Z"/>
  <path id="hide-10" data-name="hide" class="cls-1" d="M324.34,173.78v1.42c0,.27,0,.55-.06.83s0,.38-.06.57,0,.35-.07.53-.07.56-.12.85a.38.38,0,0,1,0,.18,26.05,26.05,0,0,1-4.18,10.34h0c-.23.35-.48.7-.7,1l-.19.23-.59.75-.26.31c-.19.22-.38.44-.58.65l-.26.28-.64.66-.2.18c-.26.25-.51.5-.78.73l-.08.07a26.08,26.08,0,0,1-15.4,6.51h0l-1.26.06h-.69a26.26,26.26,0,0,1,26.25,26.26h0a26.25,26.25,0,0,1,2.72-11.64,128,128,0,0,0,0-29.28,26.25,26.25,0,0,1-2.72-11.64Z"/>
  <path id="hide-11" data-name="hide" class="cls-1" d="M295.25,116.36c.15.29.29.59.43.89.06.13.12.25.17.38s.19.44.27.66.18.41.26.63l.13.37c.12.3.22.6.32.9v.08a26,26,0,0,1,1.23,8.63v.31c0,.31,0,.62,0,.92a5.19,5.19,0,0,1-.07.7,3.67,3.67,0,0,1-.05.52c0,.3-.08.6-.13.9a.8.8,0,0,1,0,.34c-.05.3-.11.6-.17.9a2.17,2.17,0,0,1-.07.35c-.06.26-.13.52-.19.78s-.08.32-.13.48-.11.41-.17.6-.13.46-.2.7-.1.27-.14.4c-.11.3-.21.59-.32.88l-.08.19a26.1,26.1,0,0,1-7.54,10.46l-.06,0c-.3.25-.6.49-.89.7l-.16.12-.86.61-.21.15c-.28.19-.57.38-.87.56l-.21.13-.39.24-.1.06h0a26.25,26.25,0,0,1,35.86,9.61h0a26.27,26.27,0,0,1-3.45-11.49,128.66,128.66,0,0,0-14.56-25.22,26.3,26.3,0,0,1-8.23-8.75h0c.21.35.4.69.59,1.07Z"/>
  <path id="hide-12" data-name="hide" class="cls-1" d="M240.69,80l.84.58.32.23.6.45.5.39.35.29.69.59.12.11a26.36,26.36,0,0,1,4.7,5.72,1.71,1.71,0,0,1,.13.23c.17.27.33.55.48.83l.37.7c.06.13.13.24.2.38.16.34.33.69.48,1.06v.06a22,22,0,0,1,.88,2.34h0c.11.36.21.7.31,1.06a1.05,1.05,0,0,1,.05.19c.08.28.15.58.21.86s.07.28.1.42.08.44.13.66.08.45.11.69.05.29.07.43c0,.31.09.63.12,1v.2q.06.6.09,1.2h0a25.6,25.6,0,0,1-.76,7.89v.09c-.09.36-.19.7-.3,1.09l-.07.2c-.09.32-.2.63-.32,1l-.11.33c-.11.27-.21.55-.33.82l-.17.42-.33.69c-.08.16-.15.32-.23.47l-.35.7c-.09.15-.16.3-.25.45l-.18.34v0h0a26.25,26.25,0,0,1,35.81-9.6h0a26.22,26.22,0,0,1-8.78-8.27,126.86,126.86,0,0,0-25-14.5,26.27,26.27,0,0,1-11.7-3.49h0c.36.2.7.42,1.06.64Z"/>
  <path class="cls-1" d="M275.25,186.69l-.48-.89-.14-.27c-.15-.3-.3-.6-.44-.92,0-.09-.09-.18-.13-.28-.12-.29-.25-.59-.37-.89l-.14-.36c-.1-.26-.2-.54-.29-.81l-.16-.46c-.07-.24-.15-.47-.22-.7l-.16-.59-.15-.58-.17-.7a2.44,2.44,0,0,0-.09-.47c-.05-.29-.11-.57-.15-.86a2.71,2.71,0,0,0-.06-.38c0-.31-.09-.63-.12-.95v-.32c0-.33-.06-.69-.08-1v-.72a8,8,0,0,1,0,1v.19a26,26,0,0,1-3.8,11.79l-.05.08c-.2.31-.4.63-.61.94l-.43.61-.27.38c-.23.29-.46.59-.7.87l-.08.1c-.25.31-.52.61-.79.91v0c-.27.28-.53.56-.8.83l-.09.09c-.24.24-.49.48-.74.7l-.2.18-.65.56-.36.3c-.17.15-.35.28-.53.42l-.54.41-.4.29-.7.5-.29.18-.88.54-.11.06h0l-.12.07c-.31.18-.63.35-1,.52l-.23.11c-.31.16-.61.31-.93.45l-.3.14-.85.35-.41.17-.7.26-.57.19-.56.17-.76.22-.39.1-.94.21-.23.05-1.12.2h-.09a26.07,26.07,0,0,1-3.95.3h1.62l.7,0,.69.07.57.07.78.12.41.07.93.19.24.06c.36.08.7.17,1.08.27h.08a26.13,26.13,0,0,1,9.33,4.79h0l.88.75.15.13.75.69.21.21c.22.23.45.46.66.7l.24.24.66.76.17.19c.26.32.52.64.77,1h0a26,26,0,0,1,5.24,13.94v.13c0,.33,0,.7.05,1v.77a26.26,26.26,0,0,1,26.2-26.27h.05c-.44,0-.89,0-1.33,0h0a11.69,11.69,0,0,1-1.19-.09h-.21q-.48,0-1-.12l-.4-.06c-.25,0-.49-.08-.7-.12l-.61-.12-.5-.12-.78-.19-.31-.09q-.47-.12-.93-.27l-.2-.06c-.33-.12-.69-.23-1-.35l-.21-.09c-.31-.11-.63-.24-1-.37l-.41-.19-.69-.32-.85-.43-.25-.14a26.35,26.35,0,0,1-7.66-6.31l-.07-.09c-.2-.24-.4-.5-.6-.75l-.25-.33c-.14-.18-.27-.38-.4-.58s-.26-.36-.39-.56-.17-.27-.27-.41-.32-.52-.47-.78l-.08-.13h0Z"/>
  <path class="cls-1" d="M103.75,200h.41a8.18,8.18,0,0,1,1,.1h.11a26,26,0,0,1,11.63,4.36l.12.08.89.64.4.32.57.46c.17.13.34.29.5.43l.46.39.47.46c.15.15.31.29.45.44l.39.41.52.55.26.31.61.7.15.18.69.91v.05a26.22,26.22,0,0,1,3.63,7.08h0c.12.38.24.77.35,1.15l0,.15c.09.34.17.7.25,1a1.08,1.08,0,0,0,.07.31c.07.29.12.58.17.87a3.85,3.85,0,0,0,.08.47c0,.16.08.49.12.7s.05.4.07.6,0,.43.06.64.05.46.06.69,0,.39,0,.58v-1a7.77,7.77,0,0,1,.09-1V223a26.05,26.05,0,0,1,4.56-11.55l.07-.11c.21-.3.42-.6.64-.89s.21-.27.32-.41l.45-.57c.16-.19.3-.33.44-.5s.26-.31.39-.45l.46-.48.44-.45.4-.39.56-.52.31-.26.7-.61.18-.14.91-.7h0a26.22,26.22,0,0,1,7.08-3.63h0l1.16-.35.14,0,1-.26.3-.07.88-.17.45-.09.75-.11.6-.08.63-.06.7-.05h1.61a26.33,26.33,0,0,1-4-.3h0q-.59-.09-1.17-.21h-.18l-1-.23-.33-.08L147,199l-.49-.14-.65-.23c-.21-.07-.42-.14-.63-.23l-.51-.19-.75-.32-.4-.18-.82-.39-.34-.18-.84-.45-.17-.11h0l-.16-.09c-.25-.14-.51-.3-.76-.46l-.41-.26-.59-.41L139,195l-.39-.3-.69-.53-.19-.16-.82-.7h0a26.32,26.32,0,0,1-4-4.85l-.2-.3c-.15-.24-.31-.48-.46-.7a10.28,10.28,0,0,1-.55-.94l-.06-.1a26.12,26.12,0,0,1-3-9.41v-.21c0-.3-.07-.61-.09-.91v-2.09A26.26,26.26,0,0,1,102.2,200h1.55Z"/>
  <path id="hide-13" data-name="hide" class="cls-1" d="M212,124a25,25,0,0,1-12-20.42c0-.33,0-.65,0-1v-.21h0a25.22,25.22,0,0,1-.4,4.6c0,.19-.07.37-.11.55h0a25.07,25.07,0,0,1-11.93,16.69h0l.84-.44a25,25,0,0,1,24.23.55h0A3.89,3.89,0,0,1,212,124Z"/>
  <path id="hide-14" data-name="hide" class="cls-1" d="M140.86,151.29c-.28.16-.57.31-.86.46a25,25,0,0,1-23.43.06c-.3-.16-.59-.3-.88-.47l-.18-.1h0a24.15,24.15,0,0,1,3.87,2.7l.29.26.22.19A25.15,25.15,0,0,1,127.5,167l.12.49c0,.17.08.32.11.48a24.65,24.65,0,0,1,.52,5h0a8.36,8.36,0,0,1,0-1,25,25,0,0,1,12.54-20.65h0Z"/>
  <path id="hide-15" data-name="hide" class="cls-1" d="M128.31,226.94v1.2a25.07,25.07,0,0,1-11.72,20.14c-.26.16-.52.34-.8.5l-.17.1h0a25.13,25.13,0,0,1,19.63-2.49l.49.14.46.14a25.42,25.42,0,0,1,4.58,2.05h0c-.29-.16-.58-.35-.86-.53a25,25,0,0,1-11.58-21.13V227Z"/>
  <path id="hide-16" data-name="hide" class="cls-1" d="M187.53,275.65c.35.2.69.42,1,.64a25.07,25.07,0,0,1,11.56,20.27v1.07h0a25.26,25.26,0,0,1,12.45-21.87h0l-.87.46a25,25,0,0,1-24-.52l-.11-.06Z"/>
  <path id="hide-17" data-name="hide" class="cls-1" d="M176.22,211c.35.52.7,1,1,1.58h0a24.82,24.82,0,0,1-3.31-12.45V200h0a25,25,0,0,1,3.41-12.54h0a21.93,21.93,0,0,1-1.27,2A25,25,0,0,1,156.32,200h-1a25.42,25.42,0,0,1,20.87,10.88Z"/>
  <path id="hide-18" data-name="hide" class="cls-1" d="M197.58,226.15c.64-.06,1.28-.08,1.93-.09h0a25.09,25.09,0,0,1-21.67-12.63h0c.4.69.75,1.39,1.09,2.09a25.07,25.07,0,0,1-.7,22.45l-.31.64c0,.07-.08.12-.11.18h0a22.29,22.29,0,0,1,1.39-2.09A25,25,0,0,1,197.58,226.15Z"/>
  <path id="hide-19" data-name="hide" class="cls-1" d="M221.47,215.24c.27-.58.57-1.16.89-1.72h0A25,25,0,0,1,200.6,226h0c.81,0,1.63,0,2.44.12a25,25,0,0,1,19,11.85c.12.18.24.35.35.54l.09.18h0a24,24,0,0,1-1.1-2.14A25,25,0,0,1,221.47,215.24Z"/>
  <path id="hide-20" data-name="hide" class="cls-1" d="M222.82,212.55c.41-.7.87-1.4,1.35-2.09a25,25,0,0,1,19.77-10.54h.88c-.82,0-1.63,0-2.43-.12A25,25,0,0,1,224,189.08c-.35-.53-.69-1.06-1-1.62h0a24.84,24.84,0,0,1,3.31,12.45V200h0a25,25,0,0,1-3.41,12.55Z"/>
  <path id="hide-21" data-name="hide" class="cls-1" d="M200.64,173.94a25.09,25.09,0,0,1,21.67,12.63h0a21.53,21.53,0,0,1-1.1-2.14,25.07,25.07,0,0,1,.7-22.39c.12-.21.22-.44.35-.65l.1-.17h0a25.36,25.36,0,0,1-19.88,12.64c-.6,0-1.21.07-1.83.08Z"/>
  <path id="hide-22" data-name="hide" class="cls-1" d="M177.81,186.48A25,25,0,0,1,199.58,174h0c-.79,0-1.57,0-2.35-.11a25,25,0,0,1-19.06-11.76c-.14-.22-.29-.44-.42-.69l-.1-.19h0a26,26,0,0,1,1.2,2.35,25,25,0,0,1-.21,21.22c-.26.55-.53,1.08-.83,1.61Z"/>
  <path id="hide-23" data-name="hide" class="cls-1" d="M259.3,248.69c.33-.19.69-.36,1-.55a25.06,25.06,0,0,1,23.4.11c.25.13.5.25.75.4l.17.1h0a25.3,25.3,0,0,1-12.23-16.93,25.69,25.69,0,0,1-.49-4.79h0V228a25,25,0,0,1-12.54,20.71l-.07,0Z"/>
  <path id="hide-24" data-name="hide" class="cls-1" d="M268.51,160.39A25.05,25.05,0,0,1,271.86,173h0v-.85a25.11,25.11,0,0,1,11.77-20.51c.25-.16.5-.33.76-.47l.18-.1h0a25.58,25.58,0,0,1-4,1.9,25.11,25.11,0,0,1-16.72.23,25.44,25.44,0,0,1-4.39-2h0l.77.48A25.11,25.11,0,0,1,268.51,160.39Z"/>
</svg>
