<svg id="Layer_1" data-name="Layer 1" xmlns="http://www.w3.org/2000/svg" width="400" height="400" viewBox="0 0 400 400">
  <defs>
    <style>
      .cls-1 {
        fill: #333;
      }
    </style>
  </defs>
  <path class="cls-1" d="M200,264a21.34,21.34,0,0,0-21.34,21.33A21.33,21.33,0,0,0,200,264Z"/>
  <path class="cls-1" d="M157.32,264a21.34,21.34,0,0,0,21.34,21.33A21.33,21.33,0,0,0,157.32,264Z"/>
  <path class="cls-1" d="M178.66,242.63A21.34,21.34,0,0,0,200,264,21.33,21.33,0,0,0,178.66,242.63Z"/>
  <path class="cls-1" d="M200,136a21.34,21.34,0,0,1,21.34-21.33H220l-.54,0-.6-.07-.38,0a4.19,4.19,0,0,1-.71-.1l-.25-.05-.81-.17-.16,0c-.29-.06-.57-.14-.85-.21l-.13,0-.86-.26-.13,0-.81-.29-.2-.07-.72-.35-.31-.14-.59-.27-.44-.23L211,112l-.59-.33-.29-.17c-.22-.13-.44-.27-.65-.42l-.18-.12-.7-.49-.12-.09c-.24-.18-.48-.36-.71-.55l-.09-.09c-.23-.18-.45-.38-.67-.59l-.12-.11a8.21,8.21,0,0,1-.59-.59,1.7,1.7,0,0,1-.19-.19c-.17-.17-.34-.34-.5-.52l-.26-.28L205,107l-.34-.42-.29-.37c-.14-.19-.28-.38-.41-.59l-.13-.18h0l-.06-.09c-.15-.21-.3-.45-.45-.67l-.1-.11-.43-.74c0-.06-.08-.12-.11-.18l-.39-.75c0-.07-.07-.13-.1-.2-.12-.24-.23-.49-.34-.73l-.11-.24-.26-.66-.14-.33-.19-.59-.15-.44c0-.15-.09-.3-.13-.45s-.11-.38-.16-.59-.06-.24-.08-.35-.12-.46-.16-.69l-.06-.27c0-.26-.09-.52-.13-.79a.76.76,0,0,0,0-.21c0-.28-.08-.56-.11-.85v-.21c0-.28-.05-.59-.06-.85V93.4h0v1.06c0,.27,0,.55-.06.83v.23a4.47,4.47,0,0,1-.12.84v.21c0,.29-.09.59-.14.84a.35.35,0,0,1-.05.2c-.05.28-.11.54-.18.8l-.06.25c-.06.23-.13.46-.19.69s-.06.22-.1.33l-.16.48c-.06.16-.11.34-.17.5l-.13.31c-.08.23-.17.45-.26.68,0,.07-.07.13-.1.21l-.33.75-.11.18c-.12.26-.25.51-.38.75l-.11.19c-.14.25-.28.5-.43.74l-.12.19c-.15.23-.3.47-.46.7l-.16.23-.46.63-.06.07h0l-.17.22-.41.51-.34.39-.33.38-.44.45-.26.26-.52.51-.21.17-.59.53-.16.13-.65.51-.16.12c-.22.17-.44.32-.67.48l-.19.12c-.21.15-.43.29-.65.42l-.27.16-.59.34-.38.2c-.16.09-.33.18-.49.25l-.51.25-.39.17-.59.26-.29.12-.73.26-.22.07q-.39.14-.78.24l-.19,0q-.4.12-.81.21l-.2.05-.78.16-.26,0-.73.11-.36,0-.63.06-.51,0h-1.6A21.34,21.34,0,0,1,200,135.92Z"/>
  <path class="cls-1" d="M221.34,200A21.33,21.33,0,0,0,200,178.64,21.34,21.34,0,0,0,221.34,200Z"/>
  <path class="cls-1" d="M157.32,136a21.34,21.34,0,0,1,21.34-21.33h-1.18l-.83-.07h-.23a6,6,0,0,1-.85-.1h-.21l-.81-.16-.2,0-.8-.19-.23,0-.69-.2-.33-.09-.48-.16-.51-.18-.29-.11-.69-.27-.21-.1-.75-.34-.19-.1-.75-.38-.19-.12c-.25-.13-.49-.27-.73-.42l-.2-.13a8.18,8.18,0,0,1-.69-.45l-.23-.17-.63-.45-.08-.06h0l-.22-.18-.51-.4-.38-.34-.38-.33-.45-.44-.27-.26c-.17-.18-.34-.35-.5-.53l-.18-.2c-.18-.19-.36-.39-.52-.59l-.14-.16-.51-.65-.12-.16-.48-.67-.12-.19c-.15-.21-.29-.43-.42-.65a2.4,2.4,0,0,1-.16-.27c-.12-.19-.23-.38-.34-.59l-.2-.37-.26-.5-.24-.5-.17-.4-.26-.59-.12-.29c-.09-.24-.18-.48-.26-.72a.63.63,0,0,0-.08-.23c-.08-.25-.16-.52-.23-.78l-.06-.19c-.07-.26-.14-.53-.2-.8a1.6,1.6,0,0,0-.05-.21c-.06-.26-.11-.52-.16-.78,0-.08,0-.17-.05-.26,0-.24-.08-.48-.11-.72s0-.25-.05-.37,0-.41-.06-.63a4.38,4.38,0,0,0,0-.5,4.32,4.32,0,0,1,0-.5,3.64,3.64,0,0,1,0-.66v-.28h0A21.34,21.34,0,0,1,136,114.76h0A21.33,21.33,0,0,1,157.32,136Z"/>
  <path class="cls-1" d="M221.34,200a21.33,21.33,0,0,0,21.34-21.33A21.34,21.34,0,0,0,221.34,200Z"/>
  <path class="cls-1" d="M242.68,93.33v1.38c0,.15,0,.36,0,.55s0,.39-.06.59,0,.25-.05.38-.07.48-.11.71a1.09,1.09,0,0,1,0,.26c0,.27-.11.53-.17.8l0,.16c-.06.29-.13.57-.21.85l0,.13c-.09.28-.17.59-.27.86a.33.33,0,0,1,0,.13c-.09.27-.19.54-.29.81l-.08.2-.3.72-.14.31-.27.59-.23.44-.23.43-.32.6-.18.29c-.13.22-.27.43-.42.65l-.12.18c-.16.24-.32.47-.49.7l-.09.12c-.18.24-.36.47-.55.7l-.09.1c-.18.22-.38.45-.59.67l-.11.12a8.38,8.38,0,0,1-.6.59l-.18.18c-.17.17-.34.34-.52.5l-.29.26-.45.39-.42.35-.36.28a5.68,5.68,0,0,1-.59.41l-.18.14h0l-.09,0c-.22.16-.45.31-.67.45l-.21.14-.74.43-.18.1-.75.4-.2.1-.73.34-.24.11-.66.26-.33.13-.59.2-.44.15-.45.13-.6.16-.34.08-.69.16-.27,0-.79.14h-.22l-.84.11h-.21c-.28,0-.59,0-.85.06h-1.13a21.32,21.32,0,0,1,21.34,21.32A21.33,21.33,0,0,1,264,114.61,21.34,21.34,0,0,1,242.68,93.33Z"/>
  <path class="cls-1" d="M93.3,157.32c.36,0,.72,0,1.08,0a1.94,1.94,0,0,1,.48,0l.54,0a8.08,8.08,0,0,1,.86.1h.15l1,.17h0l1,.21h0l.93.25h.07l.86.28.14,0,.75.28.24.1a6.46,6.46,0,0,1,.6.27l.36.16.48.24.49.25.34.19.6.34.22.14.68.43.12.09c.25.17.5.34.74.52l0,0,.76.59h0c.26.21.5.43.75.65h0l.71.68.1.1.59.63.36.41.31.36A19.22,19.22,0,0,1,111,166.8l.06.07c.17.27.35.54.51.82l.12.21c.14.23.27.47.4.7l.15.3c.11.21.22.42.32.63s.11.25.17.38.17.38.25.59.12.29.17.43l.2.53c.07.18.11.33.17.49s.11.33.16.5.1.36.15.54.09.3.12.45.1.41.15.6l.09.4c0,.23.08.45.11.69l.06.33c0,.27.07.54.1.8v.25c0,.32.06.64.08,1v1.19h0a21.33,21.33,0,0,1,21.34-21.33A21.33,21.33,0,0,1,114.58,136,21.34,21.34,0,0,1,93.3,157.32Z"/>
  <path class="cls-1" d="M200,178.64a21.32,21.32,0,0,0,21.34-21.32A21.34,21.34,0,0,0,200,178.64Z"/>
  <path class="cls-1" d="M285.36,178.64A21.33,21.33,0,0,0,264,157.32,21.33,21.33,0,0,0,285.36,178.64Z"/>
  <path class="cls-1" d="M264,200a21.33,21.33,0,0,0-21.34-21.33A21.34,21.34,0,0,0,264,200Z"/>
  <path class="cls-1" d="M264,200a21.33,21.33,0,0,0,21.34-21.33A21.34,21.34,0,0,0,264,200Z"/>
  <path class="cls-1" d="M242.68,178.64A21.32,21.32,0,0,0,264,157.32,21.34,21.34,0,0,0,242.68,178.64Z"/>
  <path class="cls-1" d="M285.36,136A21.33,21.33,0,0,0,264,114.66,21.34,21.34,0,0,0,285.36,136Z"/>
  <path class="cls-1" d="M242.68,136A21.34,21.34,0,0,0,264,157.32,21.33,21.33,0,0,0,242.68,136Z"/>
  <path class="cls-1" d="M264,157.32A21.33,21.33,0,0,0,285.36,136,21.34,21.34,0,0,0,264,157.32Z"/>
  <path class="cls-1" d="M242.68,136A21.33,21.33,0,0,0,264,114.66,21.34,21.34,0,0,0,242.68,136Z"/>
  <path class="cls-1" d="M242.68,136a21.33,21.33,0,0,0-21.34-21.33A21.34,21.34,0,0,0,242.68,136Z"/>
  <path class="cls-1" d="M200,136a21.34,21.34,0,0,0,21.34,21.33A21.33,21.33,0,0,0,200,136Z"/>
  <path class="cls-1" d="M221.34,157.32A21.33,21.33,0,0,0,242.68,136,21.34,21.34,0,0,0,221.34,157.32Z"/>
  <path class="cls-1" d="M285.36,136A21.33,21.33,0,0,1,264,157.32a21.33,21.33,0,0,1,21.34,21.32v-1.13c0-.32,0-.64.08-1v-.11c0-.31.07-.63.12-.94v-.13c.05-.28.1-.59.15-.85l0-.21c.05-.23.11-.46.17-.7a1.4,1.4,0,0,1,.08-.34l.14-.52c.05-.17.1-.35.16-.52s.07-.22.11-.33.15-.47.24-.69l.07-.2.33-.8.05-.11c.13-.29.26-.6.4-.86l.05-.1c.14-.29.29-.59.45-.86l.07-.12.47-.79,0-.06h0l.09-.14c.14-.22.29-.45.44-.66l.22-.32.36-.49.35-.43.27-.33c.15-.18.3-.36.46-.53l.18-.2c.18-.21.37-.4.56-.6l.11-.1q.31-.31.66-.6l.06-.06a7.65,7.65,0,0,1,.71-.59l.07-.06.73-.59.11-.09.69-.49.24-.16.59-.4.35-.2.5-.29.51-.27.36-.18.66-.31.23-.11.78-.32.14-.06.87-.31H300c.3-.09.6-.19.9-.27h.09l.87-.22.16,0,.8-.16.27,0,.69-.1.43-.06a5.24,5.24,0,0,0,.54-.06l.59,0h1.45a21.34,21.34,0,0,1-21.35-21.33Z"/>
  <path class="cls-1" d="M136,200a21.33,21.33,0,0,1-21.34-21.28v1a2.58,2.58,0,0,1,0,.48c0,.16,0,.36,0,.54a5.16,5.16,0,0,1-.1.87v.14c0,.32-.1.64-.16,1v0c-.07.33-.14.65-.22,1h0c-.07.32-.16.59-.25.93v.07c-.08.29-.18.59-.27.86a.71.71,0,0,0-.1.14c-.09.26-.19.51-.29.76l-.09.24c-.09.21-.18.42-.28.62s-.1.25-.16.37l-.24.48c-.08.16-.16.33-.25.49L112,189l-.34.59-.14.22c-.14.23-.28.46-.43.68l-.08.12c-.18.25-.35.5-.53.74l0,0-.59.76h0c-.21.26-.43.51-.65.75h0c-.22.24-.45.48-.68.71l-.1.1-.63.59-.41.36L107,195c-.59.47-1.2.91-1.82,1.32l-.08.05-.82.52-.21.12c-.23.13-.46.27-.7.39l-.3.16-.6.31-.38.17-.59.25-.43.17-.54.2-.48.17-.5.16-.54.15-.46.13-.59.14-.4.09-.69.12-.34.06-.8.1h-.24l-1,.07H93.3a22,22,0,0,1,3.24.24h.1l.92.17.3.06.71.17.43.12.6.16.55.18.42.14c.24.09.46.17.69.27l.28.11c.28.12.59.25.85.38l.1,0a20.77,20.77,0,0,1,3.67,2.23l.31.24.49.39.53.45.23.21.59.59.11.12c.22.22.44.44.64.67l.06.06a6.73,6.73,0,0,1,.59.71l.05.06.6.73.07.1.49.69.12.18c.14.2.28.41.41.62l.17.29c0,.09.21.35.31.54l.23.41.21.42c.1.19.18.37.27.55s.09.21.14.31l.3.69a.48.48,0,0,0,.07.2c.1.26.2.52.3.8a.15.15,0,0,0,0,.11c.1.29.19.6.28.88v.07c.08.3.17.59.24.92v.08c.07.3.14.59.2.91v.15c.05.28.1.55.13.84a.84.84,0,0,0,0,.31c0,.22.06.45.08.68a4.46,4.46,0,0,0,0,.63,1.28,1.28,0,0,1,0,.39v1h0A21.34,21.34,0,0,1,135.9,200Z"/>
  <path class="cls-1" d="M264,200a21.34,21.34,0,0,1,21.34,21.29v0c0-.36,0-.72,0-1.08v-.13c0-.29.05-.6.07-.88a4.26,4.26,0,0,1,.06-.5,4.36,4.36,0,0,1,.06-.49c0-.16.08-.48.12-.73a2,2,0,0,1,.05-.24c.05-.3.12-.59.18-.87v-.1c.08-.32.16-.63.25-.94v0c.1-.32.2-.64.31-.95v0c.1-.3.21-.59.33-.9l0-.08c.11-.28.23-.54.35-.81,0-.06.05-.12.07-.17.11-.24.22-.47.34-.7l.15-.28c.09-.18.2-.37.3-.55l.23-.41c.09-.14.16-.27.25-.4s.22-.36.34-.53l.18-.27c.15-.21.29-.42.44-.62s.08-.11.12-.15c.17-.24.36-.47.54-.7l.06-.07q.3-.36.63-.72h0c.22-.24.45-.49.68-.72l0,0c.22-.22.46-.45.7-.66l.08-.07.67-.59.19-.16.59-.46.41-.29.41-.29c.24-.17.49-.33.73-.48l.11-.07a20.86,20.86,0,0,1,4.91-2.22l.16-.05.83-.23.84-.2.16,0a21.23,21.23,0,0,1,4.36-.45h-1.15a7.75,7.75,0,0,1-1-.07h-.11l-.94-.12h-.12c-.29-.05-.6-.1-.86-.16l-.2,0-.7-.17-.35-.08-.52-.14-.52-.16-.33-.11-.69-.24-.2-.07-.8-.33-.11,0c-.29-.13-.6-.26-.86-.4l-.1-.05c-.29-.14-.59-.29-.86-.45l-.12-.07-.79-.47-.06,0h0l-.14-.09-.66-.44-.32-.22-.49-.36-.44-.35L293,195l-.53-.45-.2-.19a6.57,6.57,0,0,1-.59-.59l-.11-.11c-.21-.21-.41-.43-.6-.65l-.06-.07a7.65,7.65,0,0,1-.59-.71l-.06-.07c-.19-.23-.39-.48-.6-.72l-.08-.12c-.16-.22-.33-.45-.49-.69l-.14-.21-.39-.59c-.07-.12-.15-.23-.21-.35s-.2-.33-.29-.5-.18-.33-.27-.5l-.18-.36c-.11-.22-.21-.44-.31-.67l-.11-.22c-.11-.26-.22-.52-.32-.79l-.06-.13c-.1-.28-.21-.59-.3-.87a.19.19,0,0,0,0-.08c-.1-.29-.19-.59-.28-.9v-.09c-.08-.28-.15-.59-.22-.87l0-.15c-.06-.27-.11-.53-.16-.8a1.28,1.28,0,0,0-.05-.27c0-.23-.07-.46-.1-.69a3,3,0,0,0-.06-.42c0-.14,0-.37-.05-.55s0-.41-.05-.6,0-.26,0-.39v-1A21.32,21.32,0,0,1,264.07,200Z"/>
  <path class="cls-1" d="M136,242.63a21.34,21.34,0,0,1-21.34-21.26v-.07a22,22,0,0,1-.24,3.24v.1c-.05.31-.11.59-.17.92a1.59,1.59,0,0,1-.06.3c-.06.24-.11.47-.17.71s-.08.29-.12.43-.1.37-.16.56l-.18.56-.14.42-.27.69-.11.28c-.12.28-.25.59-.38.85l0,.1a22.18,22.18,0,0,1-2.23,3.67l-.24.3-.39.49c-.15.18-.3.36-.46.53l-.21.23a5.48,5.48,0,0,1-.59.59l-.11.12-.67.64-.06.05c-.24.21-.47.42-.72.62l-.06.05-.73.6-.09.07-.69.49-.18.12-.63.41-.28.17-.54.31-.41.23-.43.21-.55.27-.31.14-.69.3-.19.07c-.27.1-.53.21-.8.3l-.12,0-.88.28h-.07l-.92.24h-.08c-.3.07-.59.14-.91.2l-.15,0c-.28.05-.55.1-.84.13l-.31,0-.68.08-.6,0H93.31a21.34,21.34,0,0,1,21.34,21.32h0A21.32,21.32,0,0,1,136,242.63Z"/>
  <path class="cls-1" d="M306.66,242.63h0c-.37,0-.73,0-1.08,0h-.11l-.88-.06-.5-.06-.49-.07-.73-.12-.24,0-.87-.19h-.1l-.94-.25h0l-.95-.31h0c-.3-.1-.59-.21-.9-.33l-.08,0c-.28-.11-.55-.23-.81-.35l-.17-.07-.7-.34-.28-.15-.55-.3-.41-.23c-.14-.08-.28-.16-.41-.25l-.52-.34-.27-.18-.63-.44-.15-.11c-.23-.18-.47-.36-.69-.55l-.07-.06c-.24-.2-.49-.41-.72-.63h0a9.2,9.2,0,0,1-.72-.68l0,0c-.23-.22-.45-.46-.67-.7l-.07-.07-.59-.67-.16-.2c-.15-.19-.31-.38-.46-.6l-.29-.4-.29-.41-.48-.74-.07-.1a21.27,21.27,0,0,1-2.22-4.91.18.18,0,0,0-.05-.16c-.08-.27-.16-.55-.23-.83s-.13-.54-.19-.82a1.16,1.16,0,0,0,0-.18,21.06,21.06,0,0,1-.48-4.34v.12A21.33,21.33,0,0,1,264,242.63,21.33,21.33,0,0,1,285.36,264,21.34,21.34,0,0,1,306.66,242.63Z"/>
  <path class="cls-1" d="M203.86,294.38l.44-.6c.13-.16.25-.32.38-.47s.16-.21.24-.31a7.55,7.55,0,0,1,.54-.59l.12-.14c.2-.22.42-.45.64-.66l.05-.06c.23-.23.47-.46.7-.67l0,0c.24-.22.49-.43.73-.63l.06-.05.72-.56.11-.09.67-.48.22-.14.59-.38.33-.2.48-.28.48-.26.36-.18.59-.3.24-.11c.25-.11.49-.22.75-.32l.14-.05c.28-.12.56-.22.85-.32h.06c.31-.1.6-.2.92-.29h0c.31-.09.59-.18.94-.25h.07l.91-.2.18,0c.27-.05.53-.1.8-.13l.39-.06.59-.07.75-.05h.26c.36,0,.71,0,1.07,0h0A21.34,21.34,0,0,1,200,264.06V264a21.33,21.33,0,0,1-21.34,21.33h1.28l.51,0,.6.06.4.05a3.51,3.51,0,0,1,.65.09l.31.05.73.14.22.05.79.19.17.05.82.24.22.07c.25.08.5.16.75.26l.37.15.59.22.6.26.36.16.71.37.2.1.74.43.15.09.69.44.18.12.59.43.25.18.52.41.32.25.43.37.38.34.36.35.41.41.13.13h0l.2.21.4.43.32.38.35.42.33.42.29.39c.12.15.23.31.34.47l.24.37.34.51.21.36.31.54.2.38c.07.12.19.35.28.54l.19.41.24.52.19.47c.06.15.13.31.18.47s.14.35.19.53.11.29.15.44.12.39.18.59.08.28.11.41l.16.59.09.41c0,.13.09.4.12.59s.05.29.08.43.06.39.08.59,0,.32.07.48l0,.54a2.46,2.46,0,0,0,0,.54,2,2,0,0,1,0,.49v.92a21.21,21.21,0,0,1,.43-4.28,1.29,1.29,0,0,1,.05-.21c.05-.27.11-.53.18-.79l.14-.5c0-.17.09-.33.14-.49s.16-.52.25-.77l.07-.21a21.09,21.09,0,0,1,2.45-4.74Z"/>
  <path class="cls-1" d="M200,136a21.33,21.33,0,0,0,21.34-21.33A21.34,21.34,0,0,0,200,136Z"/>
  <path class="cls-1" d="M157.36,305.34l0-.51,0-.6.06-.4a5,5,0,0,1,.08-.66l.06-.29c0-.25.09-.49.13-.74l.06-.21c.06-.27.12-.53.19-.8a.47.47,0,0,1,0-.17l.24-.82.07-.22c.09-.25.17-.5.26-.74l.15-.38c.06-.12.15-.38.23-.59s.17-.38.26-.59a2.86,2.86,0,0,1,.16-.36l.37-.71a1.86,1.86,0,0,1,.1-.2c.13-.25.28-.5.42-.74l.09-.16c.14-.22.29-.46.45-.69l.12-.18c.14-.2.28-.41.43-.59l.18-.25.41-.51.25-.32.37-.43.34-.38.35-.37.4-.4.16-.12h0l.21-.2.39-.39.37-.33.42-.34.42-.34.39-.28.48-.35.37-.24.51-.33.36-.21.54-.31.38-.2c.17-.1.35-.19.53-.28l.42-.2.52-.23.47-.19.47-.19.53-.19.44-.14c.19-.07.39-.12.59-.18l.41-.11.59-.16.41-.09.59-.12.43-.08.6-.08.48-.07.54-.05.53,0h1.37A21.33,21.33,0,0,1,157.3,264,21.34,21.34,0,0,1,136,285.29a21.34,21.34,0,0,1,21.34,21.33v-.77C157.32,305.64,157.36,305.5,157.36,305.34Z"/>
  <path class="cls-1" d="M157.32,136A21.33,21.33,0,0,0,136,114.66,21.34,21.34,0,0,0,157.32,136Z"/>
  <path class="cls-1" d="M242.68,264a21.33,21.33,0,0,1-21.24,21.33h-.1a21.14,21.14,0,0,1,4.28.43l.22,0,.79.18.49.14.5.13.76.26.21.07a20.76,20.76,0,0,1,4.75,2.45l.21.14.59.44.48.38.3.25a6,6,0,0,1,.6.53l.13.12c.23.2.45.42.67.64l.06.05c.23.23.45.47.67.71l0,0c.22.24.42.49.63.73l0,.06c.19.23.38.48.56.72a.44.44,0,0,1,.08.11c.17.22.33.45.48.67l.15.22c.13.18.25.38.38.59l.2.33.28.48c.08.16.17.32.26.48l.18.35.3.6.11.23c.11.25.22.5.32.76l.05.13c.12.28.22.56.32.86v.06c.1.3.2.59.29.92v.05c.09.3.18.62.25.93v.08c.07.3.14.59.2.9l0,.18c.05.27.1.54.13.8a2.28,2.28,0,0,0,.06.39,5.3,5.3,0,0,0,.07.6c0,.19,0,.5,0,.74v.26c0,.36,0,.72,0,1.07a21.34,21.34,0,0,1,21.34-21.33A21.34,21.34,0,0,1,242.68,264Z"/>
  <path class="cls-1" d="M194,291.81h0a21.36,21.36,0,0,1-30.15-.6h0a21.32,21.32,0,0,1-.59,30.15h0a21.35,21.35,0,0,1,30.17.6h0A21.33,21.33,0,0,1,194,291.8Z"/>
  <path class="cls-1" d="M157.36,308a2.92,2.92,0,0,0,0,.51l.06.56a3.47,3.47,0,0,0,.06.45,4.86,4.86,0,0,0,.09.6c0,.18,0,.26.07.38s.08.44.13.65a1.37,1.37,0,0,0,.08.35c.05.23.11.45.17.67a1.35,1.35,0,0,0,.09.33c.06.22.13.44.2.66s.07.23.12.35.14.42.22.62l.15.38c0,.12.15.38.24.59s.12.27.18.41l.24.52.22.43c.09.16.17.33.27.49l.24.42.29.48c.08.14.17.27.25.4l.33.49.26.36.38.51.24.31q.21.27.45.54l.22.26a7.75,7.75,0,0,1,.51.59l.13.13a21.32,21.32,0,0,0,.59-30.15l-.13.13-.41.41-.35.36-.33.38-.38.43-.25.32-.41.52-.18.24-.43.6-.12.17-.44.7-.09.15c-.15.24-.29.49-.43.74l-.1.2c-.12.24-.25.47-.36.71l-.17.36c-.09.19-.18.38-.26.59s-.15.39-.22.59l-.15.38c-.1.25-.18.5-.26.74l-.07.22c-.09.28-.16.55-.24.82a.84.84,0,0,1,0,.17c-.07.27-.13.54-.19.8l-.05.22c-.05.24-.1.48-.14.73l0,.3c0,.22-.06.43-.09.65l-.05.41-.06.56,0,.51v2.17A2,2,0,0,0,157.36,308Z"/>
  <path class="cls-1" d="M200,305.73v-.49a2,2,0,0,0,0-.54l-.05-.54a2.65,2.65,0,0,0-.07-.48,5.42,5.42,0,0,0-.08-.59c0-.21,0-.29-.08-.43s-.07-.4-.12-.59l-.09-.41c0-.13-.1-.4-.15-.59s-.08-.27-.12-.41-.11-.39-.18-.59-.09-.29-.14-.44-.12-.35-.19-.53l-.19-.47-.19-.47-.23-.52-.2-.41c-.09-.19-.18-.37-.28-.54l-.2-.38-.31-.54-.21-.36-.33-.51-.25-.37c-.11-.16-.22-.32-.34-.47l-.28-.39-.34-.43c-.11-.14-.23-.27-.35-.41l-.32-.38-.39-.43-.2-.21a21.32,21.32,0,0,0-.6,30.16l.07-.07.59-.59.17-.18c.19-.19.36-.4.53-.6s.13-.14.19-.22l.46-.56.21-.28c.14-.17.27-.36.4-.54l.22-.32.35-.54c.07-.11.15-.22.22-.34s.23-.38.34-.59a3.35,3.35,0,0,1,.18-.31c.13-.24.25-.48.37-.72l.1-.19c.15-.31.29-.59.42-.93h0a20.54,20.54,0,0,0,1.42-4.86V310c.05-.27.08-.54.12-.82a.5.5,0,0,1,0-.24c0-.23,0-.46.06-.7a2.29,2.29,0,0,1,0-.37,2.91,2.91,0,0,0,0-.59v-1A1.94,1.94,0,0,0,200,305.73Z"/>
  <path class="cls-1" d="M136,157.32A21.33,21.33,0,0,0,114.64,136,21.34,21.34,0,0,0,136,157.32Z"/>
  <path class="cls-1" d="M194,291.81l-.13-.14-.41-.4-.37-.35-.37-.34-.44-.37L192,290l-.51-.41-.25-.18-.59-.43-.18-.12-.69-.44-.16-.09-.74-.43-.2-.1-.71-.36-.36-.16L187,287l-.59-.22-.38-.15-.75-.26-.21-.07-.82-.24-.17,0a7.73,7.73,0,0,0-.8-.19l-.22-.06-.73-.13-.3-.06-.65-.09-.41-.05-.59,0-.5-.06h-2.66l-.53,0-.54.05-.48.07-.59.08-.43.08-.6.12-.4.09-.59.16-.41.11-.6.18-.43.14-.53.19-.48.19-.47.19-.52.23-.41.2-.54.28-.37.2-.54.31-.36.21-.52.33-.37.24-.47.35-.39.28-.42.34-.43.34-.33.33L164,291l-.2.2a21.35,21.35,0,0,0,30.17.6Z"/>
  <path class="cls-1" d="M165.66,110.24h0a21.35,21.35,0,0,1,29.91-3.95h0a21.32,21.32,0,0,1-3.94-29.89h0a21.35,21.35,0,0,1-29.92,3.94h0A21.32,21.32,0,0,1,165.66,110.24Z"/>
  <path class="cls-1" d="M157.32,136A21.34,21.34,0,0,0,136,157.32,21.33,21.33,0,0,0,157.32,136Z"/>
  <path class="cls-1" d="M179.6,114.66h.5l.51,0,.63-.07.36,0a4.78,4.78,0,0,0,.73-.11l.26,0c.26,0,.52-.1.78-.16l.2,0c.27-.07.54-.13.81-.21l.19-.05c.26-.07.52-.16.78-.24l.22-.08.73-.26.29-.11.59-.26.39-.18.51-.24.49-.25.38-.2.59-.34.27-.17.65-.41.19-.12.67-.48.16-.12.65-.51.16-.14a5.92,5.92,0,0,0,.59-.52l.21-.18.52-.5.26-.27.44-.45.33-.38.34-.38.41-.51.17-.22a21.36,21.36,0,0,0-29.9,3.93l.08.07c.21.15.41.31.63.45l.23.16.69.46.2.12.73.43.19.11c.25.14.5.26.76.39l.18.1.75.34.21.09.69.27.29.12.51.17.48.16.33.1c.23.06.46.14.69.19l.23.06c.27.06.53.13.8.18l.21,0,.83.15h.22l.84.11h.23l.83.06h1.43A4,4,0,0,0,179.6,114.66Z"/>
  <path class="cls-1" d="M157.32,94.25a4.34,4.34,0,0,0,0,.51c0,.16,0,.34,0,.5a4.5,4.5,0,0,1,.07.63,1,1,0,0,0,0,.37,4.66,4.66,0,0,0,.11.72,1.09,1.09,0,0,0,0,.26c0,.26.1.52.16.78a.65.65,0,0,0,0,.2c.07.28.13.54.21.81l0,.19c.08.26.16.53.24.78l.08.23c.08.23.17.48.26.71l.12.3c.08.21.16.41.25.59l.18.39.24.51.25.49c.07.13.14.25.2.38l.34.59.17.27c.13.22.27.43.41.65l.13.19c.15.22.31.45.48.67l.12.16c.16.22.33.44.51.65l.13.16c.17.21.35.41.52.59l.18.2.51.53.26.26.45.43.38.34.39.33.51.41.22.17a21.32,21.32,0,0,0-3.95-29.89l-.09.12a5.48,5.48,0,0,0-.34.46c-.1.15-.19.25-.28.39l-.32.5c-.11.16-.17.26-.25.39l-.29.49c-.1.17-.17.28-.24.42l-.24.44c-.08.17-.17.33-.25.5s-.1.22-.15.33-.19.41-.28.63a.69.69,0,0,1,0,.13A21.91,21.91,0,0,0,157.71,89v.07c-.06.32-.12.65-.17,1v.14c0,.3-.08.59-.12.91v.2c0,.29,0,.6-.06.86v1.43A2.29,2.29,0,0,0,157.32,94.25Z"/>
  <path class="cls-1" d="M195.59,106.29l.07-.07c.15-.21.31-.42.45-.63l.16-.23c.16-.23.31-.47.46-.7l.13-.19.43-.74c0-.06.07-.12.1-.19q.21-.36.39-.75l.1-.18c.12-.25.23-.5.34-.75,0-.08.06-.14.09-.21.1-.23.19-.45.27-.68l.12-.31c.06-.16.12-.33.17-.5s.12-.32.17-.48l.09-.33c.07-.23.14-.46.2-.69l0-.23c.07-.26.13-.53.18-.8a.41.41,0,0,1,.05-.21c0-.27.1-.55.14-.83v-.21c.05-.28.09-.59.12-.85V95.3c0-.28,0-.55.06-.83V92.41a2.92,2.92,0,0,0,0-.59c0-.2,0-.29,0-.43s-.05-.45-.08-.68l0-.31c0-.26-.07-.52-.12-.77l0-.22c-.05-.27-.1-.55-.17-.82l0-.17c-.07-.27-.14-.55-.22-.83a.53.53,0,0,0,0-.17c-.08-.27-.16-.53-.25-.8l-.07-.21c-.09-.24-.17-.49-.27-.72s-.07-.2-.11-.3-.17-.41-.26-.59-.12-.27-.18-.41l-.23-.48c-.09-.16-.18-.35-.27-.52l-.18-.35-.36-.62-.14-.23c-.14-.24-.29-.47-.44-.69l-.1-.14-.51-.73-.08-.1c-.18-.24-.37-.48-.56-.71l-.08-.1c-.19-.22-.38-.44-.59-.66l-.12-.13a8.35,8.35,0,0,0-.59-.6l-.19-.18c-.17-.18-.35-.34-.54-.51l-.27-.25-.48-.42-.4-.31-.3-.24A21.31,21.31,0,0,0,195.59,106.29Z"/>
  <path class="cls-1" d="M295.41,203.2c-.25.15-.5.31-.74.48l-.41.29-.4.29-.59.45-.2.16-.67.6-.08.07-.7.66,0,0q-.36.35-.69.72h0c-.21.23-.42.48-.62.72l-.06.07-.55.69-.11.15c-.16.21-.3.42-.45.63l-.17.27-.35.52-.24.41-.24.41c-.08.13-.2.36-.29.55a1.91,1.91,0,0,0-.15.28c-.12.23-.23.46-.34.69a.58.58,0,0,1-.08.18c-.12.26-.24.53-.34.81l0,.08c-.12.3-.23.59-.33.89v0c-.11.31-.21.62-.3.94v0a8.41,8.41,0,0,0-.25.93v.1c-.07.3-.13.6-.18.88a2,2,0,0,1-.05.24l-.12.73c0,.24,0,.32-.07.49l-.06.5c0,.29,0,.59-.06.87v1.22a21.31,21.31,0,0,0,.43,4.29.39.39,0,0,0,0,.18c.06.27.12.55.19.81s.15.56.23.83a.75.75,0,0,0,0,.16,21.7,21.7,0,0,0,1.68,4,21.32,21.32,0,0,0,8.47-29h0l-.94.55Z"/>
  <path class="cls-1" d="M136,114.66A21.34,21.34,0,0,0,114.64,136,21.33,21.33,0,0,0,136,114.66Z"/>
  <path class="cls-1" d="M288.6,232.56l.48.74.29.41.29.4.46.59.16.2c.19.23.38.46.59.67l.07.08c.22.24.44.48.67.7l0,0c.23.24.47.46.71.68h0c.24.21.48.43.73.63l.07.06c.22.18.45.37.69.54l.15.12.63.44.27.18.52.34.41.25.4.23.56.3.28.15.69.33.18.08c.26.12.54.24.81.34l.08,0c.3.12.59.23.9.33h0c.31.11.62.21.94.3h0c.31.1.59.18.94.26h.1l.87.18.24.05.73.12.49.06.5.06.88.07h.13l1.08,0H307a21.33,21.33,0,0,0,9.94-2.62,21.35,21.35,0,0,0-29-8.47h0c.18.32.35.63.54.94Z"/>
  <path class="cls-1" d="M323.72,208.42l-.35-.45a3.84,3.84,0,0,0-.26-.32l-.5-.59-.15-.17-.59-.63-.09-.09c-.22-.22-.44-.43-.67-.63l-.06-.07c-.23-.21-.46-.4-.7-.59l-.09-.08-.68-.53-.17-.13-.62-.44-.26-.18-.54-.34-.38-.23-.44-.26-.51-.28-.34-.17-.63-.31-.24-.11-.74-.31-.17-.07-.8-.29-.15-.06-.82-.26-.18-.05-.79-.21-.29-.06c-.22-.06-.45-.11-.68-.15l-.48-.09-.49-.08-.8-.1h-.19c-.72-.08-1.44-.12-2.16-.13h0a22.16,22.16,0,0,0-4.3.43l-.16,0c-.28.06-.56.12-.84.2s-.55.14-.82.23l-.16,0a21.7,21.7,0,0,0-4,1.68,21.35,21.35,0,0,0,29,8.47h0c-.35-.63-.72-1.24-1.12-1.82l-.16-.23Z"/>
  <path class="cls-1" d="M157.32,178.64A21.33,21.33,0,0,0,136,157.32,21.33,21.33,0,0,0,157.32,178.64Z"/>
  <path class="cls-1" d="M285.36,264a21.34,21.34,0,0,0,21.35-21.33h0A21.34,21.34,0,0,0,285.36,264Z"/>
  <path class="cls-1" d="M114.64,178.64v.05A21.33,21.33,0,0,0,136,200,21.33,21.33,0,0,0,114.64,178.64Z"/>
  <path class="cls-1" d="M136,200a21.33,21.33,0,0,0,21.34-21.33A21.34,21.34,0,0,0,136,200Z"/>
  <path class="cls-1" d="M136,157.32a21.34,21.34,0,0,0-21.34,21.32h0A21.32,21.32,0,0,0,136,157.32Z"/>
  <path class="cls-1" d="M114.64,178.64h0A21.33,21.33,0,0,1,136,200a21.34,21.34,0,0,1,21.34-21.33A21.33,21.33,0,0,1,136,157.32,21.32,21.32,0,0,1,114.64,178.64Z"/>
  <path class="cls-1" d="M110.42,165.89c-.22-.29-.44-.59-.67-.84s-.21-.25-.31-.36-.23-.28-.36-.41l-.59-.63-.1-.11c-.23-.23-.47-.45-.71-.67h0c-.25-.23-.5-.45-.75-.65h0l-.76-.6,0,0c-.25-.19-.5-.36-.74-.53l-.12-.08-.65-.44-.22-.14-.6-.33-.34-.19-.49-.25-.48-.24-.36-.17-.6-.27-.24-.09-.75-.29-.15,0-.86-.27h-.06c-.31-.09-.59-.18-.93-.25h0l-1-.22h-.07l-1-.16h-.14c-.29,0-.59-.08-.87-.1l-.54,0c-.16,0-.32,0-.48,0-.35,0-.71,0-1.08,0h-1l-.7.05h-.36a5.4,5.4,0,0,0-.69.08l-.35,0-.7.12-.32.06-.7.15-.29.07-.75.2-.25.07-.79.25-.23.08q-.39.13-.78.3l-.19.08c-.27.1-.54.23-.82.35l-.14.07c-.29.13-.59.28-.86.42l-.08,0a19.94,19.94,0,0,0-2.73,1.73A21.34,21.34,0,0,0,110.42,165.89Z"/>
  <path class="cls-1" d="M93.34,200h1.12c.33,0,.65,0,1-.07h.28l.8-.1.34-.06.69-.12.4-.09a5.09,5.09,0,0,0,.59-.14l.46-.12.54-.16a4.83,4.83,0,0,0,.5-.16l.48-.16.54-.2.43-.17.59-.25.38-.18.6-.31.3-.15.7-.4.21-.12c.28-.16.55-.34.82-.51l.08-.06c.3-.19.59-.41.89-.62a21.36,21.36,0,0,0-29.85-4.41h0s.06.07.09.1a21.55,21.55,0,0,0,5.88,5.34l.1.05c.24.15.47.28.72.41l.22.13.59.31.37.17.48.22.51.22.36.14.64.25.26.08.75.24.18.06.82.22.15,0,.85.19.19,0,.82.14.33,0,.67.09.91.07h1.2Z"/>
  <path class="cls-1" d="M318.05,160.57h0a21.36,21.36,0,0,1-29.42,6.73h0a21.33,21.33,0,0,1,6.74,29.4h0A21.34,21.34,0,0,1,324.78,190a21.33,21.33,0,0,1-6.74-29.4Z"/>
  <path class="cls-1" d="M305.36,157.35l-.59.05-.55,0-.43.06-.69.11-.27,0c-.26,0-.53.1-.8.16l-.15,0c-.29.07-.59.14-.87.23h-.09c-.3.08-.59.17-.9.27l-.08,0c-.29.09-.59.2-.87.31l-.13.05-.79.33-.23.1-.66.31-.36.18-.5.28c-.18.09-.34.19-.5.28l-.35.21a4.7,4.7,0,0,0-.59.4l-.21.13c-.24.16-.47.33-.69.49l-.12.09c-.25.18-.49.38-.73.59l-.06.06-.71.59-.07.07-.65.59-.11.1c-.2.2-.38.4-.57.6l-.18.2-.46.53-.27.33c-.12.14-.23.29-.34.43l-.36.49-.23.32c-.15.22-.3.44-.44.66l-.09.14a21.35,21.35,0,0,0,29.42-6.73h0a21.38,21.38,0,0,0-4.75-2.21l-.14-.06-.69-.2-.35-.09-.49-.12-.56-.13-.31-.06c-.25-.05-.5-.1-.76-.13l-.19,0c-.29,0-.6-.09-.88-.11h-.14c-.31,0-.62-.06-.93-.08h-2.11Z"/>
  <path class="cls-1" d="M295.37,196.7l.05,0,.8.47.12.07.86.45.09.05.86.39.12.06.8.32.2.08.68.24.34.11.52.15.51.14.35.09.7.16.21,0c.28.06.59.11.85.15h.13c.31,0,.63.09.94.12h.11c.32,0,.64.06,1,.08h2l.66,0h.32l.82-.09h.15a21.1,21.1,0,0,0,7.63-2.54l.13-.07.72-.43.25-.17.6-.37.35-.26.46-.33.4-.32.39-.32.41-.35.37-.33.37-.35.41-.41.29-.31.46-.5.2-.24c.18-.21.36-.42.53-.65l.1-.12a18.82,18.82,0,0,0,1.18-1.73,21.34,21.34,0,0,0-29.42,6.7h0Z"/>
  <path class="cls-1" d="M285.36,179.59V180c0,.13,0,.41.05.6l.06.55c0,.18,0,.28,0,.42s.07.46.11.69a1.28,1.28,0,0,0,.05.27c.05.26.1.53.16.8l0,.15c.08.29.15.59.23.87v.09c.08.3.18.59.27.9a.11.11,0,0,0,0,.08c.1.3.2.59.31.87l.05.13c.1.26.22.53.33.79l.11.22c.09.23.2.45.3.67l.19.36.27.5c.1.17.19.34.29.5l.2.35c.12.2.26.4.4.59s.09.14.14.21c.16.24.32.47.49.69l.08.11c.19.25.38.5.59.73l.06.07.6.71.06.06c.2.23.41.44.59.66l.12.11.59.59.2.18.53.46.33.27.43.35.5.36.32.22.65.44.15.09a21.33,21.33,0,0,0-6.74-29.4.09.09,0,0,1,0,.06c-.16.26-.32.53-.47.8l-.07.11-.45.86-.05.1c-.14.28-.27.59-.39.86l-.06.12c-.11.26-.22.53-.32.8l-.08.19-.24.69c0,.11-.07.22-.11.33s-.1.35-.15.52-.1.35-.15.52-.06.23-.08.35-.11.46-.17.7l0,.2c-.06.29-.11.6-.16.86v.12c0,.31-.08.63-.11.94a.21.21,0,0,0,0,.11c0,.32-.06.64-.08,1v1.3A5.4,5.4,0,0,1,285.36,179.59Z"/>
  <path class="cls-1" d="M107.25,194.76c.14-.12.28-.23.41-.36l.63-.59.11-.1c.23-.23.46-.47.67-.7v0c.23-.25.45-.5.66-.76h0c.2-.24.4-.5.59-.75l0-.06c.18-.24.35-.49.52-.74l.09-.12.43-.68.14-.22.34-.59.19-.34c.09-.16.16-.32.25-.49l.23-.48a3.73,3.73,0,0,0,.17-.37l.27-.62a.72.72,0,0,1,.1-.24l.28-.75c0-.05,0-.1,0-.15l.28-.86v-.06c.09-.31.17-.59.25-.93v0c.07-.33.15-.65.21-1v0c.06-.32.12-.64.17-1v-.16c0-.29.07-.6.1-.87s0-.36,0-.54a3.87,3.87,0,0,1,0-.48v-2.25c0-.32,0-.64-.07-1v-.24a4.27,4.27,0,0,0-.1-.79,1.86,1.86,0,0,0-.06-.34q0-.34-.12-.69l-.08-.4c0-.2-.09-.41-.15-.6l-.12-.45-.15-.54c-.06-.18-.11-.33-.16-.5l-.17-.48-.2-.54c-.07-.18-.12-.29-.17-.43s-.17-.38-.25-.59-.12-.25-.18-.38a4.28,4.28,0,0,0-.31-.59l-.15-.31c-.13-.23-.26-.47-.4-.7l-.12-.21c-.17-.28-.34-.55-.52-.82l0-.07c-.19-.31-.41-.6-.59-.89A21.32,21.32,0,0,0,106,195.77h0c.29-.22.59-.44.85-.67A3.57,3.57,0,0,0,107.25,194.76Z"/>
  <path class="cls-1" d="M73,185.16l.24.7.12.32.26.65.15.35c.06.12.17.4.27.59s.13.28.2.41.17.35.27.52.16.3.25.45l.26.46c.1.17.22.33.32.5s.16.26.25.39L76,191l.23.31a21.32,21.32,0,0,0,4.37-29.84h0c-.58.43-1.12.88-1.64,1.35l-.46.43-.28.28c-.19.19-.38.39-.59.59l-.12.12-.59.69-.07.09-.07.08a127,127,0,0,0-3.89,19.6.74.74,0,0,0,0,.14Z"/>
  <path class="cls-1" d="M157.32,93.33h0A21.34,21.34,0,0,0,136,114.66,21.33,21.33,0,0,0,157.32,93.33Z"/>
  <path class="cls-1" d="M106.05,195.74a21.32,21.32,0,0,1,4.36-29.84h0a21.34,21.34,0,0,1-29.85-4.37h0a21.32,21.32,0,0,1-4.37,29.85h0A21.36,21.36,0,0,1,106.05,195.74Z"/>
  <path class="cls-1" d="M239.57,317.68a21.32,21.32,0,0,1-7.12-29.31h0a21.34,21.34,0,0,1-29.33,7.11h0a21.31,21.31,0,0,1,7.11,29.31h0a21.36,21.36,0,0,1,29.34-7.11Z"/>
  <path class="cls-1" d="M203.84,105.52h0a21.34,21.34,0,0,1,29.71,5.29h0a21.33,21.33,0,0,1,5.29-29.7h0a21.35,21.35,0,0,1-29.71-5.28h0A21.32,21.32,0,0,1,203.84,105.52Z"/>
  <path class="cls-1" d="M200,94.24v.28c0,.28,0,.59.06.84v.22c0,.28.07.59.11.84a.81.81,0,0,0,0,.22c0,.26.09.52.14.78l.05.27c0,.23.1.46.16.69a1.37,1.37,0,0,0,.08.35,5,5,0,0,0,.16.59c.06.21.08.3.13.45l.15.44.2.59a2.81,2.81,0,0,0,.13.33c.08.22.17.44.26.66l.11.24c.11.25.22.49.34.73l.1.2c.13.25.25.5.4.75,0,.06.07.12.1.18.14.25.28.5.44.74l.13.21c.14.22.29.45.45.67l.06.09a21.33,21.33,0,0,0,5.44-29.67l0,0,0-.06-.32.24-.35.25-.55.43-.23.19a6.1,6.1,0,0,0-.59.54l-.12.1-.68.65h0a21.12,21.12,0,0,0-3.13,4l-.06.09c-.14.25-.29.5-.43.76l-.13.23c-.11.22-.22.42-.32.64l-.19.39-.22.5c-.08.17-.15.36-.22.55l-.16.37-.23.65-.1.3c-.08.24-.15.47-.21.71a2.76,2.76,0,0,1-.08.27c-.07.24-.13.48-.18.71l-.08.31c0,.22-.09.45-.13.67s0,.26-.07.39-.06.39-.09.59,0,.34-.06.5l0,.49c0,.16,0,.43-.05.65V93.4A2.62,2.62,0,0,0,200,94.24Z"/>
  <path class="cls-1" d="M233.55,110.81l.18-.13.6-.42.36-.28.42-.35.45-.39.28-.26.52-.49a1.7,1.7,0,0,0,.19-.19c.19-.19.38-.39.56-.59l.11-.12.6-.67.08-.09c.19-.23.37-.47.56-.71a.83.83,0,0,1,.08-.12c.17-.23.34-.46.5-.7l.12-.18c.15-.21.28-.43.42-.65l.17-.29.33-.59.23-.44.22-.44a6.28,6.28,0,0,0,.27-.59l.15-.31c.1-.23.2-.48.29-.72l.08-.19c.1-.28.2-.55.29-.82a.29.29,0,0,1,0-.13l.26-.86,0-.13c.08-.27.15-.56.22-.85l0-.16c.07-.27.12-.53.17-.8a1.11,1.11,0,0,1,0-.25l.1-.71c0-.13,0-.26,0-.39s.05-.4.07-.59a3.39,3.39,0,0,1,0-.55,1.7,1.7,0,0,0,0-.45V92.07a3.08,3.08,0,0,0,0-.53c0-.18,0-.35,0-.53a3.86,3.86,0,0,1-.06-.49,5.42,5.42,0,0,0-.08-.59c0-.22,0-.27-.07-.42s-.08-.42-.12-.62a2.82,2.82,0,0,0-.07-.31c-.06-.24-.11-.48-.18-.72a.65.65,0,0,0,0-.2c-.08-.27-.15-.55-.24-.82l0-.1c-.1-.3-.2-.59-.32-.9v0c-.11-.31-.25-.62-.38-.94h0c-.13-.31-.28-.63-.43-.94v0l-.48-.9,0-.07c-.17-.29-.33-.59-.5-.85l-.08-.12-.5-.76a.18.18,0,0,1-.05-.07,21.31,21.31,0,0,0-5.37,29.68Z"/>
  <path class="cls-1" d="M204.39,106.27l.28.36.35.42.39.45.26.29.5.52.18.18c.19.19.39.38.59.59l.12.12.67.59.1.08.7.56.12.08c.23.17.46.34.71.5l.18.12c.21.15.43.28.65.42l.29.17.59.33.43.23.44.22.59.27.31.15.73.29.19.08.82.29.13,0,.86.26.12,0,.86.22.16,0c.26.07.53.12.8.17l.25,0,.71.1.39.05.59.07.55,0h2.57c.29,0,.59,0,.85-.06h.21a5.85,5.85,0,0,0,.84-.11h.22l.79-.14.27,0,.69-.16.35-.08.59-.16.45-.13.44-.15.59-.2.33-.13.66-.26.24-.11.73-.34.2-.1c.25-.13.5-.25.75-.39L232,112c.25-.14.5-.28.74-.43l.21-.13.67-.45.09-.06A21.34,21.34,0,0,0,204,105.61l.13.18A3,3,0,0,0,204.39,106.27Z"/>
  <path class="cls-1" d="M93.3,157.32A21.33,21.33,0,0,0,114.64,136,21.33,21.33,0,0,0,93.3,157.32Z"/>
  <path class="cls-1" d="M93.3,242.63h0A21.33,21.33,0,0,0,114.64,264,21.33,21.33,0,0,0,93.3,242.63Z"/>
  <path class="cls-1" d="M136,242.63A21.34,21.34,0,0,0,157.32,264,21.33,21.33,0,0,0,136,242.63Z"/>
  <path class="cls-1" d="M114.64,264A21.34,21.34,0,0,0,136,285.29,21.33,21.33,0,0,0,114.64,264Z"/>
  <path class="cls-1" d="M264,114.66a21.33,21.33,0,0,0-21.34-21.33h0A21.34,21.34,0,0,0,264,114.66Z"/>
  <path class="cls-1" d="M178.66,114.66A21.34,21.34,0,0,0,157.32,136,21.33,21.33,0,0,0,178.66,114.66Z"/>
  <path class="cls-1" d="M200,136a21.34,21.34,0,0,0-21.34,21.33A21.33,21.33,0,0,0,200,136Z"/>
  <path class="cls-1" d="M178.66,157.32A21.33,21.33,0,0,0,157.32,136,21.34,21.34,0,0,0,178.66,157.32Z"/>
  <path class="cls-1" d="M200,136a21.33,21.33,0,0,0-21.34-21.33A21.34,21.34,0,0,0,200,136Z"/>
  <path class="cls-1" d="M178.66,157.32a21.34,21.34,0,0,0-21.34,21.32A21.32,21.32,0,0,0,178.66,157.32Z"/>
  <path class="cls-1" d="M200,178.64A21.34,21.34,0,0,0,178.66,200,21.33,21.33,0,0,0,200,178.64Z"/>
  <path class="cls-1" d="M157.32,178.64A21.34,21.34,0,0,0,178.66,200,21.33,21.33,0,0,0,157.32,178.64Z"/>
  <path class="cls-1" d="M200,178.64a21.33,21.33,0,0,0-21.34-21.32A21.33,21.33,0,0,0,200,178.64Z"/>
  <path class="cls-1" d="M111,233.26a21.32,21.32,0,0,1-5.7-29.62h0a21.33,21.33,0,0,1-29.63,5.69h0a21.33,21.33,0,0,1,5.69,29.62h0A21.33,21.33,0,0,1,111,233.26Z"/>
  <path class="cls-1" d="M105.27,203.63a22.22,22.22,0,0,0-2.81-1.61l-.1,0-.85-.38-.28-.11-.69-.27-.42-.14-.55-.18-.6-.16-.43-.12-.71-.17-.3-.06c-.31-.06-.59-.12-.92-.17h-.1A23,23,0,0,0,93.3,200h-1l-.48,0-.54,0a4.67,4.67,0,0,0-.74.09l-.26,0c-.29,0-.59.09-.86.15h-.13c-.31.05-.6.12-.92.19h-.07l-.92.25h-.07c-.3.09-.6.18-.88.28l-.13,0q-.39.13-.78.3l-.21.08-.67.28-.33.15-.53.26-.45.23-.38.21-.59.33-.25.15-.67.43-.13.09c-.25.17-.5.34-.74.52l0,0a19.49,19.49,0,0,0-2.28,2h0a8.82,8.82,0,0,0-.67.7l-.1.11c-.19.21-.38.43-.6.64l-.23.31-.4.49c-.17.24-.35.48-.51.73l-.08.11a21.35,21.35,0,0,0,29.64-5.59Z"/>
  <path class="cls-1" d="M93.3,242.63h1.45l.62,0,.69-.08.31,0c.28,0,.56-.08.84-.14h.15l.91-.19h.08l.91-.25h.08l.87-.27.12-.05.8-.29.2-.08.68-.3.31-.13.55-.27.43-.22.41-.23.54-.31.28-.17.63-.4.18-.13.69-.49.1-.07.73-.59.06,0c.24-.21.48-.41.71-.63l.06,0,.67-.64.12-.11c.19-.2.39-.41.59-.59l.21-.24.45-.52.39-.49.24-.31c.21-.28.42-.59.59-.86a21.35,21.35,0,0,0-29.64,5.69h0a21.62,21.62,0,0,0,4.79,2.44h0c.33.12.66.22,1,.32l.13,0,.86.24.26,0,.75.17.4.08.6.1.59.08.43.05,1,.08h1.15Z"/>
  <path class="cls-1" d="M136,285.29A21.33,21.33,0,0,0,157.32,264,21.34,21.34,0,0,0,136,285.29Z"/>
  <path class="cls-1" d="M114.59,219.84a3,3,0,0,0,0-.59,6.89,6.89,0,0,1-.08-.69,1,1,0,0,0,0-.3c0-.29-.09-.6-.14-.84v-.15c-.06-.31-.13-.6-.2-.92v-.07c-.07-.31-.16-.59-.24-.92v-.07c-.09-.3-.18-.59-.28-.88a.14.14,0,0,0,0-.12c-.09-.26-.2-.53-.3-.8a.73.73,0,0,0-.07-.19l-.3-.69c0-.1-.09-.21-.14-.31s-.17-.36-.27-.55l-.21-.43-.23-.4c-.1-.19-.2-.37-.31-.54l-.17-.29c-.13-.21-.27-.42-.41-.63l-.12-.17c-.16-.23-.32-.47-.49-.7l-.07-.09c-.19-.25-.39-.49-.6-.73l0-.06c-.2-.24-.41-.48-.59-.72l-.06-.06c-.2-.22-.42-.45-.64-.66l-.11-.12-.59-.59-.22-.25-.59-.45-.5-.39-.3-.24c-.28-.21-.59-.41-.86-.59A21.33,21.33,0,0,0,111,233.26h0a21.13,21.13,0,0,0,1.62-2.81l0-.1c.13-.28.26-.59.38-.85l.11-.28.27-.68.14-.43.18-.55c.06-.19.11-.37.16-.56s.08-.29.12-.44.11-.47.17-.71a1.36,1.36,0,0,1,.06-.29c.06-.31.12-.6.17-.93v-.1a21,21,0,0,0,.25-3.26v-1A1.79,1.79,0,0,1,114.59,219.84Z"/>
  <path class="cls-1" d="M136,200a21.33,21.33,0,0,1-21.34,21.33h0A21.33,21.33,0,0,1,136,242.63a21.34,21.34,0,0,1,21.34-21.33A21.34,21.34,0,0,1,136,200Z"/>
  <path class="cls-1" d="M114.64,221.3h0A21.33,21.33,0,0,0,136,200,21.34,21.34,0,0,0,114.64,221.3Z"/>
  <path class="cls-1" d="M136,242.63a21.33,21.33,0,0,0,21.34-21.33A21.34,21.34,0,0,0,136,242.63Z"/>
  <path class="cls-1" d="M114.64,221.3v.07A21.34,21.34,0,0,0,136,242.63,21.33,21.33,0,0,0,114.64,221.3Z"/>
  <path class="cls-1" d="M136,200a21.34,21.34,0,0,0,21.34,21.33A21.33,21.33,0,0,0,136,200Z"/>
  <path class="cls-1" d="M178.66,157.25A21.33,21.33,0,0,1,200,178.58a21.34,21.34,0,0,1,21.34-21.33h0A21.34,21.34,0,0,1,200,135.92,21.33,21.33,0,0,1,178.66,157.25Z"/>
  <path class="cls-1" d="M288,231.43A21.35,21.35,0,0,1,316.91,240,21.33,21.33,0,0,1,325.44,211h0a21.34,21.34,0,0,1-28.94-8.53A21.33,21.33,0,0,1,288,231.43Z"/>
  <path class="cls-1" d="M221.34,199.9a21.33,21.33,0,0,1,21.34,21.33A21.34,21.34,0,0,1,264,199.9h0a21.34,21.34,0,0,1-21.34-21.33A21.33,21.33,0,0,1,221.34,199.9Z"/>
  <path class="cls-1" d="M178.66,242.52A21.33,21.33,0,0,1,200,263.85a21.34,21.34,0,0,1,21.34-21.33h0A21.34,21.34,0,0,1,200,221.2,21.33,21.33,0,0,1,178.66,242.52Z"/>
  <path class="cls-1" d="M136,242.63A21.33,21.33,0,0,1,157.32,264a21.34,21.34,0,0,1,21.34-21.33h0a21.34,21.34,0,0,1-21.34-21.33A21.33,21.33,0,0,1,136,242.63Z"/>
  <path class="cls-1" d="M242.68,263.85A21.33,21.33,0,0,1,264,285.18a21.34,21.34,0,0,1,21.34-21.33h0A21.34,21.34,0,0,1,264,242.52,21.33,21.33,0,0,1,242.68,263.85Z"/>
  <path class="cls-1" d="M114.58,264a21.34,21.34,0,0,1,21.34,21.33A21.33,21.33,0,0,1,157.26,264h0a21.33,21.33,0,0,1-21.34-21.33A21.34,21.34,0,0,1,114.58,264Z"/>
  <path class="cls-1" d="M157.22,263.85a21.33,21.33,0,0,1,21.34,21.33,21.34,21.34,0,0,1,21.34-21.33h0a21.34,21.34,0,0,1-21.34-21.33A21.33,21.33,0,0,1,157.22,263.85Z"/>
  <path class="cls-1" d="M221.52,242.68A21.34,21.34,0,0,1,242.86,264a21.33,21.33,0,0,1,21.34-21.33h0a21.33,21.33,0,0,1-21.34-21.32h0a21.34,21.34,0,0,1-21.34,21.32Z"/>
  <path class="cls-1" d="M200.17,221.35a21.34,21.34,0,0,1,21.35,21.33h0a21.33,21.33,0,0,1,21.34-21.33h0A21.33,21.33,0,0,1,221.52,200h0A21.34,21.34,0,0,1,200.17,221.35Z"/>
  <path class="cls-1" d="M157.08,221.3a21.34,21.34,0,0,1,21.35,21.33,21.33,21.33,0,0,1,21.34-21.33h0A21.33,21.33,0,0,1,178.43,200,21.34,21.34,0,0,1,157.08,221.3Z"/>
  <path class="cls-1" d="M178.66,199.9A21.33,21.33,0,0,1,200,221.23a21.34,21.34,0,0,1,21.34-21.33h0A21.34,21.34,0,0,1,200,178.57,21.33,21.33,0,0,1,178.66,199.9Z"/>
  <path class="cls-1" d="M136,200a21.33,21.33,0,0,1,21.34,21.33A21.34,21.34,0,0,1,178.66,200h0a21.34,21.34,0,0,1-21.34-21.33A21.33,21.33,0,0,1,136,200Z"/>
  <path class="cls-1" d="M242.68,178.58A21.33,21.33,0,0,1,264,199.91a21.34,21.34,0,0,1,21.34-21.33h0A21.34,21.34,0,0,1,264,157.25,21.33,21.33,0,0,1,242.68,178.58Z"/>
  <path class="cls-1" d="M200,178.58a21.33,21.33,0,0,1,21.34,21.33,21.34,21.34,0,0,1,21.34-21.33h0a21.34,21.34,0,0,1-21.34-21.33A21.33,21.33,0,0,1,200,178.58Z"/>
  <path class="cls-1" d="M157.32,178.64A21.33,21.33,0,0,1,178.66,200,21.34,21.34,0,0,1,200,178.64h0a21.33,21.33,0,0,1-21.34-21.32A21.32,21.32,0,0,1,157.32,178.64Z"/>
  <path class="cls-1" d="M221.34,157.32a21.33,21.33,0,0,1,21.34,21.32A21.34,21.34,0,0,1,264,157.32h0A21.34,21.34,0,0,1,242.68,136,21.33,21.33,0,0,1,221.34,157.32Z"/>
  <path class="cls-1" d="M136,157.25a21.33,21.33,0,0,1,21.34,21.33,21.34,21.34,0,0,1,21.34-21.33h0a21.34,21.34,0,0,1-21.34-21.33A21.33,21.33,0,0,1,136,157.25Z"/>
  <path class="cls-1" d="M242.68,136A21.33,21.33,0,0,1,264,157.32,21.34,21.34,0,0,1,285.36,136h0A21.34,21.34,0,0,1,264,114.66,21.33,21.33,0,0,1,242.68,136Z"/>
  <path class="cls-1" d="M242.54,136a21.33,21.33,0,0,1,21.34,21.33A21.34,21.34,0,0,1,285.22,136h0a21.34,21.34,0,0,1-21.34-21.33A21.33,21.33,0,0,1,242.54,136Z"/>
  <path class="cls-1" d="M200,136a21.33,21.33,0,0,1,21.34,21.33A21.34,21.34,0,0,1,242.68,136h0a21.34,21.34,0,0,1-21.34-21.33A21.33,21.33,0,0,1,200,136Z"/>
  <path class="cls-1" d="M157.32,136a21.33,21.33,0,0,1,21.34,21.33A21.34,21.34,0,0,1,200,136h0a21.34,21.34,0,0,1-21.34-21.33A21.33,21.33,0,0,1,157.32,136Z"/>
  <path class="cls-1" d="M114.64,135.92A21.33,21.33,0,0,1,136,157.25a21.34,21.34,0,0,1,21.34-21.33h0A21.34,21.34,0,0,1,136,114.59,21.33,21.33,0,0,1,114.64,135.92Z"/>
  <path class="cls-1" d="M242.68,221.3A21.33,21.33,0,0,1,264,242.63a21.34,21.34,0,0,1,21.34-21.33h0A21.34,21.34,0,0,1,264,200,21.33,21.33,0,0,1,242.68,221.3Z"/>
  <path class="cls-1" d="M242.68,221.3A21.33,21.33,0,0,0,264,200,21.34,21.34,0,0,0,242.68,221.3Z"/>
  <path class="cls-1" d="M285.36,221.3A21.34,21.34,0,0,0,264,242.63a21.33,21.33,0,0,0,21.34-21.21Z"/>
  <path class="cls-1" d="M242.68,221.3A21.34,21.34,0,0,0,264,242.63,21.33,21.33,0,0,0,242.68,221.3Z"/>
  <path class="cls-1" d="M285.36,221.3v0A21.34,21.34,0,0,0,264,200,21.34,21.34,0,0,0,285.36,221.3Z"/>
  <path class="cls-1" d="M221.34,200A21.34,21.34,0,0,0,200,221.3,21.33,21.33,0,0,0,221.34,200Z"/>
  <path class="cls-1" d="M242.68,221.3a21.34,21.34,0,0,0-21.34,21.33A21.33,21.33,0,0,0,242.68,221.3Z"/>
  <path class="cls-1" d="M200,221.3a21.34,21.34,0,0,0,21.34,21.33A21.33,21.33,0,0,0,200,221.3Z"/>
  <path class="cls-1" d="M242.68,221.3A21.33,21.33,0,0,0,221.34,200,21.34,21.34,0,0,0,242.68,221.3Z"/>
  <path class="cls-1" d="M178.66,200a21.34,21.34,0,0,0-21.34,21.33A21.33,21.33,0,0,0,178.66,200Z"/>
  <path class="cls-1" d="M200,221.3a21.34,21.34,0,0,0-21.34,21.33A21.33,21.33,0,0,0,200,221.3Z"/>
  <path class="cls-1" d="M157.32,221.3a21.34,21.34,0,0,0,21.34,21.33A21.33,21.33,0,0,0,157.32,221.3Z"/>
  <path class="cls-1" d="M178.66,200A21.34,21.34,0,0,0,200,221.3,21.33,21.33,0,0,0,178.66,200Z"/>
  <path class="cls-1" d="M136,242.63A21.34,21.34,0,0,0,114.64,264,21.33,21.33,0,0,0,136,242.63Z"/>
  <path class="cls-1" d="M221.34,242.63A21.34,21.34,0,0,0,242.68,264,21.33,21.33,0,0,0,221.34,242.63Z"/>
  <path class="cls-1" d="M200,264a21.34,21.34,0,0,0,21.34,21.33h0A21.33,21.33,0,0,0,200,264Z"/>
  <path class="cls-1" d="M136,285.29a21.34,21.34,0,0,0,21.34,21.33A21.33,21.33,0,0,0,136,285.29Z"/>
  <path class="cls-1" d="M221.34,285.29h.1A21.33,21.33,0,0,0,242.68,264,21.34,21.34,0,0,0,221.34,285.29Z"/>
  <path class="cls-1" d="M242.68,306.62A21.33,21.33,0,0,0,264,285.29,21.34,21.34,0,0,0,242.68,306.62Z"/>
  <path class="cls-1" d="M221.34,242.63A21.34,21.34,0,0,0,200,264,21.33,21.33,0,0,0,221.34,242.63Z"/>
  <path class="cls-1" d="M221.34,285.29h0A21.34,21.34,0,0,1,242.68,264a21.34,21.34,0,0,1-21.34-21.33A21.33,21.33,0,0,1,200,264,21.33,21.33,0,0,1,221.34,285.29Z"/>
  <path class="cls-1" d="M228.38,286.47l-.76-.25-.5-.14-.49-.14-.79-.18-.22-.05a21.2,21.2,0,0,0-4.28-.42H220l-.75,0-.59.07a.91.91,0,0,0-.4.06c-.26,0-.53.08-.8.13l-.18,0-.9.2h-.08c-.31.07-.63.16-.93.25h0c-.31.08-.59.19-.92.29h-.07l-.85.32-.14.05-.75.32-.24.11-.59.3-.35.18-.48.26-.48.28-.34.2-.59.38-.21.14-.67.48-.11.09-.73.56,0,0c-.24.2-.49.41-.73.63l0,0c-.24.21-.47.44-.71.67l-.05.06c-.22.21-.43.44-.64.66l-.12.14-.53.59a3.65,3.65,0,0,0-.24.31c-.08.11-.26.31-.38.47l-.44.6-.15.21c-.2.29-.4.59-.59.89a21.35,21.35,0,0,0,29.33-7.1h0a21.61,21.61,0,0,0-3.88-1.86Z"/>
  <path class="cls-1" d="M264,242.63A21.34,21.34,0,0,0,285.36,264,21.33,21.33,0,0,0,264,242.63Z"/>
  <path class="cls-1" d="M203.13,295.48a21.61,21.61,0,0,0-1.86,3.88l-.08.21c-.08.26-.17.51-.25.77s-.1.32-.14.49l-.14.5-.18.78a1.43,1.43,0,0,1,0,.22,21.12,21.12,0,0,0-.44,4.27h0v1.2a6.84,6.84,0,0,0,.07.91,4,4,0,0,0,.06.5,3.86,3.86,0,0,0,.06.49c0,.16.08.49.13.73a.38.38,0,0,0,0,.24c.06.3.12.6.19.86v.12c.08.3.15.59.24.91v.07c.09.3.19.59.29.91a.09.09,0,0,1,0,.07c.1.29.21.59.32.86l.06.12c.1.26.21.52.32.77a2,2,0,0,1,.1.21c.1.22.21.44.32.66s.1.22.16.32l.29.52c.1.17.16.29.25.43l.23.39.34.53.18.27c.15.21.29.41.44.59l.14.19c.17.22.33.43.51.64l.11.13c.18.23.37.44.56.65l.11.13c.2.21.39.41.59.59l.17.16c.18.19.37.36.56.53l.28.25.46.41.5.4.29.22a17.79,17.79,0,0,0,1.78,1.19A21.33,21.33,0,0,0,203.13,295.48Z"/>
  <path class="cls-1" d="M242.68,305.54v-.26a4.73,4.73,0,0,0-.05-.75l-.07-.59a1,1,0,0,0-.05-.39c0-.27-.09-.54-.13-.8l0-.19c-.06-.3-.12-.59-.2-.9v-.07c-.07-.32-.16-.63-.24-.94v0c-.09-.3-.19-.59-.29-.92a.06.06,0,0,1,0-.06c-.11-.28-.21-.59-.33-.85l-.05-.14c-.1-.25-.21-.5-.32-.75l-.11-.24-.3-.62-.18-.36c-.08-.16-.17-.32-.26-.48l-.28-.48-.2-.33c-.13-.2-.25-.4-.38-.59l-.14-.21-.48-.67-.09-.12-.56-.72-.05-.05c-.21-.25-.41-.49-.63-.73l0,0-.67-.71-.06-.05c-.21-.22-.44-.43-.66-.64l-.14-.12-.59-.53a2,2,0,0,0-.31-.24l-.48-.38-.59-.44-.21-.15-.9-.59a21.32,21.32,0,0,0,7.11,29.31h0a21.3,21.3,0,0,0,2.71-6.92.43.43,0,0,1,0-.19c.05-.27.1-.55.14-.82a4,4,0,0,1,.06-.5,5.15,5.15,0,0,1,.07-.53,20.9,20.9,0,0,0,.11-2.09v0A2.22,2.22,0,0,1,242.68,305.54Z"/>
  <path class="cls-1" d="M242.68,264A21.33,21.33,0,0,0,264,242.63,21.34,21.34,0,0,0,242.68,264Z"/>
  <path class="cls-1" d="M264,285.29A21.33,21.33,0,0,0,285.36,264,21.34,21.34,0,0,0,264,285.29Z"/>
  <path class="cls-1" d="M242.68,264A21.34,21.34,0,0,0,264,285.29,21.33,21.33,0,0,0,242.68,264Z"/>
  <path class="cls-1" d="M242.68,178.64a21.33,21.33,0,0,0-21.34-21.32A21.33,21.33,0,0,0,242.68,178.64Z"/>
  <path class="cls-1" d="M178.66,242.63A21.34,21.34,0,0,0,157.32,264,21.33,21.33,0,0,0,178.66,242.63Z"/>
  <path id="hide" class="cls-1" d="M264,285.29a21.35,21.35,0,0,0,10.8,18.54q4.33-3.12,8.38-6.59A21.37,21.37,0,0,0,264,285.29Z"/>
  <path id="hide-2" data-name="hide" class="cls-1" d="M242.68,306.62h0a21.28,21.28,0,0,0,4.07,12.52c4-1.59,8-3.39,11.86-5.37A21.26,21.26,0,0,0,242.68,306.62Z"/>
  <path id="hide-3" data-name="hide" class="cls-1" d="M264,285.29a21.33,21.33,0,0,1-21.34,21.33,21.27,21.27,0,0,1,15.94,7.15,127.82,127.82,0,0,0,16.2-9.94A21.35,21.35,0,0,1,264,285.29Z"/>
  <path id="hide-4" data-name="hide" class="cls-1" d="M141.36,313.76a128.71,128.71,0,0,0,11.85,5.37,21.11,21.11,0,0,0,4.11-12.51A21.25,21.25,0,0,0,141.36,313.76Z"/>
  <path id="hide-5" data-name="hide" class="cls-1" d="M136,285.29a21.35,21.35,0,0,0-19.17,11.95q4.05,3.47,8.38,6.59A21.32,21.32,0,0,0,136,285.29Z"/>
  <path id="hide-6" data-name="hide" class="cls-1" d="M136,285.29a21.32,21.32,0,0,1-10.79,18.54,127.41,127.41,0,0,0,16.17,9.93,21.25,21.25,0,0,1,16-7.14A21.34,21.34,0,0,1,136,285.29Z"/>
  <path id="hide-7" data-name="hide" class="cls-1" d="M77,235l.44.51.27.29.43.45.36.36.36.34.57.5.19.16c.55.46,1.12.89,1.72,1.3a21.34,21.34,0,0,0-5.69-29.63h0c-.4.6-.77,1.21-1.13,1.85l-.08.16-.39.77-.17.39c-.06.13-.17.37-.25.56l-.21.54c-.07.18-.12.28-.16.42l-.24.68c0,.1-.07.2-.1.3a.9.9,0,0,0,0,.16,127.36,127.36,0,0,0,3.87,19.61h0Z"/>
  <path id="hide-8" data-name="hide" class="cls-1" d="M264,114.66a21.35,21.35,0,0,0,19.18-12q-4.05-3.43-8.38-6.58A21.32,21.32,0,0,0,264,114.66Z"/>
  <path id="hide-9" data-name="hide" class="cls-1" d="M114.64,264A21.33,21.33,0,0,1,93.3,242.63h0a21.24,21.24,0,0,1-7.16,15.93,127.78,127.78,0,0,0,10,16.19A21.34,21.34,0,0,1,114.64,264Z"/>
  <path id="hide-10" data-name="hide" class="cls-1" d="M93.3,242.63h0a21.29,21.29,0,0,0-12.53,4.07,128.71,128.71,0,0,0,5.37,11.85A21.22,21.22,0,0,0,93.3,242.63Z"/>
  <path id="hide-11" data-name="hide" class="cls-1" d="M114.64,264a21.34,21.34,0,0,0-18.55,10.79q3.14,4.33,6.59,8.37A21.32,21.32,0,0,0,114.64,264Z"/>
  <path id="hide-12" data-name="hide" class="cls-1" d="M258.62,86.16a127.51,127.51,0,0,0-11.85-5.37,21.25,21.25,0,0,0-4.09,12.54A21.29,21.29,0,0,0,258.62,86.16Z"/>
  <path id="hide-13" data-name="hide" class="cls-1" d="M93.3,157.32h0A21.33,21.33,0,0,1,114.64,136a21.36,21.36,0,0,1-18.55-10.8,128.37,128.37,0,0,0-10,16.18A21.28,21.28,0,0,1,93.3,157.32Z"/>
  <path id="hide-14" data-name="hide" class="cls-1" d="M242.68,93.33h0A21.33,21.33,0,0,1,264,114.66a21.35,21.35,0,0,1,10.8-18.54,126.82,126.82,0,0,0-16.2-10A21.29,21.29,0,0,1,242.68,93.33Z"/>
  <path id="hide-15" data-name="hide" class="cls-1" d="M86.14,141.37a128.71,128.71,0,0,0-5.37,11.85,21.3,21.3,0,0,0,12.53,4.1A21.28,21.28,0,0,0,86.14,141.37Z"/>
  <path id="hide-16" data-name="hide" class="cls-1" d="M114.64,136a21.32,21.32,0,0,0-12-19.17q-3.45,4-6.59,8.37A21.36,21.36,0,0,0,114.64,136Z"/>
  <path id="hide-17" data-name="hide" class="cls-1" d="M214,73.29l-.8.31-.19.08-.65.29-.32.15-.54.28-.41.21c-.16.09-.32.18-.47.28l-.44.26-.46.29-.43.28-.16.11a21.35,21.35,0,0,0,29.71,5.28,1.13,1.13,0,0,0-.1-.13c-.15-.22-.3-.42-.46-.63L238,80l-.38-.47-.37-.42-.28-.31-.48-.51-.19-.18c-.2-.2-.4-.38-.6-.6l-.13-.1c-.22-.21-.44-.4-.67-.6l-.08-.06-.06-.05a128.24,128.24,0,0,0-19.6-3.89l-1.19.38Z"/>
  <path id="hide-18" data-name="hide" class="cls-1" d="M157.32,93.33a21.17,21.17,0,0,0-4.07-12.52q-6.06,2.39-11.86,5.36A21.24,21.24,0,0,0,157.32,93.33Z"/>
  <path id="hide-19" data-name="hide" class="cls-1" d="M136,114.66a21.33,21.33,0,0,0-10.79-18.55q-4.34,3.15-8.38,6.58A21.35,21.35,0,0,0,136,114.66Z"/>
  <path id="hide-20" data-name="hide" class="cls-1" d="M136,114.66a21.34,21.34,0,0,1,21.34-21.33h0a21.26,21.26,0,0,1-16-7.17,127.55,127.55,0,0,0-16.17,10A21.33,21.33,0,0,1,136,114.66Z"/>
  <path id="hide-21" data-name="hide" class="cls-1" d="M322.41,164.19l-.46-.49-.28-.28-.44-.41-.36-.33-.38-.32L320,162l-.28-.21c-.22-.17-.43-.34-.65-.49l-.16-.11-.84-.56h0A21.31,21.31,0,0,0,324.8,190h0a21.24,21.24,0,0,0,2.37-5.2,127,127,0,0,0-3.89-19.6l-.16-.2-.45-.52Z"/>
  <path id="hide-22" data-name="hide" class="cls-1" d="M285.36,136a21.34,21.34,0,0,0,21.35,21.33A21.34,21.34,0,0,0,285.36,136Z"/>
  <path id="hide-23" data-name="hide" class="cls-1" d="M306.71,157.32a21.29,21.29,0,0,0,12.53-4.07c-1.59-4-3.39-8-5.37-11.85A21.2,21.2,0,0,0,306.71,157.32Z"/>
  <path id="hide-24" data-name="hide" class="cls-1" d="M285.36,136a21.33,21.33,0,0,0,18.55-10.79c-2.09-2.88-4.29-5.68-6.58-8.37A21.33,21.33,0,0,0,285.36,136Z"/>
  <path id="hide-25" data-name="hide" class="cls-1" d="M285.36,136a21.34,21.34,0,0,1,21.35,21.33,21.27,21.27,0,0,1,7.15-15.95,128.37,128.37,0,0,0-9.95-16.18A21.36,21.36,0,0,1,285.36,136Z"/>
  <path id="hide-26" data-name="hide" class="cls-1" d="M313.86,258.55a128.71,128.71,0,0,0,5.37-11.85,21.26,21.26,0,0,0-12.52-4.07A21.24,21.24,0,0,0,313.86,258.55Z"/>
  <path id="hide-27" data-name="hide" class="cls-1" d="M285.36,264a21.33,21.33,0,0,0,12,19.16q3.46-4,6.58-8.37A21.33,21.33,0,0,0,285.36,264Z"/>
  <path id="hide-28" data-name="hide" class="cls-1" d="M306.71,242.63h0A21.34,21.34,0,0,1,285.36,264a21.33,21.33,0,0,1,18.55,10.79,127.45,127.45,0,0,0,9.95-16.2A21.24,21.24,0,0,1,306.71,242.63Z"/>
  <path id="hide-29" data-name="hide" class="cls-1" d="M317,240a20.66,20.66,0,0,0,2.69-1.75.9.9,0,0,0,.19-.15l.59-.46c.2-.16.24-.21.35-.31l.41-.35.42-.41.3-.3c.15-.15.3-.3.44-.46l.26-.28L323,235l.24-.28a126.94,126.94,0,0,0,3.89-19.61,21.05,21.05,0,0,0-1.72-4.1A21.31,21.31,0,0,0,317,240h0Z"/>
  <path id="hide-30" data-name="hide" class="cls-1" d="M165.07,76.87l-.73.64-.07,0c-.22.21-.43.41-.65.6l-.13.13a6.31,6.31,0,0,0-.55.6l-.22.24-.44.51L162,80l-.25.32a21.34,21.34,0,0,0,29.91-4l-.11-.09-.47-.34-.39-.28-.48-.31-.42-.27-.41-.24-.51-.29-.27-.14a20.81,20.81,0,0,0-3.79-1.55,127,127,0,0,0-19.6,3.89l-.1.07Z"/>
  <path id="hide-31" data-name="hide" class="cls-1" d="M186.26,326.54l.19-.08.75-.3.24-.11.7-.33.27-.14.64-.34.29-.17.6-.36.29-.19.6-.4.27-.19c.2-.14.4-.29.59-.45l.23-.17.6-.51.19-.17c.2-.19.4-.38.59-.59l.1-.1a21.36,21.36,0,0,0-30.17-.59l.09.09.55.55.22.2.55.49.26.23.23.19a128.24,128.24,0,0,0,19.6,3.89l.5-.16.14-.05A3.35,3.35,0,0,0,186.26,326.54Z"/>
  <path id="hide-32" data-name="hide" class="cls-1" d="M285.36,264A21.33,21.33,0,0,1,264,285.29a21.37,21.37,0,0,1,19.18,11.95,128.16,128.16,0,0,0,14.13-14.12A21.33,21.33,0,0,1,285.36,264Z"/>
  <path id="hide-33" data-name="hide" class="cls-1" d="M136,285.29A21.34,21.34,0,0,1,114.64,264a21.32,21.32,0,0,1-12,19.16,127.29,127.29,0,0,0,14.13,14.12A21.35,21.35,0,0,1,136,285.29Z"/>
  <path id="hide-34" data-name="hide" class="cls-1" d="M307.85,157.32c.31,0,.62,0,.93.07h.14a6.22,6.22,0,0,1,.88.11h.2l.75.13.31.06.6.13.48.12.35.09.69.2.15.06a21.31,21.31,0,0,1,4.74,2.21h0c.28.18.56.36.84.56l.16.11.65.49.28.21.49.41.38.32.36.33.44.42.28.28.46.48.23.26.45.52.16.19q-1.74-6-4.05-11.88a21.15,21.15,0,0,1-12.49,4.12h1.14Z"/>
  <path id="hide-35" data-name="hide" class="cls-1" d="M322.94,192.48l-.21.24-.45.49c-.16.16-.2.22-.3.32l-.4.4-.37.35-.37.34-.41.35-.39.32-.41.32-.45.33-.36.25c-.19.14-.39.26-.59.38l-.26.16c-.23.15-.47.29-.71.43l-.13.08a21.48,21.48,0,0,1-7.64,2.54h-.15l-.81.08h-.32l-.66,0h-.84c.71,0,1.43,0,2.14.11H309l.8.11.49.08.48.09.69.15.28.06.79.21.18,0,.82.26.15.06a7.64,7.64,0,0,1,.8.29l.18.07.73.31.24.11c.21.1.43.2.63.31l.34.17.51.28.44.26.38.23.54.34.26.18a6.24,6.24,0,0,1,.6.44l.16.13.68.52.09.09c.24.19.47.39.7.59l.06.07c.23.2.45.41.67.63l.09.09c.21.21.41.42.59.63l.15.17c.17.19.34.38.51.59a3.42,3.42,0,0,0,.25.31l.36.46.42.59.16.23a21.75,21.75,0,0,1,2.84,5.93,128.47,128.47,0,0,0,0-30.36,21.32,21.32,0,0,1-3.56,6.93l-.09.12Q323.21,192.15,322.94,192.48Z"/>
  <path id="hide-36" data-name="hide" class="cls-1" d="M322.34,235.81c-.14.16-.29.31-.45.46l-.29.3-.43.41-.4.35-.35.31c-.12.1-.39.31-.6.46a.9.9,0,0,1-.19.15A21.2,21.2,0,0,1,307,242.62h-.3a21.22,21.22,0,0,1,12.53,4.07q2.29-5.87,4-11.93L323,235l-.42.48C322.51,235.62,322.43,235.72,322.34,235.81Z"/>
  <path id="hide-37" data-name="hide" class="cls-1" d="M76.89,165l.59-.69.12-.12q.29-.32.6-.6l.27-.27.46-.43a20.59,20.59,0,0,1,4.38-3.08l.07,0c.28-.15.59-.29.86-.43l.14-.07.82-.35.19-.08c.26-.1.52-.21.79-.29l.23-.09.76-.24.25-.07.75-.2.29-.07.73-.17.32-.06.71-.12.35,0c.23,0,.45-.06.69-.08h.35l.7-.05h1a21.22,21.22,0,0,1-12.53-4.07q-2.3,5.79-4,11.86l.07-.09Z"/>
  <path id="hide-38" data-name="hide" class="cls-1" d="M73,214.7l.24-.69c.08-.22.11-.27.16-.42s.14-.36.21-.54l.25-.59c.09-.18.12-.26.17-.38l.4-.77.08-.16c.34-.63.72-1.25,1.12-1.85h0l.08-.11c.17-.25.34-.49.52-.73l.39-.49.24-.31a7.1,7.1,0,0,1,.59-.64l.1-.11c.21-.24.44-.48.67-.7h0a19.59,19.59,0,0,1,2.29-2l0,0,.74-.53.13-.08.67-.43.25-.16c.18-.11.38-.21.59-.32l.38-.21.46-.24.53-.25.32-.15.67-.28.22-.09.78-.29.12,0,.88-.28h.07l.92-.25h.07c.3-.07.59-.14.92-.2h.13l.87-.14.26,0c.25,0,.49-.07.74-.09l.53,0,.48,0h-.15a5.62,5.62,0,0,1-.92-.08l-.68-.08-.33,0-.82-.14h-.19c-.28-.06-.59-.12-.85-.19l-.15,0c-.27-.06-.55-.14-.82-.22l-.18,0-.75-.24-.25-.09-.65-.24-.35-.14-.51-.22-.48-.22-.37-.18c-.2-.1-.41-.2-.6-.31l-.22-.12L82.3,197l-.1-.06a21.56,21.56,0,0,1-5.89-5.33.39.39,0,0,0-.08-.1h0c-.08-.1-.15-.21-.23-.32l-.38-.53c-.12-.19-.16-.27-.25-.4l-.32-.49-.26-.5c-.09-.15-.17-.3-.25-.45s-.18-.34-.27-.52l-.2-.41c-.06-.13-.18-.38-.27-.59l-.15-.35-.26-.65-.12-.32-.24-.7-.09-.28s0-.09,0-.14a128.72,128.72,0,0,0,0,30.39.75.75,0,0,1,0-.16C73,215.06,73,214.78,73,214.7Z"/>
  <path id="hide-39" data-name="hide" class="cls-1" d="M93.3,242.63H92.11a8.09,8.09,0,0,1-1-.08l-.43-.05-.59-.08-.6-.1-.4-.07-.75-.17-.26-.06c-.29-.07-.6-.15-.86-.24l-.13,0c-.33-.09-.66-.21-1-.32h0a21.46,21.46,0,0,1-6.52-3.72l-.19-.17-.57-.5-.33-.32-.37-.36-.42-.46-.27-.28L77,235.1l-.28-.3h0q1.73,6,4,11.92A21.31,21.31,0,0,1,93.3,242.63Z"/>
  <path id="hide-40" data-name="hide" class="cls-1" d="M246.76,319.13a21.26,21.26,0,0,1-4.08-12.51v.06c0,.69,0,1.39-.1,2.09a3.09,3.09,0,0,1-.07.52,2.84,2.84,0,0,1-.06.51c0,.27-.09.54-.15.82a.32.32,0,0,1,0,.19,21.19,21.19,0,0,1-3.94,8.72h0q-.32.41-.63.78l-.2.24-.47.52-.33.35-.36.38-.42.39-.33.3-.45.39-.31.26A122.86,122.86,0,0,0,246.76,319.13Z"/>
  <path id="hide-41" data-name="hide" class="cls-1" d="M207.71,323l-.47-.41-.28-.25c-.19-.17-.37-.34-.55-.53l-.17-.16-.59-.59-.12-.13c-.19-.21-.38-.42-.56-.65l-.11-.13-.51-.64-.14-.19-.43-.59-.18-.25-.34-.54c-.08-.13-.16-.26-.23-.39a4.41,4.41,0,0,1-.25-.43c-.08-.15-.2-.34-.29-.52l-.16-.32c-.12-.22-.22-.43-.32-.65a1.47,1.47,0,0,0-.1-.22c-.11-.25-.22-.51-.32-.77l-.06-.12-.32-.86a.08.08,0,0,0,0-.07c-.1-.3-.2-.59-.29-.91v-.06c-.08-.31-.16-.6-.24-.92v-.11c-.07-.29-.13-.6-.19-.86a.53.53,0,0,0,0-.25c0-.24-.09-.49-.13-.73l-.06-.49c0-.16,0-.33-.06-.5s0-.6-.07-.91v.1a1.22,1.22,0,0,1,0,.38,4.23,4.23,0,0,1-.06.7,1,1,0,0,1,0,.24c0,.27-.07.54-.11.82v.09a21.27,21.27,0,0,1-1.43,4.87h0c-.13.31-.27.62-.42.92l-.1.19c-.12.24-.24.49-.37.72s-.12.2-.18.31l-.34.59-.22.35-.35.54-.22.32c-.13.17-.26.36-.4.53l-.21.28c-.15.19-.3.38-.46.56a2,2,0,0,1-.19.22l-.53.6-.17.18-.59.59-.07.07h0l-.1.09-.62.6-.19.16-.59.51-.23.18-.6.45-.27.19-.59.4-.3.19-.59.35-.3.17-.63.35-.28.13c-.22.12-.46.23-.69.33l-.24.11-.75.31-.19.08-.83.29-.14,0-.48.16a128.64,128.64,0,0,0,30.38,0,21.3,21.3,0,0,1-6.73-3.42l-.29-.23Z"/>
  <path id="hide-42" data-name="hide" class="cls-1" d="M164.15,322.24l-.22-.21-.55-.54-.09-.06h0l-.13-.13c-.17-.19-.34-.38-.51-.59l-.22-.26c-.15-.18-.31-.36-.45-.54l-.24-.31-.38-.51-.26-.36-.33-.49c-.08-.13-.17-.26-.25-.4l-.29-.48-.24-.42-.27-.49-.22-.43-.24-.52-.18-.41-.24-.59-.15-.38c-.05-.12-.15-.41-.22-.62s-.08-.24-.12-.35-.13-.44-.2-.66l-.09-.33c-.06-.22-.12-.44-.17-.67s-.06-.23-.08-.35-.09-.43-.13-.65,0-.26-.07-.38a5.88,5.88,0,0,0-.09-.6c0-.18,0-.3-.06-.45l-.06-.56a4.38,4.38,0,0,0,0-.51c0-.18,0-.35,0-.52v-.85a21.19,21.19,0,0,1-4.07,12.52q5.86,2.3,11.93,4L165,323l-.26-.22A2.84,2.84,0,0,1,164.15,322.24Z"/>
  <path id="hide-43" data-name="hide" class="cls-1" d="M235,76.89c.22.19.45.38.67.59l.12.11a8.2,8.2,0,0,1,.59.59l.2.19.48.5.28.32.37.42.38.46.24.31.46.63a.71.71,0,0,1,.1.14h0a.15.15,0,0,0,0,.06c.17.25.34.51.5.77l.08.12c.17.28.34.56.5.85l0,.07q.26.44.48.9v0c.15.31.3.62.44.94h0c.13.31.26.63.38.94v0c.11.31.22.6.31.91l0,.09.24.83a1.33,1.33,0,0,0,0,.19c.06.24.12.48.17.73s0,.2.07.3.08.42.12.63,0,.28.08.42.05.37.07.56,0,.33.06.49,0,.35,0,.53a3.15,3.15,0,0,0,0,.53,2.44,2.44,0,0,1,0,.54v.7h0a21.24,21.24,0,0,1,4.07-12.52,121.53,121.53,0,0,0-11.9-4l.06,0Z"/>
  <path id="hide-44" data-name="hide" class="cls-1" d="M188.86,74.58l.5.29.42.24.42.27c.13.1.32.21.47.31l.4.28.46.34.11.09h0a3.65,3.65,0,0,1,.31.24l.39.31.48.42.28.25.54.51.19.19.59.59.12.13c.19.22.38.44.59.66l.08.1c.19.24.38.47.56.72l.08.1q.26.34.51.72l.09.13.43.69.15.23.35.59.19.35c.09.17.18.34.26.52l.23.48c.08.16.13.27.19.41l.25.59c0,.1.09.2.12.3s.18.48.26.72l.07.21c.09.27.17.54.25.8a.84.84,0,0,0,.05.17c.08.28.15.55.21.84l0,.16c.06.27.12.55.17.82l0,.22c0,.25.09.51.12.77l0,.31c0,.23,0,.45.07.68a2,2,0,0,1,0,.43,3.24,3.24,0,0,0,0,.59,2.62,2.62,0,0,1,0,.56V92a2.89,2.89,0,0,1,.05-.65l.05-.48a4.43,4.43,0,0,1,.06-.51,4.72,4.72,0,0,1,.09-.59c0-.2.05-.25.07-.39s.09-.45.14-.66l.07-.31.18-.71a.9.9,0,0,1,.08-.28c.06-.23.13-.47.21-.71l.1-.29.23-.66.16-.37c.05-.12.14-.37.22-.54s.14-.34.22-.5l.19-.4.32-.63a1.71,1.71,0,0,1,.13-.23c.14-.26.29-.51.43-.76l.06-.1a21.44,21.44,0,0,1,3.13-4h0c.23-.22.45-.44.69-.64l.11-.1.59-.54.23-.19.55-.44.35-.25.32-.23h0l.16-.11.43-.29.46-.29.44-.26c.16-.09.32-.19.48-.27l.4-.21.54-.28.32-.15.65-.3.2-.07.79-.32h.05c.38-.14.77-.26,1.19-.38a128.89,128.89,0,0,0-30.41,0,20.81,20.81,0,0,1,3.79,1.55Z"/>
  <path id="hide-45" data-name="hide" class="cls-1" d="M157.32,93.33h0V92.15a7.68,7.68,0,0,1,.07-.86v-.2c0-.31.07-.59.12-.91V90c0-.32.1-.65.17-1V89a22,22,0,0,1,1.18-3.88.69.69,0,0,1,0-.13c.09-.21.19-.42.29-.62l.15-.33.25-.5.23-.44.24-.42c.09-.14.19-.33.29-.49l.25-.4c.08-.13.22-.33.33-.49s.18-.26.28-.39l.33-.47.09-.11h0l.25-.32.3-.37.44-.51.22-.25.55-.59.14-.14.65-.62.07-.06c.23-.21.48-.43.73-.63h0l.09-.08q-6,1.72-11.85,4A21.21,21.21,0,0,1,157.32,93.33Z"/>
  <path id="hide-46" data-name="hide" class="cls-1" d="M264,114.66A21.33,21.33,0,0,1,285.36,136a21.33,21.33,0,0,1,12-19.16,128.34,128.34,0,0,0-14.13-14.14A21.35,21.35,0,0,1,264,114.66Z"/>
  <path id="hide-47" data-name="hide" class="cls-1" d="M114.64,136A21.34,21.34,0,0,1,136,114.66a21.35,21.35,0,0,1-19.17-12,126.53,126.53,0,0,0-14.13,14.13A21.32,21.32,0,0,1,114.64,136Z"/>
  <path id="hide-48" data-name="hide" class="cls-1" d="M235.91,322.19l.42-.39.37-.38.33-.35.46-.52a1.53,1.53,0,0,0,.2-.24c.22-.25.42-.51.63-.78h0c.44-.59.84-1.18,1.23-1.78a21.34,21.34,0,0,0-29.33,7.11h0a20.62,20.62,0,0,0,5,2.23,128.47,128.47,0,0,0,19.62-3.88l.31-.27.45-.38Z"/>
</svg>
