<svg width="1000" height="1000" viewBox="0 0 1000 1000" fill="none" xmlns="http://www.w3.org/2000/svg">
<path d="M45.916 709.511C47.1754 712.236 48.4396 714.959 49.7466 717.658C56.7567 715.423 64.0705 714.285 71.4285 714.285C62.7035 714.272 54.0553 712.654 45.916 709.511Z" fill="#FEFEFE"/>
<path d="M71.4285 571.428C52.4845 571.428 34.3164 563.903 20.9209 550.508C7.5255 537.112 1.63119e-05 518.944 1.63119e-05 500C-0.00896633 535.233 3.69199 570.369 11.0417 604.826C17.4584 594.604 26.3646 586.178 36.9262 580.337C47.4878 574.495 59.3592 571.43 71.4285 571.428Z" fill="#FEFEFE"/>
<path d="M71.4285 428.571C59.3592 428.57 47.4879 425.505 36.9263 419.663C26.3647 413.822 17.4585 405.396 11.0417 395.174C3.69199 429.632 -0.00896633 464.767 1.63119e-05 500C-2.92861e-05 490.62 1.84749 481.332 5.43709 472.666C9.02668 463.999 14.2881 456.125 20.9208 449.492C27.5536 442.86 35.4278 437.598 44.0939 434.009C52.76 430.419 62.0483 428.571 71.4285 428.571Z" fill="#FEFEFE"/>
<path d="M49.7466 282.342C48.4396 285.041 47.1754 287.764 45.916 290.489C54.0553 287.346 62.7035 285.728 71.4285 285.715C64.0705 285.715 56.7567 284.578 49.7466 282.342Z" fill="#FEFEFE"/>
<path d="M954.085 290.489C952.825 287.764 951.561 285.041 950.254 282.342C943.244 284.578 935.93 285.715 928.572 285.715C937.297 285.728 945.946 287.346 954.085 290.489Z" fill="#FEFEFE"/>
<path d="M428.572 71.4285C428.572 52.4845 436.097 34.3164 449.493 20.9209C462.888 7.5255 481.056 1.63119e-05 500 1.63119e-05C464.767 -0.00896633 429.632 3.69199 395.174 11.0417C405.396 17.4584 413.822 26.3646 419.664 36.9262C425.505 47.4878 428.57 59.3592 428.572 71.4285Z" fill="#FEFEFE"/>
<path d="M290.489 45.916C287.764 47.1754 285.041 48.4396 282.342 49.7466C284.578 56.7567 285.715 64.0705 285.715 71.4285C285.728 62.7035 287.346 54.0553 290.489 45.916Z" fill="#FEFEFE"/>
<path d="M717.659 49.7466C714.96 48.4396 712.237 47.1754 709.512 45.916C712.655 54.0553 714.273 62.7035 714.286 71.4285C714.286 64.0705 715.424 56.7567 717.659 49.7466Z" fill="#FEFEFE"/>
<path d="M571.428 71.4285C571.43 59.3592 574.495 47.4878 580.337 36.9262C586.178 26.3646 594.604 17.4584 604.826 11.0417C570.369 3.69199 535.233 -0.00896633 500 1.63119e-05C518.944 1.63119e-05 537.112 7.5255 550.508 20.9209C563.903 34.3164 571.428 52.4845 571.428 71.4285Z" fill="#FEFEFE"/>
<path d="M282.342 950.254C285.041 951.561 287.764 952.823 290.49 954.084C287.346 945.945 285.728 937.296 285.715 928.571C285.715 935.929 284.578 943.243 282.342 950.254Z" fill="#FEFEFE"/>
<path d="M709.512 954.084C712.237 952.825 714.96 951.561 717.66 950.254C715.424 943.243 714.286 935.929 714.287 928.571C714.274 937.296 712.655 945.945 709.512 954.084Z" fill="#FEFEFE"/>
<path d="M950.254 717.658C951.561 714.959 952.824 712.236 954.085 709.511C945.946 712.654 937.297 714.272 928.572 714.285C935.93 714.285 943.244 715.423 950.254 717.658Z" fill="#FEFEFE"/>
<path d="M428.572 928.571C428.57 940.641 425.505 952.512 419.664 963.074C413.822 973.635 405.396 982.542 395.174 988.958C429.632 996.308 464.767 1000.01 500 1000C490.62 1000 481.332 998.153 472.666 994.563C464 990.973 456.125 985.712 449.493 979.079C442.86 972.446 437.598 964.572 434.009 955.906C430.419 947.24 428.572 937.951 428.572 928.571Z" fill="#FEFEFE"/>
<path d="M571.428 928.571C571.429 937.951 569.581 947.24 565.991 955.906C562.402 964.572 557.14 972.446 550.508 979.079C543.875 985.712 536.001 990.973 527.335 994.563C518.668 998.153 509.38 1000 500 1000C535.233 1000.01 570.369 996.308 604.826 988.958C594.604 982.542 586.178 973.635 580.337 963.074C574.495 952.512 571.43 940.641 571.428 928.571Z" fill="#FEFEFE"/>
<path d="M928.572 571.428C940.642 571.43 952.513 574.495 963.075 580.337C973.636 586.178 982.542 594.604 988.959 604.826C996.309 570.369 1000.01 535.233 1000 500C1000 518.944 992.475 537.112 979.08 550.508C965.684 563.903 947.516 571.428 928.572 571.428Z" fill="#FEFEFE"/>
<path d="M928.572 428.571C947.516 428.571 965.684 436.097 979.08 449.493C992.475 462.888 1000 481.056 1000 500C1000.01 464.767 996.309 429.632 988.959 395.174C982.542 405.396 973.636 413.822 963.074 419.663C952.513 425.504 940.641 428.57 928.572 428.571Z" fill="#FEFEFE"/>
<path d="M125.976 168.223C116.914 178.431 108.267 188.999 100.033 199.928C112.365 209.246 127.4 214.287 142.857 214.285C142.873 197.415 136.89 181.088 125.976 168.223Z" fill="#FEFEFE"/>
<path d="M65.8148 257.911C65.3468 256.805 64.7784 255.754 64.2565 254.677C59.1482 263.731 54.3114 272.953 49.7461 282.342C56.7562 284.577 64.07 285.715 71.428 285.715C71.4406 276.164 69.5316 266.709 65.8148 257.911Z" fill="#FEFEFE"/>
<path d="M142.857 214.286C140.418 214.286 137.98 214.409 135.553 214.655C121.545 216.079 108.275 221.628 97.4212 230.597C89.2829 237.291 82.7304 245.706 78.2357 255.237C73.7409 264.768 71.4158 275.177 71.4278 285.715C80.8079 285.715 90.0962 283.867 98.7624 280.278C107.429 276.688 115.303 271.427 121.936 264.794C128.568 258.161 133.83 250.287 137.419 241.621C141.009 232.955 142.857 223.666 142.857 214.286Z" fill="#FEFEFE"/>
<path d="M71.4293 285.714C71.409 268.028 77.9588 250.965 89.8079 237.835C101.657 224.704 117.961 216.443 135.556 214.654C137.983 214.408 140.42 214.285 142.86 214.286C127.403 214.287 112.367 209.246 100.036 199.928C86.9293 217.378 74.9779 235.666 64.2578 254.676C64.7786 255.752 65.3481 256.804 65.8161 257.911C69.5329 266.709 71.4419 276.164 71.4293 285.714Z" fill="#FEFEFE"/>
<path d="M71.4277 285.714C71.4277 295.094 73.2753 304.382 76.8649 313.048C80.4546 321.715 85.716 329.589 92.3488 336.222C98.9816 342.854 106.856 348.116 115.522 351.705C124.188 355.295 133.476 357.142 142.857 357.142C142.857 347.762 141.009 338.474 137.419 329.808C133.83 321.142 128.568 313.267 121.936 306.635C115.303 300.002 107.428 294.741 98.7623 291.151C90.0962 287.561 80.8079 285.714 71.4277 285.714Z" fill="#FEFEFE"/>
<path d="M71.4293 285.714C62.7043 285.727 54.0561 287.345 45.9168 290.489C36.4334 310.999 28.3616 332.132 21.7578 353.742C36.1772 349.129 48.7583 340.054 57.6859 327.827C66.6136 315.6 71.4262 300.853 71.4293 285.714Z" fill="#FEFEFE"/>
<path d="M71.4278 428.571C71.4214 413.103 66.3932 398.056 57.0995 385.691C47.8057 373.327 34.7489 364.314 19.8924 360.008C16.529 371.562 13.5785 383.284 11.041 395.174C17.4578 405.396 26.3641 413.822 36.9256 419.663C47.4872 425.505 59.3586 428.57 71.4278 428.571Z" fill="#FEFEFE"/>
<path d="M92.6684 425.36C101.508 422.606 109.726 418.157 116.863 412.26C125.001 405.566 131.554 397.151 136.049 387.62C140.543 378.089 142.869 367.68 142.857 357.143C123.913 357.143 105.744 364.668 92.3489 378.063C78.9534 391.459 71.4278 409.627 71.4277 428.571C73.8668 428.572 76.3043 428.449 78.7309 428.202C83.4601 427.723 88.1293 426.771 92.6684 425.36Z" fill="#FEFEFE"/>
<path d="M71.428 428.571C71.4281 409.627 78.9536 391.459 92.3491 378.063C105.745 364.668 123.913 357.142 142.857 357.142C133.477 357.142 124.188 355.295 115.522 351.705C106.856 348.116 98.9818 342.854 92.349 336.222C85.7162 329.589 80.4548 321.715 76.8652 313.048C73.2756 304.382 71.428 295.094 71.428 285.714C71.4248 300.853 66.6122 315.6 57.6846 327.827C48.757 340.054 36.1759 349.129 21.7565 353.742C21.1204 355.824 20.4991 357.912 19.8926 360.007C34.749 364.313 47.8059 373.326 57.0996 385.691C66.3934 398.055 71.4215 413.103 71.428 428.571Z" fill="#FEFEFE"/>
<path d="M71.4277 428.571C71.4277 447.515 78.9533 465.684 92.3488 479.079C105.744 492.475 123.912 500 142.857 500C142.857 481.056 135.331 462.888 121.936 449.492C108.54 436.097 90.3718 428.571 71.4277 428.571Z" fill="#FEFEFE"/>
<path d="M71.4285 428.571C62.0483 428.571 52.76 430.419 44.0939 434.009C35.4278 437.598 27.5535 442.86 20.9208 449.492C14.288 456.125 9.02666 463.999 5.43707 472.666C1.84747 481.332 -4.55972e-05 490.62 8.44022e-10 500C9.38015 500 18.6684 498.153 27.3346 494.563C36.0007 490.973 43.8749 485.712 50.5077 479.079C57.1404 472.446 62.4018 464.572 65.9914 455.906C69.581 447.24 71.4285 437.951 71.4285 428.571Z" fill="#FEFEFE"/>
<path d="M71.4285 571.428C71.4285 552.484 63.903 534.316 50.5076 520.921C37.1121 507.525 18.944 500 0 500C0 518.944 7.52548 537.112 20.9209 550.508C34.3164 563.903 52.4845 571.428 71.4285 571.428Z" fill="#FEFEFE"/>
<path d="M142.857 500C133.476 500 124.188 501.847 115.522 505.437C106.856 509.027 98.9816 514.288 92.3488 520.921C85.716 527.554 80.4546 535.428 76.8649 544.094C73.2753 552.76 71.4277 562.048 71.4277 571.428C80.8079 571.429 90.0962 569.581 98.7623 565.991C107.428 562.402 115.303 557.14 121.936 550.508C128.568 543.875 133.83 536.001 137.419 527.335C141.009 518.668 142.857 509.38 142.857 500Z" fill="#FEFEFE"/>
<path d="M71.4277 571.429C71.4277 580.809 73.2753 590.097 76.8649 598.763C80.4546 607.429 85.716 615.304 92.3488 621.936C98.9816 628.569 106.856 633.831 115.522 637.42C124.188 641.01 133.476 642.857 142.857 642.857C142.856 623.913 135.331 605.745 121.935 592.35C108.54 578.954 90.3718 571.429 71.4277 571.429Z" fill="#FEFEFE"/>
<path d="M71.4278 571.429C59.3585 571.43 47.4872 574.496 36.9256 580.337C26.364 586.178 17.4577 594.604 11.041 604.827C13.5764 616.711 16.5269 628.433 19.8924 639.993C34.749 635.687 47.806 626.674 57.0997 614.309C66.3935 601.945 71.4216 586.897 71.4278 571.429Z" fill="#FEFEFE"/>
<path d="M21.7578 646.257C28.3617 667.867 36.4335 689.001 45.9168 709.511C54.0561 712.654 62.7043 714.272 71.4293 714.285C71.4262 699.146 66.6137 684.399 57.686 672.172C48.7584 659.945 36.1773 650.87 21.7578 646.257Z" fill="#FEFEFE"/>
<path d="M142.857 642.857C123.912 642.857 105.744 650.383 92.3488 663.778C78.9533 677.174 71.4277 695.342 71.4277 714.286C90.3718 714.286 108.54 706.761 121.936 693.365C135.331 679.97 142.857 661.802 142.857 642.857Z" fill="#FEFEFE"/>
<path d="M71.428 714.286C71.428 695.342 78.9535 677.174 92.349 663.778C105.745 650.383 123.913 642.857 142.857 642.857C133.477 642.857 124.188 641.01 115.522 637.42C106.856 633.831 98.9818 628.569 92.349 621.936C85.7162 615.304 80.4548 607.429 76.8652 598.763C73.2756 590.097 71.428 580.809 71.428 571.429C71.4216 586.897 66.3934 601.944 57.0997 614.309C47.806 626.673 34.7491 635.686 19.8926 639.992C20.5023 642.086 21.1236 644.174 21.7565 646.258C36.1759 650.871 48.757 659.946 57.6847 672.173C66.6123 684.4 71.4249 699.147 71.428 714.286Z" fill="#FEFEFE"/>
<path d="M126.546 740.278C120.699 733.191 113.546 727.294 105.475 722.905C97.1963 718.407 88.1049 715.601 78.7309 714.653C76.3043 714.407 73.8668 714.284 71.4277 714.284C71.4277 723.664 73.2753 732.953 76.8649 741.619C80.4546 750.285 85.716 758.159 92.3488 764.792C98.9816 771.425 106.856 776.686 115.522 780.276C124.188 783.865 133.476 785.713 142.857 785.713C142.881 769.13 137.112 753.059 126.546 740.278Z" fill="#FEFEFE"/>
<path d="M49.7461 717.659C54.2954 727.053 59.1322 736.274 64.2565 745.324C68.9669 735.655 71.4191 725.042 71.428 714.286C64.07 714.286 56.7562 715.423 49.7461 717.659Z" fill="#FEFEFE"/>
<path d="M100.035 800.072C108.248 811.002 116.896 821.57 125.978 831.777C136.892 818.911 142.875 802.585 142.859 785.714C127.402 785.712 112.367 790.753 100.035 800.072Z" fill="#FEFEFE"/>
<path d="M71.4293 714.286C71.4204 725.042 68.9682 735.655 64.2578 745.324C74.9778 764.334 86.9292 782.622 100.036 800.073C112.367 790.754 127.403 785.713 142.86 785.715C133.479 785.715 124.191 783.867 115.525 780.278C106.858 776.688 98.9838 771.427 92.3509 764.794C85.7179 758.162 80.4564 750.287 76.8667 741.621C73.2769 732.955 71.4293 723.666 71.4293 714.286Z" fill="#FEFEFE"/>
<path d="M186.482 137.244C195.279 140.961 204.735 142.87 214.285 142.857C214.287 127.401 209.246 112.366 199.927 100.035C188.997 108.248 178.429 116.896 168.223 125.978C168.439 126.161 168.632 126.368 168.85 126.548C174.179 130.948 180.118 134.551 186.482 137.244Z" fill="#FEFEFE"/>
<path d="M813.518 137.244C819.882 134.55 825.821 130.946 831.15 126.546C831.368 126.366 831.561 126.159 831.778 125.976C821.569 116.914 811.001 108.266 800.073 100.033C790.754 112.365 785.713 127.4 785.715 142.857C795.265 142.869 804.721 140.961 813.518 137.244Z" fill="#FEFEFE"/>
<path d="M745.323 64.2565C736.268 59.1482 727.047 54.3114 717.658 49.7461C715.422 56.7562 714.285 64.07 714.285 71.428C725.041 71.4191 735.654 68.9669 745.323 64.2565Z" fill="#FEFEFE"/>
<path d="M785.714 142.857C785.714 123.913 778.188 105.745 764.793 92.3496C751.397 78.9542 733.229 71.4287 714.285 71.4287C714.285 90.3727 721.811 108.541 735.206 121.936C748.602 135.332 766.77 142.857 785.714 142.857Z" fill="#FEFEFE"/>
<path d="M785.714 142.857C785.712 127.401 790.753 112.366 800.072 100.035C782.621 86.9282 764.333 74.9768 745.323 64.2568C735.654 68.9672 725.041 71.4194 714.285 71.4284C733.229 71.4284 751.397 78.9538 764.793 92.3493C778.188 105.745 785.714 123.913 785.714 142.857Z" fill="#FEFEFE"/>
<path d="M714.286 71.4288C696.599 71.4079 679.536 77.9575 666.406 89.8067C653.275 101.656 645.015 117.96 643.226 135.556C642.98 137.982 642.857 140.42 642.857 142.859C652.238 142.859 661.526 141.011 670.192 137.422C678.859 133.832 686.733 128.57 693.366 121.937C699.998 115.305 705.26 107.43 708.849 98.7638C712.439 90.0975 714.286 80.809 714.286 71.4288Z" fill="#FEFEFE"/>
<path d="M659.166 45.435C662.078 48.9633 665.321 52.2056 668.849 55.1176C674.178 59.5178 680.117 63.1213 686.481 65.8152C695.278 69.5319 704.734 71.4409 714.284 71.4284C714.271 62.7033 712.652 54.0551 709.509 45.9159C688.999 36.4324 667.866 28.3606 646.256 21.7568C647.606 26.0089 649.354 30.1243 651.476 34.0485C653.669 38.0817 656.244 41.8948 659.166 45.435Z" fill="#FEFEFE"/>
<path d="M571.428 71.4288C586.896 71.4224 601.943 66.3943 614.308 57.1005C626.673 47.8068 635.686 34.7499 639.992 19.8934C628.437 16.53 616.715 13.5795 604.826 11.042C594.603 17.4587 586.177 26.3649 580.336 36.9265C574.495 47.4881 571.43 59.3595 571.428 71.4288Z" fill="#FEFEFE"/>
<path d="M642.857 142.857C642.856 123.913 635.331 105.745 621.935 92.3496C608.54 78.9542 590.372 71.4287 571.428 71.4287C571.428 80.8089 573.275 90.0972 576.865 98.7633C580.455 107.429 585.716 115.304 592.349 121.936C598.982 128.569 606.856 133.831 615.522 137.42C624.188 141.01 633.476 142.857 642.857 142.857Z" fill="#FEFEFE"/>
<path d="M571.428 71.4285C590.372 71.4285 608.54 78.9539 621.935 92.3494C635.331 105.745 642.856 123.913 642.857 142.857C642.856 140.418 642.979 137.98 643.225 135.554C644.65 121.546 650.198 108.276 659.167 97.4219C665.861 89.2836 674.277 82.7311 683.808 78.2363C693.338 73.7416 703.747 71.4165 714.285 71.4285C704.735 71.441 695.279 69.532 686.482 65.8153C680.118 63.1214 674.179 59.5179 668.85 55.1177C665.322 52.2057 662.079 48.9634 659.167 45.4351C656.245 41.8942 653.669 38.0803 651.477 34.0462C649.355 30.122 647.607 26.0066 646.257 21.7545C644.175 21.1184 642.087 20.4971 639.992 19.8906C635.686 34.7476 626.673 47.805 614.309 57.0992C601.944 66.3935 586.896 71.4219 571.428 71.4285Z" fill="#FEFEFE"/>
<path d="M571.428 71.4287C552.484 71.4287 534.316 78.9542 520.921 92.3496C507.525 105.745 500 123.913 500 142.857C518.944 142.857 537.112 135.332 550.508 121.936C563.903 108.541 571.428 90.3727 571.428 71.4287Z" fill="#FEFEFE"/>
<path d="M571.428 71.4285C571.428 52.4845 563.903 34.3164 550.508 20.9209C537.112 7.52548 518.944 0 500 0C500 18.944 507.525 37.1121 520.921 50.5076C534.316 63.903 552.484 71.4285 571.428 71.4285Z" fill="#FEFEFE"/>
<path d="M428.572 71.4285C447.516 71.4285 465.684 63.903 479.08 50.5076C492.475 37.1121 500.001 18.944 500.001 0C481.057 0 462.889 7.52548 449.493 20.9209C436.098 34.3164 428.572 52.4845 428.572 71.4285Z" fill="#FEFEFE"/>
<path d="M500.001 142.857C500.001 123.913 492.475 105.745 479.08 92.3496C465.684 78.9542 447.516 71.4287 428.572 71.4287C428.572 90.3727 436.098 108.541 449.493 121.936C462.889 135.332 481.057 142.857 500.001 142.857Z" fill="#FEFEFE"/>
<path d="M428.571 71.4287C409.627 71.4287 391.459 78.9542 378.064 92.3496C364.668 105.745 357.143 123.913 357.143 142.857C366.523 142.857 375.811 141.01 384.477 137.42C393.143 133.831 401.018 128.569 407.65 121.936C414.283 115.304 419.545 107.429 423.134 98.7633C426.724 90.0972 428.571 80.8089 428.571 71.4287Z" fill="#FEFEFE"/>
<path d="M428.572 71.4288C428.571 59.3595 425.506 47.4881 419.664 36.9265C413.823 26.3649 405.397 17.4587 395.174 11.042C383.29 13.5774 371.568 16.5279 360.008 19.8934C364.314 34.75 373.327 47.807 385.692 57.1008C398.056 66.3945 413.104 71.4226 428.572 71.4288Z" fill="#FEFEFE"/>
<path d="M313.517 65.8156C319.881 63.1217 325.82 59.5183 331.149 55.1181C334.677 52.2061 337.92 48.9639 340.833 45.4354C343.755 41.8945 346.33 38.0806 348.522 34.0465C350.645 30.1224 352.393 26.0069 353.743 21.7549C332.133 28.3587 310.999 36.4305 290.489 45.9139C287.346 54.0532 285.728 62.7014 285.715 71.4264C295.265 71.4395 304.719 69.5314 313.517 65.8156Z" fill="#FEFEFE"/>
<path d="M357.14 142.856C357.141 140.417 357.017 137.98 356.771 135.553C355.347 121.545 349.799 108.275 340.831 97.4212C334.137 89.2829 325.721 82.7304 316.19 78.2357C306.66 73.7409 296.25 71.4158 285.713 71.4278C285.713 90.3715 293.238 108.539 306.633 121.935C320.028 135.33 338.196 142.856 357.14 142.856Z" fill="#FEFEFE"/>
<path d="M340.833 45.4346C337.921 48.9629 334.678 52.2052 331.15 55.1172C325.821 59.5175 319.882 63.1209 313.518 65.8148C304.721 69.5316 295.265 71.4405 285.715 71.428C303.401 71.4075 320.464 77.9572 333.594 89.8064C346.724 101.656 354.985 117.96 356.773 135.555C357.019 137.982 357.142 140.419 357.142 142.858C357.142 123.914 364.668 105.746 378.063 92.3506C391.459 78.9552 409.627 71.4297 428.571 71.4297C413.103 71.4233 398.055 66.3949 385.69 57.1008C373.325 47.8067 364.312 34.7494 360.007 19.8926C357.914 20.5021 355.825 21.1234 353.742 21.7565C352.391 26.0085 350.643 30.1239 348.521 34.0481C346.329 38.0814 343.755 41.8945 340.833 45.4346Z" fill="#FEFEFE"/>
<path d="M285.716 71.4277C266.772 71.4277 248.603 78.9532 235.208 92.3487C221.813 105.744 214.287 123.912 214.287 142.856C233.231 142.856 251.399 135.331 264.795 121.935C278.19 108.54 285.716 90.3717 285.716 71.4277Z" fill="#FEFEFE"/>
<path d="M282.341 49.7461C272.947 54.2954 263.726 59.1322 254.676 64.2565C264.345 68.9669 274.958 71.4191 285.714 71.428C285.714 64.07 284.576 56.7562 282.341 49.7461Z" fill="#FEFEFE"/>
<path d="M285.714 71.4284C274.959 71.4194 264.346 68.9672 254.676 64.2568C235.667 74.9768 217.378 86.9282 199.928 100.035C209.246 112.366 214.287 127.402 214.286 142.858C214.286 133.478 216.133 124.19 219.722 115.523C223.312 106.857 228.573 98.9827 235.206 92.3498C241.839 85.7169 249.713 80.4554 258.379 76.8657C267.046 73.276 276.334 71.4284 285.714 71.4284Z" fill="#FEFEFE"/>
<path d="M813.517 862.756C804.719 859.039 795.264 857.13 785.714 857.143C785.644 872.61 790.692 887.667 800.072 899.967C811.001 891.753 821.57 883.106 831.776 874.024C831.56 873.841 831.367 873.634 831.149 873.453C825.82 869.053 819.881 865.45 813.517 862.756Z" fill="#FEFEFE"/>
<path d="M714.285 928.571C716.724 928.572 719.162 928.448 721.588 928.202C735.597 926.778 748.868 921.23 759.722 912.26C767.86 905.566 774.412 897.151 778.907 887.62C783.402 878.089 785.727 867.68 785.715 857.143C776.335 857.142 767.046 858.99 758.38 862.579C749.714 866.169 741.839 871.43 735.207 878.063C728.574 884.696 723.312 892.57 719.722 901.236C716.133 909.902 714.285 919.191 714.285 928.571Z" fill="#FEFEFE"/>
<path d="M717.658 950.254C727.051 945.704 736.273 940.867 745.323 935.743C735.654 931.033 725.041 928.58 714.285 928.571C714.285 935.929 715.422 943.243 717.658 950.254Z" fill="#FEFEFE"/>
<path d="M785.714 857.143C785.735 874.829 779.185 891.892 767.336 905.023C755.487 918.153 739.184 926.414 721.588 928.203C719.162 928.449 716.724 928.572 714.285 928.571C725.041 928.58 735.654 931.033 745.323 935.743C764.333 925.023 782.621 913.072 800.072 899.966C790.692 887.666 785.644 872.611 785.714 857.143Z" fill="#FEFEFE"/>
<path d="M686.483 934.185C676.991 938.183 668.479 944.193 661.535 951.799C654.59 959.406 649.378 968.428 646.258 978.243C667.868 971.639 689.001 963.568 709.511 954.084C712.654 945.945 714.273 937.297 714.286 928.571C704.736 928.559 695.28 930.468 686.483 934.185Z" fill="#FEFEFE"/>
<path d="M642.857 857.143C642.857 859.582 642.98 862.019 643.226 864.446C643.705 869.175 644.657 873.844 646.069 878.383C646.764 880.62 647.565 882.807 648.471 884.946C655.73 902.068 669.36 915.699 686.483 922.958C688.619 923.861 690.807 924.662 693.045 925.36C697.584 926.771 702.254 927.723 706.983 928.202C709.409 928.448 711.847 928.572 714.286 928.571C714.286 919.191 712.438 909.903 708.849 901.237C705.259 892.57 699.998 884.696 693.365 878.063C686.732 871.431 678.858 866.169 670.192 862.58C661.526 858.99 652.238 857.143 642.857 857.143Z" fill="#FEFEFE"/>
<path d="M571.428 928.571C573.867 928.572 576.304 928.448 578.731 928.202C592.739 926.778 606.009 921.23 616.863 912.26C625.001 905.566 631.554 897.151 636.049 887.62C640.543 878.089 642.869 867.68 642.857 857.143C623.913 857.143 605.744 864.668 592.349 878.063C578.953 891.459 571.428 909.627 571.428 928.571Z" fill="#FEFEFE"/>
<path d="M571.428 928.571C571.429 940.641 574.495 952.512 580.336 963.074C586.177 973.635 594.603 982.542 604.826 988.958C616.71 986.423 628.432 983.473 639.992 980.107C635.686 965.25 626.673 952.193 614.309 942.9C601.944 933.606 586.896 928.578 571.428 928.571Z" fill="#FEFEFE"/>
<path d="M659.166 954.564C665.86 946.426 674.276 939.874 683.806 935.379C693.337 930.884 703.746 928.559 714.284 928.571C711.845 928.572 709.407 928.448 706.981 928.202C702.252 927.723 697.582 926.771 693.043 925.36C690.806 924.664 688.619 923.864 686.481 922.958C669.359 915.698 655.73 902.068 648.472 884.946C647.569 882.809 646.768 880.622 646.07 878.383C644.659 873.844 643.706 869.175 643.227 864.446C642.981 862.019 642.858 859.582 642.859 857.143C642.879 874.829 636.33 891.892 624.481 905.022C612.632 918.152 596.328 926.413 578.733 928.202C576.306 928.448 573.869 928.572 571.43 928.571C586.898 928.577 601.945 933.606 614.31 942.899C626.675 952.193 635.688 965.25 639.994 980.107C642.087 979.498 644.175 978.876 646.259 978.243C649 969.594 653.381 961.554 659.166 954.564Z" fill="#FEFEFE"/>
<path d="M571.428 928.571C562.048 928.571 552.76 930.419 544.094 934.009C535.428 937.598 527.554 942.86 520.921 949.492C514.288 956.125 509.027 963.999 505.437 972.665C501.847 981.332 500 990.62 500 1000C509.38 1000 518.668 998.153 527.335 994.563C536.001 990.973 543.875 985.712 550.508 979.079C557.14 972.446 562.402 964.572 565.991 955.906C569.581 947.24 571.429 937.951 571.428 928.571Z" fill="#FEFEFE"/>
<path d="M500 857.143C499.979 874.829 506.528 891.892 518.377 905.022C530.226 918.152 546.53 926.413 564.125 928.202C566.552 928.448 568.989 928.572 571.429 928.571C571.429 909.627 563.903 891.459 550.508 878.063C537.112 864.668 518.944 857.143 500 857.143Z" fill="#FEFEFE"/>
<path d="M428.572 928.571C431.011 928.572 433.449 928.448 435.875 928.202C449.883 926.778 463.154 921.23 474.007 912.26C482.146 905.566 488.698 897.151 493.193 887.62C497.688 878.089 500.013 867.68 500.001 857.143C481.057 857.143 462.889 864.668 449.493 878.063C436.098 891.459 428.572 909.627 428.572 928.571Z" fill="#FEFEFE"/>
<path d="M428.572 928.571C428.572 937.951 430.42 947.24 434.009 955.906C437.599 964.572 442.86 972.446 449.493 979.079C456.126 985.712 464 990.973 472.666 994.563C481.332 998.153 490.621 1000 500.001 1000C500.001 990.62 498.153 981.332 494.564 972.665C490.974 963.999 485.713 956.125 479.08 949.492C472.447 942.86 464.573 937.598 455.907 934.009C447.241 930.419 437.952 928.571 428.572 928.571Z" fill="#FEFEFE"/>
<path d="M571.429 928.571C568.99 928.572 566.553 928.448 564.126 928.202C550.118 926.778 536.848 921.23 525.994 912.26C517.856 905.566 511.303 897.151 506.809 887.62C502.314 878.089 499.989 867.68 500.001 857.143C500.022 874.829 493.472 891.892 481.623 905.022C469.775 918.152 453.471 926.413 435.875 928.202C433.449 928.448 431.011 928.572 428.572 928.571C437.952 928.571 447.241 930.419 455.907 934.008C464.573 937.598 472.447 942.859 479.08 949.492C485.713 956.125 490.974 963.999 494.564 972.665C498.153 981.331 500.001 990.62 500.001 1000C500.001 990.62 501.848 981.331 505.438 972.665C509.027 963.999 514.289 956.125 520.922 949.492C527.554 942.859 535.428 937.598 544.095 934.008C552.761 930.419 562.049 928.571 571.429 928.571Z" fill="#FEFEFE"/>
<path d="M428.572 928.571C413.104 928.578 398.056 933.606 385.691 942.9C373.327 952.194 364.314 965.251 360.008 980.107C371.562 983.471 383.285 986.421 395.175 988.958C405.397 982.542 413.823 973.635 419.664 963.074C425.505 952.512 428.57 940.641 428.572 928.571Z" fill="#FEFEFE"/>
<path d="M357.143 857.143C357.122 874.829 363.671 891.892 375.52 905.022C387.369 918.152 403.673 926.413 421.268 928.202C423.695 928.448 426.132 928.572 428.571 928.571C428.571 909.627 421.046 891.459 407.65 878.063C394.255 864.668 376.087 857.143 357.143 857.143Z" fill="#FEFEFE"/>
<path d="M285.715 928.571C288.154 928.572 290.591 928.448 293.018 928.202C297.747 927.723 302.416 926.771 306.955 925.36C309.192 924.664 311.38 923.864 313.518 922.958C330.641 915.699 344.271 902.068 351.53 884.946C352.433 882.809 353.234 880.622 353.932 878.383C355.343 873.844 356.296 869.175 356.775 864.446C357.021 862.019 357.144 859.582 357.143 857.143C338.199 857.143 320.031 864.668 306.636 878.063C293.24 891.459 285.715 909.627 285.715 928.571Z" fill="#FEFEFE"/>
<path d="M340.833 954.565C334.139 946.426 325.723 939.874 316.192 935.379C306.661 930.884 296.252 928.559 285.715 928.571C285.728 937.297 287.346 945.945 290.49 954.084C311 963.568 332.133 971.639 353.743 978.243C351.002 969.594 346.618 961.554 340.833 954.565Z" fill="#FEFEFE"/>
<path d="M428.572 928.571C426.133 928.572 423.696 928.448 421.269 928.202C407.261 926.778 393.99 921.23 383.137 912.26C374.998 905.566 368.446 897.151 363.951 887.62C359.456 878.089 357.131 867.68 357.143 857.143C357.144 859.582 357.021 862.019 356.775 864.446C356.296 869.175 355.343 873.844 353.932 878.383C353.236 880.62 352.436 882.807 351.53 884.946C344.271 902.068 330.641 915.699 313.518 922.958C311.381 923.861 309.194 924.662 306.955 925.36C302.416 926.771 297.747 927.723 293.018 928.202C290.591 928.448 288.154 928.572 285.715 928.571C300.861 928.547 315.621 933.349 327.853 942.281C340.085 951.213 349.154 963.809 353.743 978.243C355.825 978.879 357.913 979.5 360.008 980.107C364.314 965.25 373.327 952.193 385.692 942.899C398.056 933.606 413.104 928.577 428.572 928.571Z" fill="#FEFEFE"/>
<path d="M254.676 935.743C263.73 940.851 272.952 945.688 282.341 950.254C284.577 943.243 285.715 935.929 285.714 928.571C274.958 928.58 264.345 931.033 254.676 935.743Z" fill="#FEFEFE"/>
<path d="M214.285 857.143C214.264 874.829 220.814 891.892 232.663 905.022C244.511 918.152 260.815 926.413 278.411 928.202C280.837 928.448 283.275 928.572 285.714 928.571C285.714 909.627 278.188 891.459 264.793 878.063C251.397 864.668 233.229 857.143 214.285 857.143Z" fill="#FEFEFE"/>
<path d="M214.285 857.143C197.702 857.118 181.632 862.887 168.85 873.453C168.632 873.634 168.439 873.841 168.223 874.024C178.431 883.086 188.999 891.734 199.928 899.967C209.307 887.667 214.355 872.61 214.285 857.143Z" fill="#FEFEFE"/>
<path d="M278.411 928.202C264.403 926.778 251.132 921.23 240.278 912.26C232.139 905.566 225.587 897.151 221.092 887.62C216.597 878.089 214.272 867.68 214.284 857.143C214.354 872.61 209.306 887.666 199.928 899.965C217.378 913.071 235.666 925.022 254.676 935.741C264.345 931.031 274.959 928.579 285.714 928.57C283.275 928.571 280.838 928.448 278.411 928.202Z" fill="#FEFEFE"/>
<path d="M899.964 199.928C891.751 188.997 883.103 178.429 874.021 168.223C863.108 181.088 857.125 197.415 857.141 214.285C872.597 214.287 887.633 209.246 899.964 199.928Z" fill="#FEFEFE"/>
<path d="M928.572 285.715C928.593 268.028 922.043 250.965 910.194 237.835C898.345 224.705 882.041 216.444 864.445 214.655C862.019 214.409 859.582 214.286 857.143 214.286C857.143 223.666 858.99 232.955 862.58 241.621C866.17 250.287 871.431 258.161 878.064 264.794C884.697 271.427 892.571 276.688 901.238 280.278C909.904 283.867 919.192 285.715 928.572 285.715Z" fill="#FEFEFE"/>
<path d="M928.572 285.715C935.93 285.715 943.244 284.577 950.254 282.342C945.705 272.948 940.868 263.727 935.744 254.677C935.223 255.753 934.653 256.805 934.186 257.911C930.469 266.709 928.56 276.164 928.572 285.715Z" fill="#FEFEFE"/>
<path d="M864.445 214.654C878.453 216.079 891.724 221.627 902.578 230.596C910.716 237.29 917.268 245.706 921.763 255.237C926.258 264.768 928.583 275.177 928.571 285.714C928.559 276.164 930.467 266.709 934.184 257.911C934.652 256.804 935.221 255.753 935.742 254.676C925.023 235.666 913.072 217.378 899.966 199.928C887.635 209.246 872.599 214.287 857.143 214.286C859.582 214.285 862.019 214.408 864.445 214.654Z" fill="#FEFEFE"/>
<path d="M978.244 353.742C971.64 332.132 963.568 310.999 954.085 290.489C945.946 287.345 937.297 285.727 928.572 285.714C928.576 300.853 933.388 315.6 942.316 327.827C951.243 340.054 963.824 349.129 978.244 353.742Z" fill="#FEFEFE"/>
<path d="M857.143 357.142C876.087 357.142 894.255 349.617 907.65 336.221C921.046 322.826 928.571 304.658 928.571 285.714C909.627 285.714 891.459 293.239 878.064 306.635C864.668 320.03 857.143 338.198 857.143 357.142Z" fill="#FEFEFE"/>
<path d="M857.143 357.143C857.122 374.829 863.671 391.892 875.52 405.022C887.369 418.152 903.672 426.413 921.268 428.202C923.694 428.449 926.132 428.572 928.571 428.571C928.571 409.627 921.046 391.459 907.65 378.063C894.255 364.668 876.087 357.143 857.143 357.143Z" fill="#FEFEFE"/>
<path d="M928.572 428.571C940.641 428.569 952.513 425.504 963.074 419.663C973.636 413.822 982.542 405.396 988.959 395.173C986.423 383.289 983.473 371.567 980.107 360.007C965.251 364.313 952.194 373.326 942.9 385.691C933.607 398.055 928.579 413.103 928.572 428.571Z" fill="#FEFEFE"/>
<path d="M928.571 285.714C928.571 304.658 921.046 322.826 907.65 336.221C894.255 349.617 876.087 357.142 857.143 357.142C876.087 357.142 894.255 364.668 907.65 378.063C921.046 391.459 928.571 409.627 928.571 428.571C928.577 413.103 933.606 398.055 942.899 385.691C952.193 373.326 965.25 364.313 980.107 360.007C979.497 357.914 978.876 355.826 978.243 353.742C963.823 349.129 951.242 340.054 942.315 327.827C933.387 315.6 928.574 300.853 928.571 285.714Z" fill="#FEFEFE"/>
<path d="M928.572 428.571C928.572 437.951 930.42 447.24 934.009 455.906C937.599 464.572 942.86 472.446 949.493 479.079C956.126 485.712 964 490.973 972.666 494.563C981.332 498.153 990.621 500 1000 500C1000 481.056 992.475 462.888 979.08 449.492C965.684 436.097 947.516 428.571 928.572 428.571Z" fill="#FEFEFE"/>
<path d="M857.143 500C866.523 500 875.811 498.153 884.477 494.563C893.143 490.973 901.018 485.712 907.65 479.079C914.283 472.446 919.544 464.572 923.134 455.906C926.724 447.24 928.571 437.951 928.571 428.571C919.191 428.571 909.903 430.419 901.237 434.009C892.57 437.598 884.696 442.86 878.063 449.492C871.431 456.125 866.169 463.999 862.58 472.666C858.99 481.332 857.143 490.62 857.143 500Z" fill="#FEFEFE"/>
<path d="M928.571 571.428C928.571 552.484 921.046 534.316 907.65 520.921C894.255 507.525 876.087 500 857.143 500C857.143 518.944 864.668 537.112 878.064 550.508C891.459 563.903 909.627 571.428 928.571 571.428Z" fill="#FEFEFE"/>
<path d="M928.572 571.428C947.516 571.428 965.684 563.903 979.08 550.508C992.475 537.112 1000 518.944 1000 500C981.057 500 962.889 507.525 949.493 520.921C936.098 534.316 928.572 552.484 928.572 571.428Z" fill="#FEFEFE"/>
<path d="M928.572 571.429C928.579 586.897 933.607 601.944 942.901 614.309C952.194 626.673 965.251 635.686 980.108 639.992C983.471 628.438 986.422 616.716 988.959 604.826C982.543 594.604 973.636 586.178 963.075 580.337C952.513 574.495 940.642 571.43 928.572 571.429Z" fill="#FEFEFE"/>
<path d="M857.143 642.857C876.087 642.857 894.255 635.332 907.65 621.936C921.046 608.541 928.571 590.373 928.571 571.429C919.191 571.429 909.903 573.276 901.237 576.866C892.571 580.455 884.696 585.717 878.064 592.35C871.431 598.982 866.169 606.857 862.58 615.523C858.99 624.189 857.143 633.477 857.143 642.857Z" fill="#FEFEFE"/>
<path d="M928.571 714.286C928.571 704.906 926.724 695.618 923.134 686.952C919.544 678.285 914.283 670.411 907.65 663.778C901.018 657.146 893.143 651.884 884.477 648.295C875.811 644.705 866.523 642.857 857.143 642.857C857.143 652.238 858.99 661.526 862.58 670.192C866.169 678.858 871.431 686.732 878.063 693.365C884.696 699.998 892.57 705.259 901.237 708.849C909.903 712.439 919.191 714.286 928.571 714.286Z" fill="#FEFEFE"/>
<path d="M928.572 714.285C937.297 714.272 945.946 712.654 954.085 709.511C963.568 689.001 971.64 667.867 978.244 646.257C963.824 650.87 951.243 659.945 942.316 672.172C933.388 684.399 928.575 699.146 928.572 714.285Z" fill="#FEFEFE"/>
<path d="M928.571 571.429C928.571 580.809 926.724 590.097 923.134 598.763C919.544 607.429 914.283 615.304 907.65 621.936C901.017 628.569 893.143 633.83 884.477 637.42C875.811 641.01 866.523 642.857 857.143 642.857C866.523 642.857 875.811 644.705 884.477 648.294C893.143 651.884 901.018 657.145 907.65 663.778C914.283 670.411 919.544 678.285 923.134 686.951C926.724 695.618 928.571 704.906 928.571 714.286C928.574 699.147 933.387 684.4 942.314 672.173C951.242 659.946 963.823 650.871 978.243 646.258C978.879 644.176 979.5 642.087 980.107 639.992C965.25 635.686 952.193 626.673 942.899 614.309C933.606 601.944 928.577 586.897 928.571 571.429Z" fill="#FEFEFE"/>
<path d="M935.743 745.324C940.852 736.269 945.689 727.048 950.254 717.659C943.244 715.423 935.93 714.286 928.572 714.286C928.581 725.042 931.033 735.655 935.743 745.324Z" fill="#FEFEFE"/>
<path d="M907.331 717.498C898.491 720.251 890.273 724.7 883.136 730.597C874.997 737.291 868.445 745.706 863.95 755.237C859.455 764.768 857.13 775.177 857.143 785.715C876.087 785.715 894.255 778.189 907.65 764.794C921.046 751.398 928.571 733.23 928.571 714.286C926.132 714.286 923.694 714.409 921.268 714.655C916.539 715.134 911.869 716.086 907.331 717.498Z" fill="#FEFEFE"/>
<path d="M874.024 831.777C883.086 821.568 891.734 811 899.966 800.072C887.635 790.753 872.599 785.712 857.143 785.714C857.127 802.585 863.11 818.911 874.024 831.777Z" fill="#FEFEFE"/>
<path d="M857.143 785.715C872.599 785.713 887.635 790.754 899.966 800.073C913.072 782.622 925.023 764.334 935.742 745.324C931.032 735.655 928.58 725.042 928.571 714.286C928.571 733.23 921.046 751.398 907.65 764.794C894.255 778.189 876.087 785.715 857.143 785.715Z" fill="#FEFEFE"/>
<path d="M285.716 214.285C285.716 204.905 283.868 195.617 280.279 186.951C276.689 178.285 271.428 170.41 264.795 163.777C258.162 157.145 250.288 151.883 241.622 148.294C232.956 144.704 223.667 142.856 214.287 142.856C214.287 152.237 216.135 161.525 219.724 170.191C223.314 178.857 228.575 186.731 235.208 193.364C241.841 199.997 249.715 205.258 258.381 208.848C267.047 212.438 276.335 214.285 285.716 214.285Z" fill="#FEFEFE"/>
<path d="M214.286 142.856C196.6 142.836 179.536 149.385 166.406 161.234C153.276 173.083 145.015 189.387 143.226 206.982C142.98 209.409 142.857 211.846 142.857 214.285C152.238 214.285 161.526 212.438 170.192 208.848C178.858 205.258 186.732 199.997 193.365 193.364C199.998 186.731 205.259 178.857 208.849 170.191C212.438 161.525 214.286 152.237 214.286 142.856Z" fill="#FEFEFE"/>
<path d="M146.069 235.527C148.822 244.366 153.271 252.585 159.167 259.723C165.861 267.861 174.276 274.413 183.807 278.908C193.338 283.403 203.747 285.728 214.285 285.716C214.305 268.03 207.756 250.967 195.908 237.836C184.059 224.706 167.756 216.445 150.161 214.655C147.734 214.409 145.296 214.286 142.857 214.286C142.857 216.725 142.98 219.163 143.226 221.589C143.705 226.318 144.658 230.988 146.069 235.527Z" fill="#FEFEFE"/>
<path d="M285.715 214.286C283.276 214.286 280.839 214.409 278.412 214.655C264.404 216.079 251.133 221.627 240.279 230.597C232.14 237.291 225.588 245.706 221.093 255.237C216.598 264.768 214.273 275.177 214.285 285.715C223.665 285.715 232.954 283.867 241.62 280.278C250.286 276.688 258.161 271.427 264.794 264.794C271.427 258.161 276.688 250.287 280.278 241.621C283.867 232.955 285.715 223.666 285.715 214.286Z" fill="#FEFEFE"/>
<path d="M164.097 217.498C172.936 220.251 181.154 224.7 188.292 230.597C196.43 237.291 202.983 245.706 207.477 255.237C211.972 264.768 214.297 275.177 214.285 285.715C214.265 268.029 220.814 250.965 232.663 237.835C244.512 224.705 260.816 216.444 278.411 214.655C280.838 214.409 283.275 214.286 285.714 214.286C276.334 214.286 267.046 212.439 258.38 208.849C249.714 205.259 241.839 199.998 235.207 193.365C228.574 186.732 223.313 178.858 219.723 170.192C216.133 161.526 214.286 152.238 214.286 142.857C214.286 152.238 212.438 161.526 208.849 170.192C205.259 178.858 199.998 186.732 193.365 193.365C186.732 199.998 178.858 205.259 170.192 208.849C161.526 212.439 152.238 214.286 142.857 214.286C145.296 214.286 147.734 214.409 150.161 214.655C154.89 215.134 159.559 216.086 164.097 217.498Z" fill="#FEFEFE"/>
<path d="M857.143 214.286C857.143 211.847 857.02 209.41 856.774 206.983C855.349 192.975 849.802 179.705 840.833 168.851C833.499 159.959 824.129 152.967 813.518 148.469C804.721 144.752 795.265 142.843 785.715 142.856C785.715 152.236 787.562 161.524 791.151 170.19C794.741 178.857 800.002 186.731 806.635 193.364C813.268 199.997 821.142 205.259 829.808 208.849C838.474 212.438 847.762 214.286 857.143 214.286Z" fill="#FEFEFE"/>
<path d="M714.285 214.286C723.665 214.286 732.954 212.439 741.62 208.849C750.286 205.259 758.16 199.998 764.793 193.365C771.426 186.732 776.687 178.858 780.277 170.192C783.866 161.526 785.714 152.238 785.714 142.857C776.334 142.857 767.045 144.705 758.379 148.295C749.713 151.884 741.839 157.146 735.206 163.778C728.573 170.411 723.312 178.285 719.722 186.952C716.133 195.618 714.285 204.906 714.285 214.286Z" fill="#FEFEFE"/>
<path d="M785.714 285.715C785.734 268.029 779.185 250.966 767.336 237.835C755.487 224.705 739.184 216.444 721.588 214.655C719.162 214.409 716.724 214.286 714.285 214.286C714.285 233.23 721.811 251.398 735.206 264.794C748.602 278.189 766.77 285.715 785.714 285.715Z" fill="#FEFEFE"/>
<path d="M835.902 217.498C827.063 220.251 818.845 224.7 811.708 230.597C803.57 237.291 797.017 245.706 792.523 255.237C788.028 264.768 785.703 275.177 785.715 285.715C802.298 285.739 818.369 279.97 831.15 269.404C838.237 263.557 844.134 256.404 848.523 248.333C853.021 240.055 855.827 230.963 856.775 221.589C857.021 219.163 857.144 216.725 857.144 214.286C854.705 214.286 852.267 214.409 849.84 214.655C845.111 215.134 840.442 216.086 835.902 217.498Z" fill="#FEFEFE"/>
<path d="M714.285 214.286C716.724 214.286 719.162 214.409 721.588 214.655C735.597 216.079 748.868 221.627 759.722 230.597C767.86 237.291 774.412 245.706 778.907 255.237C783.402 264.768 785.727 275.177 785.715 285.715C785.694 268.029 792.244 250.965 804.093 237.835C815.942 224.705 832.245 216.444 849.84 214.655C852.267 214.409 854.705 214.286 857.144 214.286C847.764 214.286 838.475 212.439 829.809 208.849C821.143 205.26 813.269 199.998 806.636 193.365C800.003 186.733 794.742 178.858 791.152 170.192C787.563 161.526 785.715 152.238 785.715 142.857C785.715 152.238 783.868 161.526 780.278 170.192C776.688 178.859 771.427 186.733 764.794 193.366C758.161 199.999 750.286 205.26 741.62 208.849C732.954 212.439 723.665 214.286 714.285 214.286Z" fill="#FEFEFE"/>
<path d="M853.931 764.474C853.235 762.237 852.434 760.05 851.528 757.911C844.27 740.789 830.639 727.158 813.516 719.899C811.38 718.997 809.192 718.196 806.954 717.498C802.415 716.086 797.745 715.134 793.016 714.655C790.589 714.409 788.152 714.286 785.713 714.286C785.713 723.666 787.56 732.955 791.15 741.621C794.74 750.287 800.001 758.161 806.634 764.794C813.267 771.427 821.141 776.688 829.807 780.278C838.473 783.867 847.762 785.715 857.142 785.715C857.142 783.276 857.019 780.838 856.773 778.412C856.294 773.682 855.342 769.013 853.931 764.474Z" fill="#FEFEFE"/>
<path d="M764.473 717.498C755.634 720.251 747.416 724.7 740.279 730.597C732.14 737.291 725.588 745.706 721.093 755.237C716.598 764.768 714.273 775.177 714.285 785.715C733.229 785.715 751.397 778.189 764.793 764.794C778.188 751.398 785.714 733.23 785.714 714.286C783.275 714.286 780.837 714.409 778.411 714.655C773.681 715.134 769.012 716.086 764.473 717.498Z" fill="#FEFEFE"/>
<path d="M714.285 785.714C714.285 804.658 721.811 822.826 735.206 836.221C748.602 849.617 766.77 857.142 785.714 857.142C785.714 838.198 778.188 820.03 764.793 806.635C751.397 793.239 733.229 785.714 714.285 785.714Z" fill="#FEFEFE"/>
<path d="M785.715 857.142C802.298 857.167 818.369 851.397 831.15 840.832C838.237 834.985 844.134 827.832 848.522 819.761C853.021 811.482 855.827 802.391 856.775 793.017C857.021 790.59 857.144 788.153 857.144 785.714C847.763 785.714 838.475 787.561 829.809 791.151C821.143 794.741 813.269 800.002 806.636 806.635C800.003 813.267 794.742 821.142 791.152 829.808C787.562 838.474 785.715 847.762 785.715 857.142Z" fill="#FEFEFE"/>
<path d="M269.403 740.278C263.556 733.191 256.403 727.294 248.332 722.905C240.054 718.407 230.962 715.601 221.588 714.653C219.162 714.407 216.724 714.284 214.285 714.284C214.285 733.228 221.811 751.396 235.206 764.792C248.602 778.187 266.77 785.713 285.714 785.713C285.738 769.13 279.969 753.059 269.403 740.278Z" fill="#FEFEFE"/>
<path d="M214.286 714.286C211.847 714.286 209.41 714.409 206.983 714.655C202.254 715.134 197.585 716.086 193.045 717.498C190.809 718.192 188.621 718.993 186.483 719.899C169.361 727.159 155.731 740.789 148.473 757.911C147.57 760.048 146.769 762.235 146.07 764.474C144.659 769.013 143.707 773.682 143.228 778.412C142.982 780.838 142.859 783.276 142.859 785.715C161.803 785.714 179.971 778.188 193.366 764.793C206.761 751.398 214.286 733.23 214.286 714.286Z" fill="#FEFEFE"/>
<path d="M142.857 785.714C142.857 788.153 142.98 790.59 143.226 793.017C144.65 807.025 150.198 820.295 159.167 831.149C165.861 839.287 174.276 845.84 183.807 850.334C193.338 854.829 203.747 857.154 214.285 857.142C214.285 838.199 206.759 820.031 193.364 806.635C179.969 793.24 161.801 785.714 142.857 785.714Z" fill="#FEFEFE"/>
<path d="M285.714 785.714C266.77 785.714 248.602 793.239 235.206 806.635C221.811 820.03 214.285 838.198 214.285 857.142C233.229 857.142 251.397 849.617 264.793 836.221C278.188 822.826 285.714 804.658 285.714 785.714Z" fill="#FEFEFE"/>
<path d="M214.285 428.571C214.285 437.951 216.133 447.24 219.722 455.906C223.312 464.572 228.573 472.446 235.206 479.079C241.839 485.712 249.713 490.973 258.379 494.563C267.045 498.153 276.333 500 285.714 500C285.714 490.62 283.866 481.332 280.277 472.666C276.687 463.999 271.426 456.125 264.793 449.492C258.16 442.86 250.286 437.598 241.62 434.009C232.954 430.419 223.665 428.571 214.285 428.571Z" fill="#FEFEFE"/>
<path d="M214.286 428.571C196.6 428.551 179.536 435.1 166.406 446.949C153.276 458.798 145.015 475.102 143.226 492.697C142.98 495.124 142.857 497.561 142.857 500C152.238 500 161.526 498.153 170.192 494.563C178.858 490.973 186.732 485.712 193.365 479.079C199.998 472.446 205.259 464.572 208.849 455.906C212.438 447.24 214.286 437.951 214.286 428.571Z" fill="#FEFEFE"/>
<path d="M146.069 521.241C148.822 530.08 153.272 538.298 159.168 545.435C165.862 553.573 174.278 560.126 183.808 564.621C193.339 569.115 203.748 571.44 214.286 571.428C214.286 552.484 206.76 534.316 193.365 520.921C179.97 507.525 161.801 500 142.857 500C142.857 502.439 142.98 504.877 143.226 507.303C143.705 512.032 144.657 516.701 146.069 521.241Z" fill="#FEFEFE"/>
<path d="M285.714 500C266.77 500 248.602 507.525 235.206 520.921C221.811 534.316 214.285 552.484 214.285 571.428C233.229 571.428 251.397 563.903 264.793 550.508C278.188 537.112 285.714 518.944 285.714 500Z" fill="#FEFEFE"/>
<path d="M853.932 478.759C851.179 469.92 846.729 461.702 840.833 454.565C833.499 445.673 824.129 438.681 813.518 434.183C804.72 430.466 795.265 428.557 785.715 428.569C785.715 437.95 787.562 447.238 791.151 455.905C794.741 464.571 800.002 472.445 806.635 479.078C813.268 485.711 821.142 490.973 829.809 494.563C838.475 498.152 847.763 500 857.144 500C857.144 497.561 857.021 495.123 856.775 492.697C856.296 487.968 855.343 483.298 853.932 478.759Z" fill="#FEFEFE"/>
<path d="M714.285 500C723.665 500 732.954 498.153 741.62 494.563C750.286 490.973 758.16 485.712 764.793 479.079C771.426 472.446 776.687 464.572 780.277 455.906C783.866 447.24 785.714 437.951 785.714 428.571C776.334 428.571 767.045 430.419 758.379 434.009C749.713 437.598 741.839 442.86 735.206 449.492C728.573 456.125 723.312 463.999 719.722 472.666C716.133 481.332 714.285 490.62 714.285 500Z" fill="#FEFEFE"/>
<path d="M785.714 571.428C785.714 552.484 778.188 534.316 764.793 520.921C751.397 507.525 733.229 500 714.285 500C714.285 518.944 721.811 537.112 735.206 550.508C748.602 563.903 766.77 571.428 785.714 571.428Z" fill="#FEFEFE"/>
<path d="M785.715 571.428C802.298 571.453 818.369 565.683 831.15 555.118C838.237 549.271 844.134 542.118 848.522 534.047C853.021 525.768 855.827 516.677 856.775 507.303C857.021 504.877 857.144 502.439 857.144 500C847.763 500 838.475 501.847 829.809 505.437C821.143 509.027 813.269 514.288 806.636 520.921C800.003 527.554 794.742 535.428 791.152 544.094C787.562 552.76 785.715 562.048 785.715 571.428Z" fill="#FEFEFE"/>
<path d="M853.932 335.903C851.178 327.064 846.729 318.846 840.833 311.708C833.499 302.817 824.129 295.825 813.518 291.326C804.72 287.609 795.265 285.7 785.715 285.713C785.715 295.093 787.562 304.381 791.152 313.048C794.742 321.714 800.003 329.588 806.636 336.221C813.269 342.853 821.143 348.115 829.809 351.704C838.475 355.294 847.763 357.141 857.144 357.141C857.144 354.702 857.021 352.265 856.775 349.838C856.296 345.11 855.343 340.441 853.932 335.903Z" fill="#FEFEFE"/>
<path d="M714.285 357.142C733.229 357.142 751.397 349.617 764.793 336.221C778.188 322.826 785.714 304.658 785.714 285.714C766.77 285.714 748.602 293.239 735.206 306.635C721.811 320.03 714.285 338.198 714.285 357.142Z" fill="#FEFEFE"/>
<path d="M714.285 357.143C714.264 374.829 720.814 391.892 732.663 405.022C744.511 418.153 760.815 426.413 778.411 428.202C780.837 428.449 783.275 428.572 785.714 428.571C785.714 409.627 778.188 391.459 764.793 378.063C751.397 364.668 733.229 357.143 714.285 357.143Z" fill="#FEFEFE"/>
<path d="M785.715 428.571C788.154 428.572 790.591 428.449 793.018 428.202C797.747 427.723 802.417 426.771 806.956 425.36C809.192 424.664 811.379 423.864 813.518 422.958C830.641 415.7 844.272 402.069 851.53 384.946C852.433 382.809 853.234 380.622 853.933 378.383C855.344 373.844 856.296 369.175 856.775 364.446C857.021 362.019 857.144 359.582 857.144 357.143C847.764 357.142 838.475 358.99 829.809 362.58C821.143 366.169 813.269 371.43 806.636 378.063C800.003 384.696 794.742 392.57 791.152 401.236C787.562 409.903 785.715 419.191 785.715 428.571Z" fill="#FEFEFE"/>
<path d="M571.428 214.286C571.429 204.906 569.581 195.618 565.991 186.952C562.402 178.285 557.14 170.411 550.508 163.778C543.875 157.146 536.001 151.884 527.335 148.295C518.668 144.705 509.38 142.857 500 142.857C500 152.238 501.847 161.526 505.437 170.192C509.027 178.858 514.288 186.732 520.921 193.365C527.554 199.998 535.428 205.259 544.094 208.849C552.76 212.439 562.048 214.286 571.428 214.286Z" fill="#FEFEFE"/>
<path d="M428.572 214.286C437.952 214.286 447.241 212.439 455.907 208.849C464.573 205.259 472.447 199.998 479.08 193.365C485.713 186.732 490.974 178.858 494.564 170.192C498.153 161.526 500.001 152.238 500.001 142.857C490.621 142.857 481.332 144.705 472.666 148.295C464 151.884 456.126 157.146 449.493 163.778C442.86 170.411 437.599 178.285 434.009 186.952C430.42 195.618 428.572 204.906 428.572 214.286Z" fill="#FEFEFE"/>
<path d="M500.001 285.715C500.021 268.029 493.472 250.966 481.623 237.835C469.774 224.705 453.471 216.444 435.875 214.655C433.449 214.409 431.011 214.286 428.572 214.286C428.572 233.23 436.098 251.398 449.493 264.794C462.889 278.189 481.057 285.715 500.001 285.715Z" fill="#FEFEFE"/>
<path d="M571.429 214.286C568.989 214.286 566.552 214.409 564.125 214.655C550.118 216.08 536.847 221.628 525.993 230.597C517.855 237.291 511.303 245.706 506.808 255.237C502.313 264.768 499.988 275.177 500 285.715C518.944 285.715 537.112 278.189 550.508 264.794C563.903 251.398 571.429 233.23 571.429 214.286Z" fill="#FEFEFE"/>
<path d="M428.572 214.286C431.011 214.286 433.449 214.409 435.875 214.655C449.883 216.08 463.154 221.628 474.007 230.597C482.146 237.291 488.698 245.706 493.193 255.237C497.688 264.768 500.013 275.177 500.001 285.715C499.98 268.029 506.53 250.966 518.379 237.835C530.227 224.705 546.531 216.444 564.126 214.655C566.553 214.409 568.99 214.286 571.429 214.286C562.049 214.286 552.761 212.439 544.095 208.849C535.428 205.259 527.554 199.998 520.922 193.365C514.289 186.732 509.027 178.858 505.438 170.192C501.848 161.526 500.001 152.238 500.001 142.857C500.001 152.238 498.153 161.526 494.564 170.192C490.974 178.858 485.713 186.732 479.08 193.365C472.447 199.998 464.573 205.259 455.907 208.849C447.241 212.439 437.952 214.286 428.572 214.286Z" fill="#FEFEFE"/>
<path d="M428.571 214.286C428.571 195.342 421.046 177.174 407.65 163.778C394.255 150.383 376.087 142.857 357.143 142.857C357.143 161.802 364.668 179.97 378.064 193.365C391.459 206.761 409.627 214.286 428.571 214.286Z" fill="#FEFEFE"/>
<path d="M285.713 214.285C303.399 214.306 320.462 207.757 333.592 195.908C346.723 184.059 354.984 167.755 356.773 150.16C357.019 147.733 357.142 145.296 357.141 142.856C347.761 142.856 338.473 144.704 329.807 148.294C321.141 151.883 313.266 157.145 306.634 163.777C300.001 170.41 294.74 178.285 291.15 186.951C287.56 195.617 285.713 204.905 285.713 214.285Z" fill="#FEFEFE"/>
<path d="M357.143 285.715C357.144 283.276 357.021 280.838 356.775 278.411C356.295 273.682 355.343 269.013 353.932 264.474C353.236 262.237 352.436 260.05 351.53 257.911C344.271 240.789 330.641 227.158 313.518 219.899C311.381 218.997 309.194 218.196 306.955 217.498C302.416 216.086 297.747 215.134 293.018 214.655C290.591 214.409 288.154 214.286 285.715 214.286C285.715 233.23 293.24 251.398 306.636 264.794C320.031 278.189 338.199 285.715 357.143 285.715Z" fill="#FEFEFE"/>
<path d="M428.571 214.286C426.132 214.286 423.695 214.409 421.268 214.655C407.26 216.079 393.99 221.628 383.136 230.597C374.998 237.291 368.445 245.706 363.951 255.237C359.456 264.768 357.131 275.177 357.143 285.715C366.523 285.715 375.811 283.867 384.477 280.278C393.143 276.688 401.018 271.427 407.65 264.794C414.283 258.161 419.545 250.287 423.134 241.621C426.724 232.955 428.571 223.666 428.571 214.286Z" fill="#FEFEFE"/>
<path d="M353.929 164.097C351.176 172.936 346.727 181.154 340.831 188.292C334.137 196.43 325.721 202.983 316.19 207.477C306.66 211.972 296.25 214.297 285.713 214.285C288.152 214.285 290.589 214.408 293.016 214.654C297.745 215.133 302.414 216.085 306.953 217.497C309.19 218.191 311.378 218.992 313.516 219.898C330.639 227.157 344.269 240.788 351.528 257.911C352.431 260.047 353.232 262.234 353.93 264.473C355.341 269.012 356.293 273.681 356.773 278.411C357.019 280.837 357.142 283.275 357.141 285.714C357.121 268.028 363.671 250.965 375.519 237.834C387.368 224.704 403.672 216.443 421.267 214.654C423.694 214.408 426.131 214.285 428.57 214.285C409.626 214.285 391.458 206.76 378.062 193.364C364.667 179.969 357.141 161.801 357.141 142.856C357.142 145.296 357.019 147.733 356.773 150.16C356.293 154.889 355.34 159.558 353.929 164.097Z" fill="#FEFEFE"/>
<path d="M646.069 164.097C648.822 172.936 653.272 181.154 659.168 188.292C665.862 196.43 674.278 202.983 683.808 207.477C693.339 211.972 703.748 214.297 714.286 214.285C714.286 204.905 712.438 195.617 708.849 186.951C705.259 178.285 699.998 170.41 693.365 163.777C686.732 157.145 678.858 151.883 670.192 148.294C661.526 144.704 652.238 142.856 642.857 142.856C642.857 145.296 642.98 147.733 643.226 150.16C643.705 154.889 644.657 159.558 646.069 164.097Z" fill="#FEFEFE"/>
<path d="M571.428 214.286C590.372 214.286 608.54 206.761 621.936 193.365C635.331 179.97 642.857 161.802 642.857 142.857C623.912 142.857 605.744 150.383 592.349 163.778C578.953 177.174 571.428 195.342 571.428 214.286Z" fill="#FEFEFE"/>
<path d="M642.857 285.715C642.877 268.029 636.327 250.965 624.478 237.835C612.63 224.705 596.326 216.444 578.731 214.655C576.304 214.409 573.867 214.286 571.428 214.286C571.428 223.666 573.275 232.955 576.865 241.621C580.455 250.287 585.716 258.161 592.349 264.794C598.982 271.427 606.856 276.688 615.522 280.278C624.188 283.867 633.476 285.715 642.857 285.715Z" fill="#FEFEFE"/>
<path d="M714.286 214.286C711.847 214.286 709.41 214.409 706.983 214.655C702.254 215.134 697.585 216.086 693.045 217.498C690.809 218.192 688.621 218.993 686.483 219.899C669.361 227.159 655.731 240.789 648.473 257.911C647.57 260.048 646.769 262.235 646.071 264.474C644.659 269.013 643.707 273.682 643.228 278.411C642.982 280.838 642.859 283.276 642.859 285.715C661.803 285.714 679.971 278.188 693.366 264.793C706.761 251.398 714.286 233.23 714.286 214.286Z" fill="#FEFEFE"/>
<path d="M571.428 214.286C573.867 214.286 576.304 214.409 578.731 214.655C592.739 216.08 606.009 221.628 616.863 230.597C625.001 237.291 631.554 245.706 636.049 255.237C640.543 264.768 642.869 275.177 642.857 285.715C642.856 283.276 642.979 280.838 643.225 278.412C643.704 273.682 644.657 269.013 646.068 264.474C646.764 262.237 647.564 260.05 648.47 257.912C655.729 240.789 669.359 227.158 686.482 219.899C688.619 218.997 690.806 218.196 693.044 217.498C697.583 216.086 702.253 215.134 706.982 214.655C709.408 214.409 711.846 214.286 714.285 214.286C696.599 214.307 679.536 207.758 666.405 195.909C653.275 184.06 645.014 167.756 643.225 150.161C642.979 147.734 642.856 145.297 642.857 142.857C642.857 161.802 635.331 179.97 621.936 193.365C608.54 206.761 590.372 214.286 571.428 214.286Z" fill="#FEFEFE"/>
<path d="M214.285 285.714C214.285 304.658 221.811 322.826 235.206 336.221C248.602 349.617 266.77 357.142 285.714 357.142C285.714 338.198 278.188 320.03 264.793 306.635C251.397 293.239 233.229 285.714 214.285 285.714Z" fill="#FEFEFE"/>
<path d="M214.286 285.714C196.6 285.693 179.536 292.242 166.406 304.091C153.276 315.94 145.015 332.244 143.226 349.839C142.98 352.266 142.857 354.703 142.857 357.142C152.238 357.142 161.526 355.295 170.192 351.705C178.858 348.116 186.732 342.854 193.365 336.221C199.998 329.589 205.259 321.715 208.849 313.048C212.438 304.382 214.286 295.094 214.286 285.714Z" fill="#FEFEFE"/>
<path d="M146.069 378.383C146.764 380.62 147.565 382.808 148.471 384.946C155.73 402.068 169.36 415.699 186.483 422.958C188.619 423.861 190.807 424.662 193.045 425.36C197.584 426.771 202.254 427.723 206.983 428.202C209.409 428.449 211.847 428.572 214.286 428.571C214.286 419.191 212.438 409.903 208.849 401.237C205.259 392.57 199.998 384.696 193.365 378.063C186.732 371.431 178.858 366.169 170.192 362.58C161.526 358.99 152.238 357.143 142.857 357.143C142.857 359.582 142.98 362.019 143.226 364.446C143.705 369.175 144.657 373.844 146.069 378.383Z" fill="#FEFEFE"/>
<path d="M235.526 425.36C244.366 422.606 252.584 418.157 259.722 412.26C267.86 405.566 274.413 397.151 278.908 387.62C283.402 378.089 285.728 367.68 285.716 357.143C266.772 357.143 248.603 364.668 235.208 378.063C221.813 391.459 214.287 409.627 214.287 428.571C216.726 428.572 219.164 428.449 221.59 428.202C226.319 427.723 230.988 426.771 235.526 425.36Z" fill="#FEFEFE"/>
<path d="M214.285 571.429C214.285 580.809 216.133 590.097 219.722 598.763C223.312 607.429 228.573 615.304 235.206 621.936C241.839 628.569 249.713 633.83 258.379 637.42C267.045 641.01 276.334 642.857 285.714 642.857C285.714 623.913 278.188 605.745 264.793 592.35C251.397 578.954 233.229 571.429 214.285 571.429Z" fill="#FEFEFE"/>
<path d="M214.286 571.429C196.6 571.408 179.536 577.957 166.406 589.807C153.275 601.656 145.015 617.96 143.226 635.556C142.98 637.982 142.857 640.42 142.857 642.859C152.238 642.859 161.526 641.011 170.192 637.422C178.859 633.832 186.733 628.57 193.366 621.937C199.998 615.305 205.26 607.43 208.849 598.764C212.439 590.098 214.286 580.809 214.286 571.429Z" fill="#FEFEFE"/>
<path d="M146.069 664.097C148.822 672.936 153.272 681.154 159.168 688.292C165.862 696.43 174.278 702.983 183.808 707.477C193.339 711.972 203.748 714.297 214.286 714.285C214.286 704.905 212.438 695.617 208.849 686.951C205.259 678.285 199.998 670.41 193.365 663.777C186.732 657.145 178.858 651.883 170.192 648.294C161.526 644.704 152.238 642.856 142.857 642.856C142.857 645.296 142.98 647.733 143.226 650.16C143.705 654.889 144.657 659.558 146.069 664.097Z" fill="#FEFEFE"/>
<path d="M285.714 642.857C276.333 642.857 267.045 644.705 258.379 648.295C249.713 651.884 241.839 657.146 235.206 663.778C228.573 670.411 223.312 678.285 219.722 686.952C216.133 695.618 214.285 704.906 214.285 714.286C223.665 714.286 232.954 712.439 241.62 708.849C250.286 705.259 258.16 699.998 264.793 693.365C271.426 686.732 276.687 678.858 280.277 670.192C283.866 661.526 285.714 652.238 285.714 642.857Z" fill="#FEFEFE"/>
<path d="M412.261 740.278C406.414 733.191 399.261 727.294 391.19 722.905C382.911 718.407 373.82 715.601 364.446 714.653C362.019 714.407 359.582 714.284 357.143 714.284C357.143 723.664 358.99 732.953 362.58 741.619C366.169 750.285 371.431 758.159 378.064 764.792C384.696 771.425 392.571 776.686 401.237 780.276C409.903 783.865 419.191 785.713 428.571 785.713C428.596 769.13 422.827 753.059 412.261 740.278Z" fill="#FEFEFE"/>
<path d="M335.903 717.498C327.064 720.251 318.846 724.7 311.708 730.597C303.57 737.291 297.018 745.706 292.523 755.237C288.028 764.768 285.703 775.177 285.715 785.715C303.401 785.736 320.464 779.186 333.595 767.337C346.725 755.488 354.986 739.185 356.775 721.589C357.021 719.163 357.144 716.725 357.143 714.286C354.704 714.286 352.267 714.409 349.84 714.655C345.111 715.134 340.442 716.086 335.903 717.498Z" fill="#FEFEFE"/>
<path d="M353.932 835.903C351.179 827.064 346.729 818.846 340.833 811.708C334.139 803.57 325.723 797.017 316.192 792.523C306.661 788.028 296.252 785.703 285.715 785.715C285.715 804.659 293.24 822.827 306.636 836.222C320.031 849.618 338.199 857.143 357.143 857.143C357.144 854.704 357.021 852.267 356.775 849.84C356.295 845.111 355.343 840.442 353.932 835.903Z" fill="#FEFEFE"/>
<path d="M428.571 785.714C419.191 785.714 409.903 787.561 401.237 791.151C392.571 794.741 384.696 800.002 378.064 806.635C371.431 813.267 366.169 821.142 362.58 829.808C358.99 838.474 357.143 847.762 357.143 857.142C366.523 857.142 375.811 855.295 384.477 851.705C393.143 848.116 401.018 842.854 407.65 836.222C414.283 829.589 419.545 821.715 423.134 813.048C426.724 804.382 428.571 795.094 428.571 785.714Z" fill="#FEFEFE"/>
<path d="M428.571 785.715C419.191 785.715 409.902 783.867 401.236 780.278C392.57 776.688 384.696 771.427 378.063 764.794C371.43 758.161 366.169 750.287 362.579 741.621C358.989 732.955 357.142 723.666 357.142 714.286C357.142 716.725 357.019 719.163 356.773 721.589C355.349 735.597 349.802 748.868 340.833 759.723C334.139 767.861 325.723 774.413 316.192 778.908C306.661 783.403 296.252 785.728 285.715 785.716C303.401 785.695 320.464 792.244 333.595 804.093C346.725 815.942 354.986 832.246 356.775 849.841C357.021 852.268 357.144 854.705 357.143 857.144C357.143 847.764 358.991 838.476 362.58 829.81C366.169 821.144 371.431 813.269 378.063 806.636C384.696 800.004 392.57 794.742 401.236 791.152C409.902 787.562 419.191 785.715 428.571 785.715Z" fill="#FEFEFE"/>
<path d="M555.118 740.278C549.271 733.192 542.118 727.294 534.047 722.906C525.768 718.407 516.677 715.602 507.303 714.654C504.877 714.408 502.439 714.285 500 714.286C500 733.23 507.525 751.398 520.921 764.794C534.316 778.189 552.484 785.715 571.428 785.715C571.453 769.131 565.684 753.06 555.118 740.278Z" fill="#FEFEFE"/>
<path d="M478.76 717.498C469.921 720.251 461.703 724.7 454.566 730.597C446.427 737.291 439.875 745.706 435.38 755.237C430.885 764.768 428.56 775.177 428.572 785.715C447.516 785.715 465.684 778.189 479.08 764.794C492.475 751.398 500.001 733.23 500.001 714.286C497.562 714.286 495.124 714.409 492.698 714.655C487.968 715.134 483.299 716.086 478.76 717.498Z" fill="#FEFEFE"/>
<path d="M428.572 785.714C428.572 804.658 436.098 822.826 449.493 836.221C462.889 849.617 481.057 857.142 500.001 857.142C500.001 838.198 492.475 820.03 479.08 806.635C465.684 793.239 447.516 785.714 428.572 785.714Z" fill="#FEFEFE"/>
<path d="M571.428 785.714C552.484 785.714 534.316 793.239 520.921 806.635C507.525 820.03 500 838.198 500 857.142C518.944 857.142 537.112 849.617 550.508 836.221C563.903 822.826 571.428 804.658 571.428 785.714Z" fill="#FEFEFE"/>
<path d="M697.975 740.278C692.128 733.191 684.975 727.294 676.904 722.905C668.626 718.407 659.534 715.601 650.161 714.653C647.734 714.407 645.296 714.284 642.857 714.284C642.857 716.723 642.98 719.161 643.226 721.587C644.65 735.596 650.197 748.867 659.167 759.722C665.861 767.86 674.276 774.413 683.807 778.908C693.338 783.402 703.747 785.727 714.285 785.715C714.31 769.132 708.541 753.06 697.975 740.278Z" fill="#FEFEFE"/>
<path d="M621.616 717.498C612.777 720.251 604.559 724.7 597.421 730.597C589.283 737.291 582.73 745.706 578.236 755.237C573.741 764.768 571.416 775.177 571.428 785.715C580.808 785.715 590.096 783.867 598.762 780.278C607.429 776.688 615.303 771.427 621.936 764.794C628.568 758.161 633.83 750.287 637.419 741.621C641.009 732.955 642.857 723.666 642.857 714.286C640.418 714.286 637.98 714.409 635.553 714.655C630.824 715.134 626.155 716.086 621.616 717.498Z" fill="#FEFEFE"/>
<path d="M571.428 785.714C571.428 795.094 573.275 804.382 576.865 813.048C580.455 821.715 585.716 829.589 592.349 836.222C598.982 842.854 606.856 848.116 615.522 851.705C624.188 855.295 633.476 857.142 642.857 857.142C642.857 847.762 641.009 838.474 637.419 829.808C633.83 821.142 628.568 813.267 621.936 806.635C615.303 800.002 607.429 794.741 598.762 791.151C590.096 787.561 580.808 785.714 571.428 785.714Z" fill="#FEFEFE"/>
<path d="M714.286 785.714C696.6 785.693 679.536 792.242 666.406 804.091C653.276 815.94 645.015 832.244 643.226 849.839C642.98 852.266 642.857 854.703 642.857 857.142C652.238 857.142 661.526 855.295 670.192 851.705C678.858 848.116 686.732 842.854 693.365 836.221C699.998 829.589 705.259 821.714 708.849 813.048C712.438 804.382 714.286 795.094 714.286 785.714Z" fill="#FEFEFE"/>
<path d="M646.068 835.903C648.821 827.063 653.271 818.846 659.167 811.708C665.861 803.57 674.277 797.017 683.808 792.523C693.338 788.028 703.747 785.703 714.285 785.715C696.599 785.736 679.536 779.186 666.405 767.337C653.275 755.488 645.014 739.185 643.225 721.589C642.979 719.163 642.856 716.725 642.857 714.286C642.857 723.666 641.009 732.955 637.419 741.621C633.83 750.287 628.568 758.161 621.936 764.794C615.303 771.427 607.429 776.688 598.762 780.278C590.096 783.867 580.808 785.715 571.428 785.715C580.808 785.715 590.096 787.562 598.762 791.152C607.429 794.741 615.303 800.003 621.936 806.635C628.568 813.268 633.83 821.142 637.419 829.809C641.009 838.475 642.857 847.763 642.857 857.143C642.856 854.704 642.979 852.267 643.225 849.84C643.704 845.111 644.657 840.442 646.068 835.903Z" fill="#FEFEFE"/>
<path d="M853.932 621.616C851.178 612.777 846.729 604.56 840.833 597.422C833.499 588.53 824.129 581.539 813.518 577.04C804.72 573.323 795.265 571.414 785.715 571.427C785.715 580.807 787.562 590.095 791.152 598.761C794.742 607.427 800.003 615.302 806.636 621.934C813.269 628.567 821.143 633.829 829.809 637.418C838.475 641.008 847.763 642.855 857.144 642.855C857.144 640.416 857.021 637.979 856.775 635.552C856.296 630.824 855.343 626.155 853.932 621.616Z" fill="#FEFEFE"/>
<path d="M714.285 642.857C733.229 642.857 751.397 635.332 764.793 621.936C778.188 608.541 785.714 590.373 785.714 571.429C776.334 571.429 767.045 573.276 758.379 576.866C749.713 580.455 741.839 585.717 735.206 592.35C728.573 598.982 723.312 606.857 719.722 615.523C716.133 624.189 714.285 633.477 714.285 642.857Z" fill="#FEFEFE"/>
<path d="M785.714 714.286C785.714 704.906 783.866 695.618 780.277 686.952C776.687 678.285 771.426 670.411 764.793 663.778C758.16 657.146 750.286 651.884 741.62 648.295C732.954 644.705 723.665 642.857 714.285 642.857C714.285 652.238 716.133 661.526 719.722 670.192C723.312 678.858 728.573 686.732 735.206 693.365C741.839 699.998 749.713 705.259 758.379 708.849C767.045 712.439 776.334 714.286 785.714 714.286Z" fill="#FEFEFE"/>
<path d="M785.715 714.286C802.298 714.31 818.369 708.541 831.15 697.975C838.237 692.129 844.134 684.976 848.522 676.905C853.021 668.626 855.827 659.535 856.775 650.161C857.021 647.734 857.144 645.297 857.144 642.857C838.2 642.857 820.031 650.383 806.636 663.778C793.24 677.174 785.715 695.342 785.715 714.286Z" fill="#FEFEFE"/>
<path d="M186.483 862.755C195.281 859.039 204.736 857.13 214.286 857.142C196.6 857.163 179.537 850.614 166.407 838.765C153.276 826.916 145.015 810.612 143.227 793.017C142.98 790.59 142.857 788.153 142.858 785.714C142.874 802.585 136.89 818.911 125.977 831.777C139.21 846.683 153.317 860.79 168.223 874.024C168.439 873.841 168.633 873.633 168.851 873.453C174.18 869.053 180.119 865.45 186.483 862.755Z" fill="#FEFEFE"/>
<path d="M143.226 206.982C144.65 192.974 150.198 179.704 159.167 168.85C165.861 160.712 174.276 154.159 183.807 149.664C193.338 145.17 203.747 142.845 214.285 142.856C197.702 142.881 181.632 137.111 168.851 126.546C168.633 126.366 168.439 126.158 168.223 125.976C153.317 139.209 139.21 153.316 125.977 168.222C136.89 181.088 142.873 197.415 142.857 214.285C142.857 211.846 142.98 209.409 143.226 206.982Z" fill="#FEFEFE"/>
<path d="M813.518 137.243C804.721 140.96 795.265 142.869 785.715 142.857C802.298 142.832 818.369 148.601 831.15 159.166C838.237 165.013 844.134 172.166 848.522 180.237C853.021 188.516 855.827 197.607 856.775 206.981C857.021 209.408 857.144 211.845 857.144 214.284C857.128 197.414 863.111 181.087 874.024 168.221C860.791 153.315 846.684 139.208 831.778 125.975C831.561 126.157 831.368 126.365 831.15 126.545C825.821 130.945 819.882 134.549 813.518 137.243Z" fill="#FEFEFE"/>
<path d="M856.775 793.017C855.35 807.025 849.802 820.295 840.833 831.149C833.499 840.04 824.129 847.031 813.518 851.529C804.721 855.246 795.265 857.155 785.715 857.142C802.298 857.118 818.369 862.887 831.15 873.453C831.368 873.633 831.561 873.841 831.778 874.024C846.684 860.79 860.791 846.683 874.025 831.777C863.111 818.911 857.128 802.585 857.144 785.714C857.144 788.153 857.021 790.59 856.775 793.017Z" fill="#FEFEFE"/>
<path d="M146.068 335.903C148.821 327.064 153.271 318.846 159.167 311.709C165.861 303.57 174.277 297.018 183.808 292.523C193.338 288.028 203.747 285.703 214.285 285.715C196.599 285.736 179.535 279.187 166.405 267.338C153.275 255.489 145.014 239.185 143.225 221.589C142.979 219.163 142.856 216.725 142.857 214.286C142.857 223.666 141.009 232.955 137.419 241.621C133.83 250.287 128.568 258.161 121.936 264.794C115.303 271.427 107.428 276.688 98.7623 280.278C90.0962 283.867 80.8079 285.715 71.4277 285.715C80.8079 285.715 90.0962 287.562 98.7623 291.152C107.428 294.741 115.303 300.003 121.936 306.635C128.568 313.268 133.83 321.142 137.419 329.809C141.009 338.475 142.857 347.763 142.857 357.143C142.856 354.704 142.979 352.267 143.225 349.84C143.704 345.111 144.657 340.442 146.068 335.903Z" fill="#FEFEFE"/>
<path d="M146.068 478.759C148.821 469.92 153.271 461.702 159.168 454.564C165.861 446.426 174.277 439.874 183.808 435.379C193.339 430.884 203.748 428.559 214.285 428.571C211.846 428.572 209.409 428.449 206.982 428.202C202.253 427.723 197.584 426.771 193.045 425.36C190.808 424.664 188.62 423.864 186.482 422.958C169.36 415.699 155.73 402.068 148.472 384.946C147.569 382.809 146.768 380.622 146.07 378.383C144.659 373.844 143.706 369.175 143.227 364.446C142.981 362.019 142.858 359.582 142.859 357.143C142.879 374.829 136.33 391.892 124.481 405.022C112.632 418.153 96.3283 426.413 78.7328 428.202C76.3062 428.449 73.8687 428.572 71.4297 428.571C90.3735 428.572 108.541 436.097 121.936 449.493C135.332 462.888 142.857 481.056 142.857 500C142.856 497.561 142.979 495.123 143.226 492.697C143.705 487.968 144.657 483.298 146.068 478.759Z" fill="#FEFEFE"/>
<path d="M146.068 764.474C146.764 762.237 147.564 760.05 148.47 757.912C155.729 740.789 169.359 727.158 186.482 719.899C188.618 718.997 190.806 718.196 193.044 717.498C197.583 716.086 202.253 715.134 206.982 714.655C209.408 714.409 211.846 714.286 214.285 714.286C196.599 714.307 179.536 707.758 166.405 695.909C153.275 684.06 145.014 667.756 143.225 650.161C142.979 647.734 142.856 645.297 142.857 642.857C142.857 661.802 135.331 679.97 121.936 693.365C108.54 706.761 90.3718 714.286 71.4277 714.286C73.8668 714.286 76.3043 714.409 78.7309 714.655C92.7389 716.08 106.009 721.628 116.863 730.597C125.001 737.291 131.554 745.706 136.049 755.237C140.543 764.768 142.869 775.177 142.857 785.715C142.856 783.276 142.979 780.838 143.225 778.412C143.704 773.682 144.657 769.013 146.068 764.474Z" fill="#FEFEFE"/>
<path d="M146.068 621.616C148.821 612.777 153.271 604.559 159.167 597.422C165.861 589.284 174.277 582.731 183.808 578.236C193.338 573.742 203.747 571.416 214.285 571.428C196.599 571.449 179.536 564.9 166.405 553.051C153.275 541.202 145.014 524.899 143.225 507.303C142.979 504.877 142.856 502.439 142.857 500C142.857 509.38 141.009 518.668 137.419 527.335C133.83 536.001 128.568 543.875 121.936 550.508C115.303 557.14 107.428 562.402 98.7623 565.991C90.0962 569.581 80.8079 571.429 71.4277 571.428C90.3718 571.428 108.54 578.954 121.935 592.349C135.331 605.745 142.856 623.913 142.857 642.857C142.856 640.418 142.979 637.98 143.225 635.554C143.704 630.825 144.657 626.155 146.068 621.616Z" fill="#FEFEFE"/>
<path d="M853.931 235.527C851.178 244.366 846.729 252.584 840.833 259.722C833.499 268.614 824.129 275.606 813.518 280.104C804.721 283.821 795.265 285.73 785.715 285.718C802.298 285.693 818.369 291.463 831.15 302.028C838.237 307.875 844.134 315.028 848.523 323.099C853.021 331.378 855.827 340.469 856.775 349.843C857.021 352.269 857.144 354.707 857.144 357.146C857.144 347.766 858.991 338.478 862.581 329.812C866.17 321.145 871.432 313.271 878.065 306.638C884.697 300.006 892.572 294.744 901.238 291.155C909.904 287.565 919.192 285.718 928.572 285.718C919.192 285.718 909.904 283.87 901.238 280.28C892.572 276.691 884.697 271.429 878.065 264.797C871.432 258.164 866.17 250.29 862.581 241.624C858.991 232.957 857.144 223.669 857.144 214.289C857.144 216.728 857.021 219.166 856.775 221.592C856.295 226.32 855.342 230.988 853.931 235.527Z" fill="#FEFEFE"/>
<path d="M907.33 425.36C898.491 422.606 890.273 418.157 883.135 412.26C874.997 405.567 868.444 397.151 863.949 387.62C859.455 378.089 857.13 367.68 857.142 357.143C857.142 359.582 857.019 362.019 856.773 364.446C856.294 369.175 855.342 373.844 853.931 378.383C853.235 380.62 852.434 382.808 851.529 384.946C844.27 402.069 830.639 415.699 813.516 422.958C811.38 423.861 809.192 424.662 806.954 425.36C802.415 426.771 797.745 427.723 793.016 428.202C790.589 428.449 788.152 428.572 785.713 428.571C802.296 428.547 818.367 434.316 831.148 444.882C838.235 450.728 844.132 457.882 848.521 465.953C853.019 474.231 855.825 483.323 856.773 492.697C857.019 495.123 857.142 497.561 857.142 500C857.142 490.62 858.99 481.331 862.579 472.665C866.169 463.999 871.43 456.125 878.063 449.492C884.696 442.859 892.57 437.598 901.236 434.008C909.902 430.419 919.19 428.571 928.57 428.571C926.131 428.572 923.694 428.449 921.267 428.202C916.538 427.723 911.869 426.771 907.33 425.36Z" fill="#FEFEFE"/>
<path d="M853.932 664.097C851.179 672.936 846.729 681.154 840.833 688.292C833.499 697.184 824.129 704.175 813.518 708.674C804.72 712.391 795.265 714.3 785.715 714.287C788.154 714.287 790.591 714.41 793.018 714.656C797.747 715.135 802.417 716.087 806.956 717.499C809.192 718.193 811.379 718.994 813.518 719.9C830.641 727.159 844.272 740.79 851.53 757.913C852.433 760.049 853.234 762.236 853.933 764.475C855.344 769.014 856.296 773.683 856.775 778.413C857.021 780.839 857.144 783.277 857.144 785.716C857.124 768.03 863.673 750.967 875.522 737.837C887.37 724.706 903.674 716.445 921.269 714.656C923.696 714.41 926.133 714.287 928.572 714.287C919.192 714.287 909.904 712.44 901.238 708.85C892.572 705.26 884.698 699.999 878.065 693.366C871.432 686.733 866.171 678.859 862.581 670.193C858.991 661.527 857.144 652.239 857.144 642.858C857.144 645.298 857.021 647.735 856.775 650.162C856.296 654.89 855.343 659.559 853.932 664.097Z" fill="#FEFEFE"/>
<path d="M853.932 521.241C851.178 530.08 846.729 538.297 840.833 545.435C833.499 554.327 824.129 561.318 813.518 565.817C804.72 569.534 795.265 571.443 785.715 571.43C802.298 571.406 818.369 577.175 831.15 587.741C838.237 593.587 844.134 600.741 848.522 608.812C853.021 617.09 855.827 626.182 856.775 635.556C857.021 637.982 857.144 640.42 857.144 642.859C857.144 633.479 858.991 624.19 862.581 615.524C866.17 606.858 871.432 598.984 878.065 592.351C884.697 585.718 892.572 580.457 901.238 576.867C909.904 573.278 919.192 571.43 928.572 571.43C919.192 571.43 909.903 569.583 901.237 565.993C892.571 562.403 884.697 557.142 878.064 550.509C871.431 543.876 866.17 536.001 862.58 527.335C858.991 518.669 857.143 509.38 857.144 500C857.144 502.439 857.021 504.877 856.775 507.303C856.296 512.032 855.343 516.701 853.932 521.241Z" fill="#FEFEFE"/>
<path d="M285.714 642.857C285.714 652.238 283.866 661.526 280.277 670.192C276.687 678.858 271.426 686.732 264.793 693.365C258.16 699.998 250.286 705.259 241.62 708.849C232.954 712.439 223.665 714.286 214.285 714.286C216.724 714.286 219.162 714.409 221.588 714.655C235.597 716.079 248.868 721.627 259.722 730.597C267.86 737.291 274.412 745.706 278.907 755.237C283.402 764.768 285.727 775.177 285.715 785.715C285.695 768.029 292.244 750.966 304.093 737.835C315.942 724.705 332.245 716.444 349.84 714.655C352.267 714.409 354.704 714.286 357.143 714.286C347.763 714.286 338.475 712.439 329.808 708.849C321.142 705.26 313.268 699.998 306.635 693.366C300.002 686.733 294.741 678.859 291.151 670.192C287.561 661.526 285.714 652.238 285.714 642.857Z" fill="#FEFEFE"/>
<path d="M642.857 714.286C645.296 714.286 647.734 714.409 650.161 714.655C664.168 716.08 677.439 721.628 688.292 730.597C696.431 737.291 702.983 745.706 707.478 755.237C711.973 764.768 714.298 775.177 714.286 785.715C714.265 768.029 720.815 750.966 732.664 737.835C744.513 724.705 760.816 716.444 778.411 714.655C780.838 714.409 783.275 714.286 785.714 714.286C776.334 714.286 767.046 712.439 758.38 708.849C749.714 705.259 741.839 699.998 735.207 693.365C728.574 686.732 723.313 678.858 719.723 670.192C716.133 661.526 714.286 652.238 714.286 642.857C714.286 652.238 712.438 661.526 708.849 670.192C705.259 678.858 699.998 686.732 693.365 693.365C686.732 699.998 678.858 705.259 670.192 708.849C661.526 712.439 652.238 714.286 642.857 714.286Z" fill="#FEFEFE"/>
<path d="M428.571 642.857C428.571 661.802 421.046 679.97 407.65 693.365C394.255 706.761 376.087 714.286 357.143 714.286C359.582 714.286 362.019 714.409 364.446 714.655C378.454 716.08 391.724 721.628 402.578 730.597C410.716 737.291 417.269 745.706 421.764 755.237C426.258 764.768 428.583 775.177 428.571 785.715C428.551 768.029 435.1 750.966 446.949 737.835C458.798 724.705 475.102 716.444 492.697 714.655C495.123 714.409 497.561 714.286 500 714.286C490.62 714.286 481.331 712.439 472.665 708.849C463.999 705.259 456.125 699.998 449.492 693.365C442.859 686.732 437.598 678.858 434.008 670.192C430.419 661.526 428.571 652.238 428.571 642.857Z" fill="#FEFEFE"/>
<path d="M571.428 642.857C571.429 652.238 569.581 661.526 565.991 670.192C562.402 678.858 557.14 686.732 550.508 693.365C543.875 699.998 536.001 705.259 527.335 708.849C518.668 712.439 509.38 714.286 500 714.286C502.439 714.286 504.877 714.409 507.303 714.655C521.311 716.08 534.581 721.628 545.435 730.597C553.573 737.291 560.126 745.706 564.621 755.237C569.115 764.768 571.44 775.177 571.428 785.715C571.408 768.028 577.958 750.965 589.807 737.835C601.656 724.705 617.96 716.444 635.556 714.655C637.982 714.409 640.42 714.286 642.859 714.286C633.478 714.286 624.19 712.439 615.524 708.849C606.857 705.26 598.983 699.999 592.35 693.366C585.717 686.733 580.455 678.859 576.866 670.192C573.276 661.526 571.428 652.238 571.428 642.857Z" fill="#FEFEFE"/>
<path d="M357.142 428.571C354.703 428.572 352.266 428.449 349.839 428.202C335.831 426.778 322.561 421.23 311.707 412.26C303.569 405.566 297.016 397.151 292.522 387.62C288.027 378.089 285.702 367.68 285.714 357.143C285.735 374.829 279.185 391.892 267.336 405.022C255.487 418.153 239.184 426.413 221.588 428.202C219.162 428.449 216.724 428.572 214.285 428.571C223.665 428.571 232.954 430.419 241.62 434.008C250.286 437.598 258.16 442.859 264.793 449.492C271.426 456.125 276.687 463.999 280.277 472.665C283.866 481.331 285.714 490.62 285.714 500C285.714 490.62 287.561 481.331 291.151 472.665C294.74 463.999 300.002 456.125 306.634 449.492C313.267 442.859 321.141 437.598 329.808 434.008C338.474 430.419 347.762 428.571 357.142 428.571Z" fill="#FEFEFE"/>
<path d="M764.474 425.36C755.635 422.606 747.417 418.157 740.279 412.26C732.141 405.566 725.589 397.151 721.094 387.62C716.599 378.089 714.274 367.68 714.286 357.143C714.307 374.829 707.757 391.892 695.909 405.022C684.06 418.153 667.756 426.413 650.161 428.202C647.734 428.449 645.296 428.572 642.857 428.571C652.238 428.571 661.526 430.419 670.192 434.008C678.858 437.598 686.732 442.859 693.365 449.492C699.998 456.125 705.259 463.999 708.849 472.665C712.438 481.331 714.286 490.62 714.286 500C714.286 490.62 716.133 481.331 719.723 472.665C723.313 463.999 728.574 456.125 735.207 449.492C741.839 442.859 749.714 437.598 758.38 434.008C767.046 430.419 776.334 428.571 785.714 428.571C783.275 428.572 780.838 428.449 778.411 428.202C773.682 427.723 769.013 426.771 764.474 425.36Z" fill="#FEFEFE"/>
<path d="M357.143 428.571C357.143 447.515 364.668 465.684 378.064 479.079C391.459 492.475 409.627 500 428.571 500C428.571 481.056 421.046 462.888 407.65 449.492C394.255 436.097 376.087 428.571 357.143 428.571Z" fill="#FEFEFE"/>
<path d="M331.15 483.689C338.236 477.843 344.134 470.69 348.522 462.619C353.021 454.34 355.827 445.249 356.775 435.875C357.021 433.448 357.144 431.01 357.143 428.571C347.763 428.571 338.475 430.419 329.809 434.009C321.143 437.598 313.268 442.86 306.636 449.492C300.003 456.125 294.742 463.999 291.152 472.666C287.562 481.332 285.715 490.62 285.715 500C302.298 500.024 318.369 494.255 331.15 483.689Z" fill="#FEFEFE"/>
<path d="M357.143 571.429C357.144 568.989 357.021 566.552 356.775 564.125C355.35 550.118 349.802 536.847 340.833 525.993C334.139 517.855 325.723 511.303 316.192 506.808C306.661 502.313 296.252 499.988 285.715 500C285.715 518.944 293.24 537.112 306.636 550.508C320.031 563.903 338.199 571.429 357.143 571.429Z" fill="#FEFEFE"/>
<path d="M428.571 500C419.191 500 409.903 501.847 401.237 505.437C392.571 509.027 384.696 514.288 378.064 520.921C371.431 527.554 366.169 535.428 362.58 544.094C358.99 552.76 357.143 562.048 357.143 571.428C366.523 571.429 375.811 569.581 384.477 565.991C393.143 562.402 401.018 557.14 407.65 550.508C414.283 543.875 419.545 536.001 423.134 527.335C426.724 518.668 428.571 509.38 428.571 500Z" fill="#FEFEFE"/>
<path d="M331.15 516.311C338.236 522.158 344.134 529.311 348.522 537.382C353.021 545.66 355.827 554.751 356.775 564.125C357.021 566.552 357.144 568.99 357.143 571.429C357.143 562.048 358.991 552.76 362.581 544.094C366.17 535.428 371.432 527.554 378.064 520.921C384.697 514.288 392.571 509.027 401.238 505.437C409.904 501.848 419.192 500 428.572 500C409.628 500 391.46 492.475 378.064 479.079C364.669 465.684 357.143 447.515 357.143 428.571C357.144 431.01 357.021 433.448 356.775 435.875C355.35 449.883 349.802 463.153 340.833 474.007C334.139 482.145 325.723 488.698 316.192 493.192C306.661 497.687 296.252 500.012 285.715 500C302.298 499.976 318.369 505.745 331.15 516.311Z" fill="#FEFEFE"/>
<path d="M642.857 428.571C642.857 431.01 642.98 433.448 643.226 435.875C644.651 449.883 650.199 463.153 659.168 474.007C665.862 482.145 674.278 488.698 683.808 493.192C693.339 497.687 703.748 500.012 714.286 500C714.286 490.62 712.438 481.332 708.849 472.666C705.259 463.999 699.998 456.125 693.365 449.492C686.732 442.86 678.858 437.598 670.192 434.009C661.526 430.419 652.238 428.571 642.857 428.571Z" fill="#FEFEFE"/>
<path d="M571.428 500C590.372 500 608.54 492.475 621.936 479.079C635.331 465.684 642.857 447.515 642.857 428.571C623.912 428.571 605.744 436.097 592.349 449.492C578.953 462.888 571.428 481.056 571.428 500Z" fill="#FEFEFE"/>
<path d="M642.857 571.428C642.857 562.048 641.009 552.76 637.419 544.094C633.83 535.428 628.568 527.554 621.936 520.921C615.303 514.288 607.429 509.027 598.762 505.437C590.096 501.847 580.808 500 571.428 500C571.428 509.38 573.275 518.668 576.865 527.335C580.455 536.001 585.716 543.875 592.349 550.508C598.982 557.14 606.856 562.402 615.522 565.991C624.188 569.581 633.476 571.429 642.857 571.428Z" fill="#FEFEFE"/>
<path d="M668.851 516.311C661.764 522.157 655.867 529.311 651.478 537.382C646.979 545.66 644.174 554.751 643.226 564.125C642.98 566.552 642.857 568.989 642.857 571.429C652.238 571.429 661.526 569.581 670.192 565.991C678.858 562.402 686.732 557.14 693.365 550.508C699.998 543.875 705.259 536.001 708.849 527.335C712.438 518.668 714.286 509.38 714.286 500C697.703 499.976 681.632 505.745 668.851 516.311Z" fill="#FEFEFE"/>
<path d="M668.85 483.689C661.764 477.843 655.866 470.69 651.477 462.619C646.979 454.34 644.173 445.249 643.225 435.875C642.979 433.448 642.856 431.01 642.857 428.571C642.857 447.515 635.331 465.684 621.936 479.079C608.54 492.475 590.372 500 571.428 500C580.808 500 590.096 501.848 598.762 505.437C607.429 509.027 615.303 514.288 621.936 520.921C628.568 527.554 633.83 535.428 637.419 544.094C641.009 552.76 642.857 562.048 642.857 571.429C642.856 568.99 642.979 566.552 643.225 564.125C644.65 550.118 650.198 536.847 659.167 525.994C665.861 517.855 674.277 511.303 683.808 506.808C693.338 502.313 703.747 499.988 714.285 500C697.702 500.025 681.631 494.255 668.85 483.689Z" fill="#FEFEFE"/>
<path d="M571.428 357.142C571.428 338.198 563.903 320.03 550.508 306.635C537.112 293.239 518.944 285.714 500 285.714C500 304.658 507.525 322.826 520.921 336.221C534.316 349.617 552.484 357.142 571.428 357.142Z" fill="#FEFEFE"/>
<path d="M428.572 357.142C447.516 357.142 465.684 349.617 479.08 336.221C492.475 322.826 500.001 304.658 500.001 285.714C481.057 285.714 462.889 293.239 449.493 306.635C436.098 320.03 428.572 338.198 428.572 357.142Z" fill="#FEFEFE"/>
<path d="M444.883 402.578C450.73 409.664 457.883 415.562 465.954 419.95C474.232 424.449 483.324 427.254 492.698 428.202C495.124 428.449 497.562 428.572 500.001 428.571C500.001 409.627 492.475 391.459 479.08 378.063C465.684 364.668 447.516 357.143 428.572 357.143C428.548 373.726 434.317 389.796 444.883 402.578Z" fill="#FEFEFE"/>
<path d="M521.241 425.36C530.08 422.606 538.298 418.157 545.435 412.26C553.573 405.566 560.126 397.151 564.621 387.62C569.115 378.089 571.44 367.68 571.428 357.143C552.484 357.143 534.316 364.668 520.921 378.063C507.525 391.459 500 409.627 500 428.571C502.439 428.572 504.877 428.449 507.303 428.202C512.032 427.723 516.702 426.771 521.241 425.36Z" fill="#FEFEFE"/>
<path d="M646.069 306.954C648.822 315.794 653.272 324.011 659.168 331.149C665.862 339.287 674.278 345.84 683.808 350.334C693.339 354.829 703.748 357.154 714.286 357.142C714.286 338.198 706.76 320.03 693.365 306.635C679.97 293.239 661.801 285.714 642.857 285.714C642.857 288.153 642.98 290.59 643.226 293.017C643.705 297.746 644.657 302.415 646.069 306.954Z" fill="#FEFEFE"/>
<path d="M571.428 357.142C580.808 357.142 590.096 355.295 598.762 351.705C607.429 348.116 615.303 342.854 621.936 336.222C628.568 329.589 633.83 321.715 637.419 313.048C641.009 304.382 642.857 295.094 642.857 285.714C633.476 285.714 624.188 287.561 615.522 291.151C606.856 294.741 598.982 300.002 592.349 306.635C585.716 313.267 580.455 321.142 576.865 329.808C573.275 338.474 571.428 347.762 571.428 357.142Z" fill="#FEFEFE"/>
<path d="M571.428 357.143C571.407 374.829 577.957 391.893 589.806 405.023C601.655 418.153 617.959 426.414 635.555 428.202C637.981 428.449 640.419 428.572 642.858 428.571C642.858 419.191 641.01 409.902 637.421 401.236C633.831 392.57 628.569 384.696 621.936 378.063C615.303 371.43 607.429 366.169 598.763 362.579C590.097 358.99 580.808 357.142 571.428 357.143Z" fill="#FEFEFE"/>
<path d="M668.851 373.453C661.764 379.3 655.867 386.453 651.478 394.524C646.979 402.803 644.174 411.894 643.226 421.268C642.98 423.695 642.857 426.132 642.857 428.571C645.296 428.572 647.734 428.449 650.161 428.202C664.168 426.778 677.439 421.23 688.292 412.26C696.431 405.566 702.983 397.151 707.478 387.62C711.973 378.089 714.298 367.68 714.286 357.143C697.703 357.118 681.632 362.888 668.851 373.453Z" fill="#FEFEFE"/>
<path d="M571.428 357.142C590.372 357.142 608.54 364.668 621.935 378.063C635.331 391.459 642.856 409.627 642.857 428.571C642.856 426.132 642.979 423.694 643.225 421.268C644.65 407.26 650.198 393.989 659.167 383.136C665.861 374.997 674.277 368.445 683.808 363.95C693.338 359.455 703.747 357.13 714.285 357.142C696.599 357.163 679.536 350.614 666.405 338.765C653.275 326.916 645.014 310.612 643.225 293.017C642.979 290.59 642.856 288.153 642.857 285.714C642.857 295.094 641.009 304.382 637.419 313.048C633.83 321.715 628.568 329.589 621.936 336.222C615.303 342.854 607.429 348.116 598.762 351.705C590.096 355.295 580.808 357.142 571.428 357.142Z" fill="#FEFEFE"/>
<path d="M500 571.429C500 580.809 501.848 590.097 505.437 598.763C509.027 607.429 514.288 615.304 520.921 621.936C527.554 628.569 535.428 633.83 544.094 637.42C552.76 641.01 562.048 642.857 571.428 642.857C571.428 623.913 563.903 605.745 550.508 592.35C537.112 578.954 518.944 571.429 500 571.429Z" fill="#FEFEFE"/>
<path d="M428.572 642.857C447.516 642.857 465.684 635.332 479.08 621.936C492.475 608.541 500.001 590.373 500.001 571.429C481.057 571.429 462.889 578.954 449.493 592.35C436.098 605.745 428.572 623.913 428.572 642.857Z" fill="#FEFEFE"/>
<path d="M428.572 642.857C428.572 652.238 430.42 661.526 434.009 670.192C437.599 678.858 442.86 686.732 449.493 693.365C456.126 699.998 464 705.259 472.666 708.849C481.332 712.439 490.621 714.286 500.001 714.286C500.001 704.906 498.153 695.618 494.564 686.952C490.974 678.285 485.713 670.411 479.08 663.778C472.447 657.146 464.573 651.884 455.907 648.295C447.241 644.705 437.952 642.857 428.572 642.857Z" fill="#FEFEFE"/>
<path d="M571.428 642.857C562.048 642.857 552.76 644.705 544.094 648.295C535.428 651.884 527.554 657.146 520.921 663.778C514.288 670.411 509.027 678.285 505.437 686.952C501.847 695.618 500 704.906 500 714.286C509.38 714.286 518.668 712.439 527.335 708.849C536.001 705.259 543.875 699.998 550.508 693.365C557.14 686.732 562.402 678.858 565.991 670.192C569.581 661.526 571.429 652.238 571.428 642.857Z" fill="#FEFEFE"/>
<path d="M642.857 571.429C642.857 573.868 642.98 576.305 643.226 578.732C644.651 592.74 650.199 606.01 659.168 616.864C665.862 625.002 674.278 631.555 683.808 636.049C693.339 640.544 703.748 642.869 714.286 642.857C714.286 623.913 706.76 605.745 693.365 592.35C679.97 578.954 661.801 571.429 642.857 571.429Z" fill="#FEFEFE"/>
<path d="M571.428 642.857C580.808 642.857 590.096 641.01 598.762 637.42C607.429 633.831 615.303 628.569 621.936 621.936C628.568 615.304 633.83 607.429 637.419 598.763C641.009 590.097 642.857 580.809 642.857 571.429C623.913 571.429 605.744 578.954 592.349 592.35C578.953 605.745 571.428 623.913 571.428 642.857Z" fill="#FEFEFE"/>
<path d="M571.428 642.857C571.428 661.802 578.953 679.97 592.349 693.365C605.744 706.761 623.912 714.286 642.857 714.286C642.857 695.342 635.331 677.174 621.936 663.778C608.54 650.383 590.372 642.857 571.428 642.857Z" fill="#FEFEFE"/>
<path d="M668.851 659.166C661.764 665.013 655.867 672.166 651.478 680.237C646.979 688.516 644.174 697.607 643.226 706.981C642.98 709.408 642.857 711.845 642.857 714.284C652.238 714.284 661.526 712.437 670.192 708.847C678.858 705.258 686.732 699.996 693.365 693.363C699.998 686.731 705.259 678.856 708.849 670.19C712.438 661.524 714.286 652.236 714.286 642.856C697.703 642.831 681.632 648.6 668.851 659.166Z" fill="#FEFEFE"/>
<path d="M668.85 626.546C661.764 620.7 655.866 613.547 651.477 605.476C646.979 597.197 644.173 588.106 643.225 578.732C642.979 576.305 642.856 573.868 642.857 571.429C642.857 580.809 641.009 590.097 637.419 598.763C633.83 607.429 628.568 615.304 621.936 621.936C615.303 628.569 607.429 633.831 598.762 637.42C590.096 641.01 580.808 642.857 571.428 642.857C580.808 642.857 590.096 644.705 598.762 648.294C607.429 651.884 615.303 657.145 621.936 663.778C628.568 670.411 633.83 678.285 637.419 686.951C641.009 695.618 642.857 704.906 642.857 714.286C642.856 711.847 642.979 709.409 643.225 706.983C644.65 692.975 650.198 679.704 659.167 668.851C665.861 660.712 674.277 654.16 683.808 649.665C693.338 645.17 703.747 642.845 714.285 642.857C697.702 642.882 681.631 637.112 668.85 626.546Z" fill="#FEFEFE"/>
<path d="M357.143 571.429C357.143 580.809 358.99 590.097 362.58 598.763C366.169 607.429 371.431 615.304 378.064 621.936C384.696 628.569 392.571 633.831 401.237 637.42C409.903 641.01 419.191 642.857 428.571 642.857C428.571 623.913 421.046 605.745 407.65 592.35C394.255 578.954 376.087 571.429 357.143 571.429Z" fill="#FEFEFE"/>
<path d="M331.15 626.546C338.236 620.7 344.134 613.547 348.522 605.476C353.021 597.197 355.827 588.106 356.775 578.732C357.021 576.305 357.144 573.868 357.143 571.429C338.199 571.429 320.031 578.954 306.636 592.35C293.24 605.745 285.715 623.913 285.715 642.857C302.298 642.882 318.369 637.112 331.15 626.546Z" fill="#FEFEFE"/>
<path d="M353.932 693.046C351.179 684.206 346.729 675.988 340.833 668.851C334.139 660.713 325.723 654.16 316.192 649.665C306.661 645.171 296.252 642.845 285.715 642.857C285.715 652.238 287.562 661.526 291.152 670.192C294.742 678.858 300.003 686.732 306.636 693.365C313.268 699.998 321.143 705.259 329.809 708.849C338.475 712.439 347.763 714.286 357.143 714.286C357.144 711.847 357.021 709.41 356.775 706.983C356.295 702.254 355.343 697.585 353.932 693.046Z" fill="#FEFEFE"/>
<path d="M428.571 642.857C409.627 642.857 391.459 650.383 378.064 663.778C364.668 677.174 357.143 695.342 357.143 714.286C376.087 714.286 394.255 706.761 407.65 693.365C421.046 679.97 428.571 661.802 428.571 642.857Z" fill="#FEFEFE"/>
<path d="M428.572 642.857C419.192 642.857 409.904 641.01 401.238 637.42C392.571 633.831 384.697 628.569 378.064 621.936C371.432 615.304 366.17 607.429 362.581 598.763C358.991 590.097 357.143 580.809 357.143 571.429C357.144 573.868 357.021 576.305 356.775 578.732C355.35 592.74 349.802 606.01 340.833 616.864C334.139 625.002 325.723 631.555 316.192 636.049C306.661 640.544 296.252 642.869 285.715 642.857C303.401 642.836 320.464 649.386 333.595 661.235C346.725 673.084 354.986 689.387 356.775 706.983C357.021 709.409 357.144 711.847 357.143 714.286C357.143 695.342 364.669 677.174 378.064 663.778C391.46 650.383 409.628 642.857 428.572 642.857Z" fill="#FEFEFE"/>
<path d="M428.571 357.142C428.571 347.762 426.724 338.474 423.134 329.808C419.545 321.142 414.283 313.267 407.65 306.635C401.018 300.002 393.143 294.741 384.477 291.151C375.811 287.561 366.523 285.714 357.143 285.714C357.143 295.094 358.99 304.382 362.58 313.048C366.169 321.715 371.431 329.589 378.064 336.222C384.696 342.854 392.571 348.116 401.237 351.705C409.903 355.295 419.191 357.142 428.571 357.142Z" fill="#FEFEFE"/>
<path d="M331.15 340.834C338.236 334.987 344.134 327.834 348.522 319.763C353.021 311.484 355.827 302.393 356.775 293.019C357.021 290.592 357.144 288.155 357.143 285.716C338.199 285.716 320.031 293.241 306.636 306.637C293.24 320.032 285.715 338.2 285.715 357.144C302.298 357.169 318.369 351.399 331.15 340.834Z" fill="#FEFEFE"/>
<path d="M302.026 402.578C307.872 409.664 315.025 415.562 323.097 419.95C331.375 424.449 340.466 427.254 349.84 428.202C352.267 428.449 354.704 428.572 357.143 428.571C357.144 426.132 357.021 423.695 356.775 421.268C355.35 407.26 349.802 393.99 340.833 383.136C334.139 374.998 325.723 368.445 316.192 363.951C306.662 359.456 296.252 357.131 285.715 357.143C285.691 373.726 291.46 389.796 302.026 402.578Z" fill="#FEFEFE"/>
<path d="M378.383 425.36C387.222 422.606 395.44 418.157 402.578 412.26C410.716 405.566 417.269 397.151 421.764 387.62C426.258 378.089 428.583 367.68 428.571 357.143C409.627 357.143 391.459 364.668 378.064 378.063C364.668 391.459 357.143 409.627 357.143 428.571C359.582 428.572 362.019 428.449 364.446 428.202C369.175 427.723 373.844 426.771 378.383 425.36Z" fill="#FEFEFE"/>
<path d="M331.149 373.453C338.235 379.3 344.133 386.453 348.521 394.524C353.02 402.802 355.825 411.894 356.773 421.268C357.019 423.694 357.142 426.132 357.142 428.571C357.142 409.627 364.668 391.459 378.063 378.063C391.459 364.668 409.627 357.142 428.571 357.142C419.191 357.142 409.902 355.295 401.236 351.705C392.57 348.116 384.696 342.854 378.063 336.222C371.43 329.589 366.169 321.715 362.579 313.048C358.989 304.382 357.142 295.094 357.142 285.714C357.142 288.153 357.019 290.59 356.773 293.017C355.349 307.025 349.801 320.295 340.833 331.149C334.139 339.287 325.723 345.84 316.192 350.334C306.661 354.829 296.252 357.154 285.715 357.142C302.298 357.118 318.367 362.887 331.149 373.453Z" fill="#FEFEFE"/>
<path d="M500 428.571C500 437.951 501.847 447.24 505.437 455.906C509.027 464.572 514.288 472.446 520.921 479.079C527.554 485.712 535.428 490.973 544.094 494.563C552.76 498.153 562.048 500 571.428 500C571.429 490.62 569.581 481.332 565.991 472.666C562.402 463.999 557.14 456.125 550.508 449.492C543.875 442.86 536.001 437.598 527.335 434.009C518.668 430.419 509.38 428.571 500 428.571Z" fill="#FEFEFE"/>
<path d="M500.001 428.571C490.621 428.571 481.332 430.419 472.666 434.009C464 437.598 456.126 442.86 449.493 449.492C442.86 456.125 437.599 463.999 434.009 472.666C430.42 481.332 428.572 490.62 428.572 500C437.952 500 447.241 498.153 455.907 494.563C464.573 490.973 472.447 485.712 479.08 479.079C485.713 472.446 490.974 464.572 494.564 455.906C498.153 447.24 500.001 437.951 500.001 428.571Z" fill="#FEFEFE"/>
<path d="M428.572 500C428.572 518.944 436.098 537.112 449.493 550.508C462.889 563.903 481.057 571.428 500.001 571.428C500.001 552.484 492.475 534.316 479.08 520.921C465.684 507.525 447.516 500 428.572 500Z" fill="#FEFEFE"/>
<path d="M500 571.428C518.944 571.428 537.112 563.903 550.508 550.508C563.903 537.112 571.428 518.944 571.428 500C552.484 500 534.316 507.525 520.921 520.921C507.525 534.316 500 552.484 500 571.428Z" fill="#FEFEFE"/>
<path d="M500.003 428.572C497.564 428.573 495.127 428.449 492.7 428.203C478.692 426.779 465.422 421.231 454.568 412.261C446.43 405.567 439.877 397.152 435.383 387.621C430.888 378.09 428.563 367.681 428.575 357.144C428.596 374.83 422.046 391.893 410.197 405.024C398.347 418.154 382.043 426.415 364.448 428.203C362.021 428.449 359.584 428.573 357.145 428.572C366.525 428.572 375.813 430.419 384.48 434.009C393.146 437.598 401.02 442.86 407.653 449.493C414.286 456.125 419.548 464 423.137 472.666C426.727 481.332 428.575 490.621 428.575 500.001C428.575 490.621 430.422 481.332 434.012 472.666C437.601 464 442.863 456.126 449.496 449.493C456.128 442.86 464.003 437.599 472.669 434.009C481.335 430.42 490.623 428.572 500.003 428.572Z" fill="#FEFEFE"/>
<path d="M621.617 425.36C612.777 422.606 604.559 418.157 597.422 412.26C589.284 405.566 582.731 397.151 578.236 387.62C573.742 378.089 571.416 367.68 571.428 357.143C571.449 374.829 564.9 391.892 553.051 405.022C541.202 418.153 524.899 426.413 507.303 428.202C504.877 428.449 502.439 428.572 500 428.571C509.38 428.571 518.668 430.419 527.335 434.008C536.001 437.598 543.875 442.859 550.508 449.492C557.14 456.125 562.402 463.999 565.991 472.665C569.581 481.331 571.429 490.62 571.428 500C571.428 481.056 578.954 462.888 592.349 449.492C605.745 436.097 623.913 428.571 642.857 428.571C640.418 428.572 637.981 428.449 635.554 428.202C630.825 427.723 626.156 426.771 621.617 425.36Z" fill="#FEFEFE"/>
</svg>
