<svg width="300" height="300" viewBox="0 0 300 300" fill="none" xmlns="http://www.w3.org/2000/svg">
<path d="M150 42C150 101.647 101.647 150 42 150C101.647 150 150 198.353 150 258C150 198.353 198.353 150 258 150C198.353 150 150 101.647 150 42Z" fill="#FEFEFE"/>
<path d="M42 150C101.647 150 150 101.647 150 42C90.3532 42 42 90.3533 42 150Z" fill="#FEFEFE"/>
<path d="M258 150C258 209.647 209.647 258 150 258C150 198.353 198.353 150 258 150Z" fill="#FEFEFE"/>
<path d="M150 42C209.647 42 258 90.3533 258 150C198.353 150 150 101.647 150 42C150 42 150 42 150 42Z" fill="#FEFEFE"/>
<path d="M42 150C101.647 150 150 198.353 150 258C90.3532 258 42 209.647 42 150C42 150 42 150 42 150Z" fill="#FEFEFE"/>
</svg>
