<svg width="340" height="340" viewBox="0 0 340 340" fill="none" xmlns="http://www.w3.org/2000/svg">
<path d="M170 42C170 112.692 112.692 170 42 170C112.692 170 170 227.308 170 298C170 227.308 227.308 170 298 170C227.308 170 170 112.692 170 42Z" fill="#FEFEFE"/>
<path d="M42 170C112.692 170 170 112.692 170 42C99.3075 42 42 99.3076 42 170Z" fill="#FEFEFE"/>
<path d="M298 170C298 240.692 240.692 298 170 298C170 227.308 227.308 170 298 170Z" fill="#FEFEFE"/>
<path d="M170 42C240.692 42 298 99.3076 298 170C227.308 170 170 112.692 170 42C170 42 170 42 170 42Z" fill="#FEFEFE"/>
<path d="M42 170C112.692 170 170 227.308 170 298C99.3075 298 42 240.692 42 170C42 170 42 170 42 170Z" fill="#FEFEFE"/>
</svg>
