<svg width="400" height="400" viewBox="0 0 400 400" fill="none" xmlns="http://www.w3.org/2000/svg">
<path d="M200 92C200 151.647 151.647 200 92 200C151.647 200 200 248.353 200 308C200 248.353 248.353 200 308 200C248.353 200 200 151.647 200 92Z" fill="#FEFEFE"/>
<path d="M92 200C151.647 200 200 151.647 200 92C140.353 92 92 140.353 92 200Z" fill="#FEFEFE"/>
<path d="M308 200C308 259.647 259.647 308 200 308C200 248.353 248.353 200 308 200Z" fill="#FEFEFE"/>
<path d="M200 92C259.647 92 308 140.353 308 200C248.353 200 200 151.647 200 92C200 92 200 92 200 92Z" fill="#FEFEFE"/>
<path d="M92 200C151.647 200 200 248.353 200 308C140.353 308 92 259.647 92 200C92 200 92 200 92 200Z" fill="#FEFEFE"/>
</svg>
