<svg width="216" height="216" viewBox="0 0 216 216" fill="none" xmlns="http://www.w3.org/2000/svg">
<path d="M108 4.5427e-07C108 59.6468 59.6468 108 0 108C59.6467 108 108 156.353 108 216C108 156.353 156.353 108 216 108C156.353 108 108 59.6468 108 4.5427e-07Z" fill="#FEFEFE"/>
<path d="M0 108C59.6468 108 108 59.6468 108 4.5427e-07C48.3532 1.31699e-05 -7.62939e-06 48.3533 0 108Z" fill="#FEFEFE"/>
<path d="M216 108C216 167.647 167.647 216 108 216C108 156.353 156.353 108 216 108Z" fill="#FEFEFE"/>
<path d="M108 4.5427e-07C167.647 3.00564e-06 216 48.3533 216 108C156.353 108 108 59.6468 108 4.5427e-07C108 2.02791e-06 108 -1.11937e-06 108 4.5427e-07Z" fill="#FEFEFE"/>
<path d="M0 108C59.6467 108 108 156.353 108 216C48.3532 216 0 167.647 0 108C0 108 0 108 0 108Z" fill="#FEFEFE"/>
</svg>
