<svg id="Layer_1" data-name="Layer 1" xmlns="http://www.w3.org/2000/svg" width="400" height="400" viewBox="0 0 400 400">
  <defs>
    <style>
      .cls-1 {
        fill: #333;
      }
    </style>
  </defs>
  <path class="cls-1" d="M104,224a24,24,0,0,0,24,24h0a24,24,0,0,0-24-24Z"/>
  <path class="cls-1" d="M128,200a24,24,0,0,0,24,24h0a24,24,0,0,0-24-24Z"/>
  <path class="cls-1" d="M152,224a24,24,0,0,0-24,24h0a24,24,0,0,0,24-24Z"/>
  <path class="cls-1" d="M128,200a24,24,0,0,0-24,24h0a24,24,0,0,0,24-24Z"/>
  <path class="cls-1" d="M200,320a24,24,0,0,0,24-24h0a24,24,0,0,0-24,24Z"/>
  <path class="cls-1" d="M152,224a24,24,0,0,0,24,24h0a24,24,0,0,0-24-24Z"/>
  <path class="cls-1" d="M224,296a24,24,0,0,0,21.1,23.82c1-.36,1.91-.74,2.86-1.12A24,24,0,0,0,224,296Z"/>
  <path class="cls-1" d="M176,200a24,24,0,0,0,24,24h0a24,24,0,0,0-24-24Z"/>
  <path class="cls-1" d="M200,224a24,24,0,0,0-24,24h0a24,24,0,0,0,24-24Z"/>
  <path class="cls-1" d="M176,296a24,24,0,0,0-24,22.7c.95.38,1.9.76,2.86,1.12A24,24,0,0,0,176,296Z"/>
  <path class="cls-1" d="M176,200a24,24,0,0,0-24,24h0a24,24,0,0,0,24-24Z"/>
  <path class="cls-1" d="M176,296a24,24,0,0,0,24,24h0a24,24,0,0,0-24-24Z"/>
  <path class="cls-1" d="M200,224a24,24,0,0,0,24,24h0a24,24,0,0,0-24-24Z"/>
  <path class="cls-1" d="M224,200a24,24,0,0,0,24,24h0a24,24,0,0,0-24-24Z"/>
  <path class="cls-1" d="M224,248a24,24,0,0,0,24-24h0a24,24,0,0,0-24,24Z"/>
  <path class="cls-1" d="M200,224a24,24,0,0,0,24-24h0a24,24,0,0,0-24,24Z"/>
  <path class="cls-1" d="M248,224a24,24,0,0,0,24,24h0a24,24,0,0,0-24-24Z"/>
  <path class="cls-1" d="M272,200a24,24,0,0,0,24,24h0a24,24,0,0,0-24-24Z"/>
  <path class="cls-1" d="M272,248a24,24,0,0,0,24-24h0a24,24,0,0,0-24,24Z"/>
  <path class="cls-1" d="M272,248a24,24,0,0,0-24,24h0a24,24,0,0,0,24-24Z"/>
  <path class="cls-1" d="M272,296a24,24,0,0,0,24-24h0a24,24,0,0,0-24,24Z"/>
  <path class="cls-1" d="M272,248a24,24,0,0,0,24,24h0a24,24,0,0,0-24-24Z"/>
  <path class="cls-1" d="M248,272a24,24,0,0,0,24,24h0a24,24,0,0,0-24-24Z"/>
  <path class="cls-1" d="M200,272a24,24,0,0,0,24-24h0a24,24,0,0,0-24,24Z"/>
  <path class="cls-1" d="M224,296a24,24,0,0,0,24-24h0a24,24,0,0,0-24,24Z"/>
  <path class="cls-1" d="M224,248a24,24,0,0,0,24,24h0a24,24,0,0,0-24-24Z"/>
  <path class="cls-1" d="M200,272a24,24,0,0,0,24,24h0a24,24,0,0,0-24-24Z"/>
  <path class="cls-1" d="M176,248a24,24,0,0,0-24,24h0a24,24,0,0,0,24-24Z"/>
  <path class="cls-1" d="M200,272a24,24,0,0,0-24,24h0a24,24,0,0,0,24-24Z"/>
  <path class="cls-1" d="M176,248a24,24,0,0,0,24,24h0a24,24,0,0,0-24-24Z"/>
  <path class="cls-1" d="M152,272a24,24,0,0,0,24,24h0a24,24,0,0,0-24-24Z"/>
  <path class="cls-1" d="M128,248a24,24,0,0,0-24,24h0a24,24,0,0,0,24-24Z"/>
  <path class="cls-1" d="M128,296a24,24,0,0,0,24-24h0a24,24,0,0,0-24,24Z"/>
  <path class="cls-1" d="M128,248a24,24,0,0,0,24,24h0a24,24,0,0,0-24-24Z"/>
  <path class="cls-1" d="M104,272a24,24,0,0,0,24,24h0a24,24,0,0,0-24-24Z"/>
  <path class="cls-1" d="M272,200a24,24,0,0,0-24,24h0a24,24,0,0,0,24-24Z"/>
  <path class="cls-1" d="M296,224a24,24,0,0,0,22.7,24c.38-.95.76-1.9,1.12-2.86A24,24,0,0,0,296,224Z"/>
  <path class="cls-1" d="M296,224a24,24,0,0,0,24-24h0a24,24,0,0,0-24,24Z"/>
  <path class="cls-1" d="M104,176a24,24,0,0,0-22.7-24c-.38.95-.76,1.9-1.12,2.86A24,24,0,0,0,104,176Z"/>
  <path class="cls-1" d="M104,176a24,24,0,0,0-24,24A24,24,0,0,0,104,176Z"/>
  <path class="cls-1" d="M128,200a24,24,0,0,0-24-24A24,24,0,0,0,128,200Z"/>
  <path class="cls-1" d="M152,176a24,24,0,0,0-24-24h0a24,24,0,0,0,24,24Z"/>
  <path class="cls-1" d="M152,176a24,24,0,0,0-24,24A24,24,0,0,0,152,176Z"/>
  <path class="cls-1" d="M224,104a24,24,0,0,0,24-22.7c-.95-.38-1.9-.76-2.86-1.12A24,24,0,0,0,224,104Z"/>
  <path class="cls-1" d="M128,152a24,24,0,0,0-24,24h0a24,24,0,0,0,24-24Z"/>
  <path class="cls-1" d="M224,104a24,24,0,0,0-24-24A24,24,0,0,0,224,104Z"/>
  <path class="cls-1" d="M176,200a24,24,0,0,0-24-24A24,24,0,0,0,176,200Z"/>
  <path class="cls-1" d="M200,176a24,24,0,0,0-24-24h0a24,24,0,0,0,24,24Z"/>
  <path class="cls-1" d="M200,80a24,24,0,0,0-24,24A24,24,0,0,0,200,80Z"/>
  <path class="cls-1" d="M200,176a24,24,0,0,0-24,24A24,24,0,0,0,200,176Z"/>
  <path class="cls-1" d="M176,104a24,24,0,0,0-21.1-23.82c-1,.36-1.91.74-2.86,1.12A24,24,0,0,0,176,104Z"/>
  <path class="cls-1" d="M176,152a24,24,0,0,0-24,24h0a24,24,0,0,0,24-24Z"/>
  <path class="cls-1" d="M200,176a24,24,0,0,0,24,24A24,24,0,0,0,200,176Z"/>
  <path class="cls-1" d="M248,176a24,24,0,0,0-24-24h0a24,24,0,0,0,24,24Z"/>
  <path class="cls-1" d="M224,200a24,24,0,0,0,24-24A24,24,0,0,0,224,200Z"/>
  <path class="cls-1" d="M272,296a24,24,0,0,1-24-24h0a24,24,0,0,1-24,24h0a24,24,0,0,1,24,22.7h.07A24,24,0,0,1,272,296Z"/>
  <path class="cls-1" d="M176,296a24,24,0,0,1-24-24h0a24,24,0,0,1-24,24h0a24,24,0,0,1,24,22.67h.07A24,24,0,0,1,176,296Z"/>
  <path class="cls-1" d="M200,176a24,24,0,0,0,24-24h0a24,24,0,0,0-24,24Z"/>
  <path class="cls-1" d="M296,224a24,24,0,0,1-24,24h0a24,24,0,0,1,24,24h0a24,24,0,0,1,22.67-24v-.07A24,24,0,0,1,296,224Z"/>
  <path class="cls-1" d="M104,272a24,24,0,0,1,24-24h0a24,24,0,0,1-24-24h0a24,24,0,0,1-22.7,24v.07A24,24,0,0,1,104,272Z"/>
  <path class="cls-1" d="M272,200a24,24,0,0,0-24-24A24,24,0,0,0,272,200Z"/>
  <path class="cls-1" d="M296,176a24,24,0,0,0-24-24h0a24,24,0,0,0,24,24Z"/>
  <path class="cls-1" d="M272,200a24,24,0,0,0,24-24A24,24,0,0,0,272,200Z"/>
  <path class="cls-1" d="M248,176a24,24,0,0,0,24-24h0a24,24,0,0,0-24,24Z"/>
  <path class="cls-1" d="M296,128a24,24,0,0,1-24,24,24,24,0,0,1,24,24h0a24,24,0,0,1,22.7-24v-.07A24,24,0,0,1,296,128Z"/>
  <path class="cls-1" d="M104,176a24,24,0,0,1,24-24h0a24,24,0,0,1-24-24,24,24,0,0,1-22.67,24v.07A24,24,0,0,1,104,176Z"/>
  <path class="cls-1" d="M320,200a24,24,0,0,0-24-24A24,24,0,0,0,320,200Z"/>
  <path class="cls-1" d="M224,104a24,24,0,0,1,24,24,24,24,0,0,1,24-24,24,24,0,0,1-24-22.67h-.07A24,24,0,0,1,224,104Z"/>
  <path class="cls-1" d="M176,295.9a24,24,0,0,1,24,24,24,24,0,0,1,24-24,24,24,0,0,1-24-22.7H200A24,24,0,0,1,176,295.9Z"/>
  <path class="cls-1" d="M248,272a24,24,0,0,1,24,24,24,24,0,0,1,24-24,24,24,0,0,1-24-22.7h-.07A24,24,0,0,1,248,272Z"/>
  <path class="cls-1" d="M200,272a24,24,0,0,1,24,24,24,24,0,0,1,24-24,24,24,0,0,1-24-22.7H224A24,24,0,0,1,200,272Z"/>
  <path class="cls-1" d="M152,272a24,24,0,0,1,24,24,24,24,0,0,1,24-24,24,24,0,0,1-24-22.7H176A24,24,0,0,1,152,272Z"/>
  <path class="cls-1" d="M104,272a24,24,0,0,1,24,24,24,24,0,0,1,24-24,24,24,0,0,1-24-22.7H128A24,24,0,0,1,104,272Z"/>
  <path class="cls-1" d="M224,248a24,24,0,0,1,24,24,24,24,0,0,1,24-24,24,24,0,0,1-24-22.7h-.07A24,24,0,0,1,224,248Z"/>
  <path class="cls-1" d="M176,248a24,24,0,0,1,24,24,24,24,0,0,1,24-24,24,24,0,0,1-24-22.7H200A24,24,0,0,1,176,248Z"/>
  <path class="cls-1" d="M128,248a24,24,0,0,1,24,24,24,24,0,0,1,24-24,24,24,0,0,1-24-22.7H152A24,24,0,0,1,128,248Z"/>
  <path class="cls-1" d="M104,224.07a24,24,0,0,1,24,24,24,24,0,0,1,24-24,24,24,0,0,1-24-22.7H128A24,24,0,0,1,104,224.07Z"/>
  <path class="cls-1" d="M152,224.07a24,24,0,0,1,24,24,24,24,0,0,1,24-24,24,24,0,0,1-24-22.7H176A24,24,0,0,1,152,224.07Z"/>
  <path class="cls-1" d="M200,224.07a24,24,0,0,1,24,24,24,24,0,0,1,24-24,24,24,0,0,1-24-22.7h-.07A24,24,0,0,1,200,224.07Z"/>
  <path class="cls-1" d="M248,224.07a24,24,0,0,1,24,24,24,24,0,0,1,24-24,24,24,0,0,1-24-22.7h-.07A24,24,0,0,1,248,224.07Z"/>
  <path class="cls-1" d="M272,200.15a24,24,0,0,1,24,24,24,24,0,0,1,24-24,24,24,0,0,1-24-22.7h-.07A24,24,0,0,1,272,200.15Z"/>
  <path class="cls-1" d="M224,200.15a24,24,0,0,1,24,24,24,24,0,0,1,24-24,24,24,0,0,1-24-22.7h-.07A24,24,0,0,1,224,200.15Z"/>
  <path class="cls-1" d="M176,200.15a24,24,0,0,1,24,24,24,24,0,0,1,24-24,24,24,0,0,1-24-22.7h-.07A24,24,0,0,1,176,200.15Z"/>
  <path class="cls-1" d="M128,200.15a24,24,0,0,1,24,24,24,24,0,0,1,24-24,24,24,0,0,1-24-22.7h-.07A24,24,0,0,1,128,200.15Z"/>
  <path class="cls-1" d="M80,200.15a24,24,0,0,1,24,24,24,24,0,0,1,24-24,24,24,0,0,1-24-22.7h-.07A24,24,0,0,1,80,200.15Z"/>
  <path class="cls-1" d="M248,176a24,24,0,0,1,24,24,24,24,0,0,1,24-24,24,24,0,0,1-24-22.7h-.07A24,24,0,0,1,248,176Z"/>
  <path class="cls-1" d="M200,176a24,24,0,0,1,24,24,24,24,0,0,1,24-24,24,24,0,0,1-24-22.7h-.07A24,24,0,0,1,200,176Z"/>
  <path class="cls-1" d="M152,176a24,24,0,0,1,24,24,24,24,0,0,1,24-24,24,24,0,0,1-24-22.7H176A24,24,0,0,1,152,176Z"/>
  <path class="cls-1" d="M104,176a24,24,0,0,1,24,24,24,24,0,0,1,24-24,24,24,0,0,1-24-22.7h-.07A24,24,0,0,1,104,176Z"/>
  <path class="cls-1" d="M128,152a24,24,0,0,1,24,24,24,24,0,0,1,24-24,24,24,0,0,1-24-22.7H152A24,24,0,0,1,128,152Z"/>
  <path class="cls-1" d="M176,152a24,24,0,0,1,24,24,24,24,0,0,1,24-24,24,24,0,0,1-24-22.7h-.07A24,24,0,0,1,176,152Z"/>
  <path class="cls-1" d="M224,152a24,24,0,0,1,24,24,24,24,0,0,1,24-24,24,24,0,0,1-24-22.7h-.07A24,24,0,0,1,224,152Z"/>
  <path class="cls-1" d="M248,128.13a24,24,0,0,1,24,24,24,24,0,0,1,24-24,24,24,0,0,1-24-22.7h-.07A24,24,0,0,1,248,128.13Z"/>
  <path class="cls-1" d="M200,128.13a24,24,0,0,1,24,24,24,24,0,0,1,24-24,24,24,0,0,1-24-22.7h-.07A24,24,0,0,1,200,128.13Z"/>
  <path class="cls-1" d="M152,128.13a24,24,0,0,1,24,24,24,24,0,0,1,24-24,24,24,0,0,1-24-22.7h-.07A24,24,0,0,1,152,128.13Z"/>
  <path class="cls-1" d="M104,128.13a24,24,0,0,1,24,24,24,24,0,0,1,24-24,24,24,0,0,1-24-22.7h-.07A24,24,0,0,1,104,128.13Z"/>
  <path class="cls-1" d="M176,104a24,24,0,0,1,24,24,24,24,0,0,1,24-24,24,24,0,0,1-24-22.7h-.07A24,24,0,0,1,176,104Z"/>
  <path class="cls-1" d="M128,104a24,24,0,0,1,24,24,24,24,0,0,1,24-24,24,24,0,0,1-24-22.7h-.07A24,24,0,0,1,128,104Z"/>
  <path class="cls-1" d="M296,176a24,24,0,0,0,23.82-21.1c-.36-1-.74-1.91-1.12-2.86A24,24,0,0,0,296,176Z"/>
  <path class="cls-1" d="M104,128a24,24,0,0,0,24,24A24,24,0,0,0,104,128Z"/>
  <path class="cls-1" d="M152,128a24,24,0,0,0-24-24A24,24,0,0,0,152,128Z"/>
  <path class="cls-1" d="M152,128a24,24,0,0,0-24,24A24,24,0,0,0,152,128Z"/>
  <path class="cls-1" d="M272,104a24,24,0,0,0-24,24A24,24,0,0,0,272,104Z"/>
  <path class="cls-1" d="M272,152a24,24,0,0,0,24-24A24,24,0,0,0,272,152Z"/>
  <path class="cls-1" d="M296,128a24,24,0,0,0-24-24A24,24,0,0,0,296,128Z"/>
  <path class="cls-1" d="M272,152a24,24,0,0,0-24-24A24,24,0,0,0,272,152Z"/>
  <path class="cls-1" d="M200,128a24,24,0,0,0,24-24A24,24,0,0,0,200,128Z"/>
  <path class="cls-1" d="M224,152a24,24,0,0,0,24-24A24,24,0,0,0,224,152Z"/>
  <path class="cls-1" d="M248,128a24,24,0,0,0-24-24A24,24,0,0,0,248,128Z"/>
  <path class="cls-1" d="M224,152a24,24,0,0,0-24-24A24,24,0,0,0,224,152Z"/>
  <path class="cls-1" d="M176,104a24,24,0,0,0-24,24A24,24,0,0,0,176,104Z"/>
  <path class="cls-1" d="M200,128a24,24,0,0,0-24,24A24,24,0,0,0,200,128Z"/>
  <path class="cls-1" d="M200,128a24,24,0,0,0-24-24A24,24,0,0,0,200,128Z"/>
  <path class="cls-1" d="M176,152a24,24,0,0,0-24-24A24,24,0,0,0,176,152Z"/>
  <path class="cls-1" d="M128,104a24,24,0,0,0-24,24A24,24,0,0,0,128,104Z"/>
  <path class="cls-1" d="M104,224a24,24,0,0,0-23.82,21.1c.36,1,.74,1.91,1.12,2.86A24,24,0,0,0,104,224Z"/>
  <path class="cls-1" d="M80,200a24,24,0,0,0,24,24h0a24,24,0,0,0-24-24Z"/>
  <path id="hide" class="cls-1" d="M304.7,126.36q-3.06-4.35-6.49-8.43A24,24,0,0,0,296,128,23.74,23.74,0,0,0,304.7,126.36Z"/>
  <path id="hide-2" data-name="hide" class="cls-1" d="M95.3,126.36q-1.68,2.39-3.25,4.83A24,24,0,0,1,104,128,23.74,23.74,0,0,1,95.3,126.36Z"/>
  <path id="hide-3" data-name="hide" class="cls-1" d="M104,128a24,24,0,0,0-12,3.19A127.89,127.89,0,0,0,81.33,152,24,24,0,0,0,104,128Z"/>
  <path id="hide-4" data-name="hide" class="cls-1" d="M101.79,117.93q-3.42,4.08-6.49,8.43A23.74,23.74,0,0,0,104,128,24,24,0,0,0,101.79,117.93Z"/>
  <path id="hide-5" data-name="hide" class="cls-1" d="M296,176a24,24,0,0,1,24,24,23.92,23.92,0,0,1,6.9-16.84,126.94,126.94,0,0,0-4.49-20.67,24.09,24.09,0,0,1-2-5.9c-.2-.57-.41-1.13-.62-1.69A24,24,0,0,1,296,176Z"/>
  <path id="hide-6" data-name="hide" class="cls-1" d="M308,131.19q-1.57-2.44-3.25-4.83A23.74,23.74,0,0,1,296,128,24,24,0,0,1,308,131.19Z"/>
  <path id="hide-7" data-name="hide" class="cls-1" d="M328,198.63a129.14,129.14,0,0,0-1.08-15.47A23.94,23.94,0,0,0,320,200,23.69,23.69,0,0,0,328,198.63Z"/>
  <path id="hide-8" data-name="hide" class="cls-1" d="M320.44,156.59a24.09,24.09,0,0,0,2,5.9C321.8,160.5,321.15,158.53,320.44,156.59Z"/>
  <path id="hide-9" data-name="hide" class="cls-1" d="M128,104a24,24,0,0,1-10.07-2.21,128.17,128.17,0,0,0-16.14,16.14A24,24,0,0,1,104,128,24,24,0,0,1,128,104Z"/>
  <path id="hide-10" data-name="hide" class="cls-1" d="M296,128a24,24,0,0,1,2.21-10.07,128.17,128.17,0,0,0-16.14-16.14A24,24,0,0,1,272,104,24,24,0,0,1,296,128Z"/>
  <path id="hide-11" data-name="hide" class="cls-1" d="M72,198.63v2.74A23.69,23.69,0,0,1,80,200,23.69,23.69,0,0,1,72,198.63Z"/>
  <path id="hide-12" data-name="hide" class="cls-1" d="M328,201.37v-2.74a23.69,23.69,0,0,1-8,1.37A23.69,23.69,0,0,1,328,201.37Z"/>
  <path id="hide-13" data-name="hide" class="cls-1" d="M201.37,72h-2.74A23.69,23.69,0,0,1,200,80,23.69,23.69,0,0,1,201.37,72Z"/>
  <path id="hide-14" data-name="hide" class="cls-1" d="M198.63,328h2.74a23.69,23.69,0,0,1-1.37-8A23.69,23.69,0,0,1,198.63,328Z"/>
  <path id="hide-15" data-name="hide" class="cls-1" d="M104,272a24,24,0,0,1-2.21,10.07,128.17,128.17,0,0,0,16.14,16.14A24,24,0,0,1,128,296a24,24,0,0,1-24-24Z"/>
  <path id="hide-16" data-name="hide" class="cls-1" d="M296,272a24,24,0,0,1-24,24h0a24,24,0,0,1,10.07,2.21,128.17,128.17,0,0,0,16.14-16.14A24,24,0,0,1,296,272Z"/>
  <path id="hide-17" data-name="hide" class="cls-1" d="M126.36,95.3q-4.35,3.06-8.43,6.49A24,24,0,0,0,128,104,23.74,23.74,0,0,0,126.36,95.3Z"/>
  <path id="hide-18" data-name="hide" class="cls-1" d="M152,81.33a127.89,127.89,0,0,0-20.81,10.72A24,24,0,0,0,128,104,24,24,0,0,0,152,81.33Z"/>
  <path id="hide-19" data-name="hide" class="cls-1" d="M131.19,92.05q-2.44,1.58-4.83,3.25A23.74,23.74,0,0,1,128,104,24,24,0,0,1,131.19,92.05Z"/>
  <path id="hide-20" data-name="hide" class="cls-1" d="M198.63,72a129.14,129.14,0,0,0-15.47,1.08A23.94,23.94,0,0,0,200,80,23.69,23.69,0,0,0,198.63,72Z"/>
  <path id="hide-21" data-name="hide" class="cls-1" d="M156.59,79.56a24.09,24.09,0,0,0,5.9-2C160.5,78.2,158.53,78.85,156.59,79.56Z"/>
  <path id="hide-22" data-name="hide" class="cls-1" d="M176,104a24,24,0,0,1,24-24,23.92,23.92,0,0,1-16.84-6.9,126.94,126.94,0,0,0-20.67,4.49,24.09,24.09,0,0,1-5.9,2l-1.69.62A24,24,0,0,1,176,104Z"/>
  <path id="hide-23" data-name="hide" class="cls-1" d="M237.51,77.59a24.09,24.09,0,0,0,5.9,2Q240.5,78.51,237.51,77.59Z"/>
  <path id="hide-24" data-name="hide" class="cls-1" d="M216.84,73.1A129.17,129.17,0,0,0,201.37,72,23.69,23.69,0,0,0,200,80,23.92,23.92,0,0,0,216.84,73.1Z"/>
  <path id="hide-25" data-name="hide" class="cls-1" d="M224,104a24,24,0,0,1,21.1-23.82l-1.69-.62a24.09,24.09,0,0,1-5.9-2,127,127,0,0,0-20.67-4.44A23.94,23.94,0,0,1,200,80,24,24,0,0,1,224,104Z"/>
  <path id="hide-26" data-name="hide" class="cls-1" d="M104,176a24,24,0,0,1-23.82-21.1c-.21.56-.42,1.12-.62,1.69a24.09,24.09,0,0,1-2,5.9,127,127,0,0,0-4.44,20.67A23.94,23.94,0,0,1,80,200,24,24,0,0,1,104,176Z"/>
  <path id="hide-27" data-name="hide" class="cls-1" d="M77.59,162.49a24.09,24.09,0,0,0,2-5.9C78.86,158.54,78.2,160.5,77.59,162.49Z"/>
  <path id="hide-28" data-name="hide" class="cls-1" d="M272,104a24,24,0,0,0-3.19-12A127.89,127.89,0,0,0,248,81.33,24,24,0,0,0,272,104Z"/>
  <path id="hide-29" data-name="hide" class="cls-1" d="M282.07,101.79q-4.08-3.42-8.43-6.49A23.74,23.74,0,0,0,272,104,24,24,0,0,0,282.07,101.79Z"/>
  <path id="hide-30" data-name="hide" class="cls-1" d="M73.1,183.16A129.17,129.17,0,0,0,72,198.63,23.69,23.69,0,0,0,80,200,23.92,23.92,0,0,0,73.1,183.16Z"/>
  <path id="hide-31" data-name="hide" class="cls-1" d="M296,224a24,24,0,0,1,23.82,21.1c.21-.56.42-1.12.62-1.69a24.09,24.09,0,0,1,2-5.9,126.94,126.94,0,0,0,4.49-20.67A23.92,23.92,0,0,1,320,200a24,24,0,0,1-24,24Z"/>
  <path id="hide-32" data-name="hide" class="cls-1" d="M273.64,95.3q-2.38-1.68-4.83-3.25A24,24,0,0,1,272,104,23.74,23.74,0,0,1,273.64,95.3Z"/>
  <path id="hide-33" data-name="hide" class="cls-1" d="M322.41,237.51a24.09,24.09,0,0,0-2,5.9C321.15,241.47,321.8,239.5,322.41,237.51Z"/>
  <path id="hide-34" data-name="hide" class="cls-1" d="M326.9,216.84A129.14,129.14,0,0,0,328,201.37a23.69,23.69,0,0,0-8-1.37A23.94,23.94,0,0,0,326.9,216.84Z"/>
  <path id="hide-35" data-name="hide" class="cls-1" d="M81.33,248a127.5,127.5,0,0,0,10.72,20.77A23.88,23.88,0,0,0,104,272,24,24,0,0,0,81.33,248Z"/>
  <path id="hide-36" data-name="hide" class="cls-1" d="M95.3,273.64q3.06,4.37,6.49,8.43A24,24,0,0,0,104,272,23.74,23.74,0,0,0,95.3,273.64Z"/>
  <path id="hide-37" data-name="hide" class="cls-1" d="M92.05,268.81q1.58,2.44,3.25,4.83A23.74,23.74,0,0,1,104,272,24,24,0,0,1,92.05,268.81Z"/>
  <path id="hide-38" data-name="hide" class="cls-1" d="M298.21,282.07q3.42-4.08,6.49-8.43A23.74,23.74,0,0,0,296,272,24,24,0,0,0,298.21,282.07Z"/>
  <path id="hide-39" data-name="hide" class="cls-1" d="M296,272A24,24,0,0,0,308,268.81,127.89,127.89,0,0,0,318.67,248,24,24,0,0,0,296,272Z"/>
  <path id="hide-40" data-name="hide" class="cls-1" d="M304.7,273.64q1.68-2.38,3.25-4.83A24,24,0,0,1,296,272,23.74,23.74,0,0,1,304.7,273.64Z"/>
  <path id="hide-41" data-name="hide" class="cls-1" d="M128,296A24,24,0,0,0,131.19,308,127.89,127.89,0,0,0,152,318.67,24,24,0,0,0,128,296Z"/>
  <path id="hide-42" data-name="hide" class="cls-1" d="M117.93,298.21q4.08,3.42,8.43,6.49A23.74,23.74,0,0,0,128,296,24,24,0,0,0,117.93,298.21Z"/>
  <path id="hide-43" data-name="hide" class="cls-1" d="M126.36,304.7q2.39,1.68,4.83,3.25A24,24,0,0,1,128,296,23.74,23.74,0,0,1,126.36,304.7Z"/>
  <path id="hide-44" data-name="hide" class="cls-1" d="M162.49,322.41a24.09,24.09,0,0,0-5.9-2C158.54,321.15,160.5,321.8,162.49,322.41Z"/>
  <path id="hide-45" data-name="hide" class="cls-1" d="M183.16,326.9A129.14,129.14,0,0,0,198.63,328a23.69,23.69,0,0,0,1.37-8A23.94,23.94,0,0,0,183.16,326.9Z"/>
  <path id="hide-46" data-name="hide" class="cls-1" d="M176,296a24,24,0,0,1-21.1,23.82l1.69.62a24.09,24.09,0,0,1,5.9,2,126.94,126.94,0,0,0,20.67,4.49A23.92,23.92,0,0,1,200,320a24,24,0,0,1-24-24Z"/>
  <path id="hide-47" data-name="hide" class="cls-1" d="M201.37,328a129.14,129.14,0,0,0,15.47-1.08A23.94,23.94,0,0,0,200,320,23.69,23.69,0,0,0,201.37,328Z"/>
  <path id="hide-48" data-name="hide" class="cls-1" d="M243.41,320.44a24.09,24.09,0,0,0-5.9,2C239.5,321.8,241.47,321.15,243.41,320.44Z"/>
  <path id="hide-49" data-name="hide" class="cls-1" d="M224,296a24,24,0,0,1-24,24h0a23.92,23.92,0,0,1,16.84,6.9,126.94,126.94,0,0,0,20.67-4.49,24.09,24.09,0,0,1,5.9-2l1.69-.62A24,24,0,0,1,224,296Z"/>
  <path id="hide-50" data-name="hide" class="cls-1" d="M273.64,304.7q4.37-3.06,8.43-6.49A24,24,0,0,0,272,296,23.74,23.74,0,0,0,273.64,304.7Z"/>
  <path id="hide-51" data-name="hide" class="cls-1" d="M248,318.67A127.5,127.5,0,0,0,268.77,308,23.88,23.88,0,0,0,272,296,24,24,0,0,0,248,318.67Z"/>
  <path id="hide-52" data-name="hide" class="cls-1" d="M104,224a24,24,0,0,1-24-24h0a23.92,23.92,0,0,1-6.9,16.84,126.94,126.94,0,0,0,4.49,20.67,24.09,24.09,0,0,1,2,5.9c.2.57.41,1.13.62,1.69A24,24,0,0,1,104,224Z"/>
  <path id="hide-53" data-name="hide" class="cls-1" d="M72,201.37a129.14,129.14,0,0,0,1.08,15.47A23.94,23.94,0,0,0,80,200,23.69,23.69,0,0,0,72,201.37Z"/>
  <path id="hide-54" data-name="hide" class="cls-1" d="M268.81,308q2.44-1.57,4.83-3.25A23.74,23.74,0,0,1,272,296,24,24,0,0,1,268.81,308Z"/>
  <path id="hide-55" data-name="hide" class="cls-1" d="M318.67,152A127.5,127.5,0,0,0,308,131.23,23.88,23.88,0,0,0,296,128,24,24,0,0,0,318.67,152Z"/>
  <path id="hide-56" data-name="hide" class="cls-1" d="M79.56,243.41a24.09,24.09,0,0,0-2-5.9C78.2,239.5,78.85,241.47,79.56,243.41Z"/>
</svg>
